<?xml version="1.0" encoding="utf-8"?>
<!-- Generator: Adobe Illustrator 24.2.3, SVG Export Plug-In . SVG Version: 6.00 Build 0)  -->
<svg version="1.1" id="solderHand-svg" xmlns="http://www.w3.org/2000/svg" xmlns:xlink="http://www.w3.org/1999/xlink" x="0px"
	 y="0px" viewBox="0 0 1213.6 1003.4" style="enable-background:new 0 0 1213.6 1003.4;" xml:space="preserve">
<style type="text/css">
	.st0{fill:#FEFEFE;}
	.st1{fill:#A5A5A5;}
	.st2{fill:#E0C1A7;}
	.st3{fill:#2C2B2C;}
	.st4{fill:#FF0000;}
	.st5{fill:var(--accent);}
</style>
<path class="st0" d="M413.9,533.6c-0.1,0.7-0.2,1.3-0.2,2l0,0C413.7,534.9,413.8,534.2,413.9,533.6z"/>
<path class="st5" d="M1180.5,563.8v347.9c-2.5,0.2-5-0.5-7-2.1c-6.9-5.7-15.7-6.5-23.8-7.7c-7.7-1.1-15.8,1-23.6,2c-3.7,0.5-7.2,0.8-10.9,0
	c-4.8-1.1-9.1,1.5-13.7,1.9c-14.5,1.4-28.8,0.9-43-2.5c-15.5-3.7-30-9.9-44.5-16.3c-16.3-7.3-33.1-13.8-49.3-21.1
	c-8.5-4-16.7-8.6-24.5-13.9c-7.6-5-16.2-8.2-24.3-12.2c-9.5-4.7-18-11.2-27.2-16.3c-17.6-9.9-33.5-22.7-46.9-37.8
	c-8.2-9.1-18.8-12-28.7-17.1c-3.7-1.9-7.3-3.9-10.9-5.9c-11.8-6.6-22.7-14.3-33.5-22.3c-5.5-4.1-12.7-4.6-18.5-8.3
	c-4.2-2.7-9.1-4.2-12.9-7.4c-7.6-6.2-17-4.1-25.5-5.9c-5-1.1-10.2-1.2-15.2-2.3c-10-2.4-20.3-3-30.4-4.5c-7.2-1.1-14.4-2.1-21.6-3.6
	c-3.1-0.6-5.7-0.4-8.1,1c-8.3,5-17.9,7-26.5,11.3c-4.5,2.2-8.1,4.5-10.9,9.2c-4.8,8-12.4,14.1-21.3,17c-11.1,3.9-22.2,6.2-34,4.1
	c-0.5-0.1-1.3,0.1-1.4-0.1c-3.4-6.4-11-7-15.6-11.7c-3.7-3.8-7.2-7.8-9.6-12.6c-1.3-2.6-2.1-5.3-1.4-8.2c0.8-3,1.8-6,3.1-8.9
	c1.2-2.9,0-6.3,2.3-8.8c-1.5-0.8-2.6-0.9-3.5,0.1c-7.2,7.6-27,4.2-33-5.2c-6.9-10.7-13.2-21.4-11.9-34.8c-2.5-0.5-3.4,2.2-5.5,2.1
	c1.7-3.2,4.6-5.8,7.9-5c5.8,1.5,8.1,0.9,12-3.5c3-3.4,5.6-7.1,9.5-9.8c5.2-3.7,11.5-4.9,17-7.8c4.2-2.2,8-5.9,13.4-4.5
	c3.2,1,6.5,1.8,9.8,2.4c3.3,0.5,4.3,2.4,5,5.3c0.7,3.1,0.2,7.5,5.8,6.4c0.7-0.1,1.1,0.6,1.1,1.4c0,4.4,1.4,9.7-0.5,13.1
	c-4.4,7.8-6.3,17.3-14,23.2c-1.7,1.5-2.8,3.5-3.1,5.7c2.9-0.9,5.8-0.5,7.3-3.4c2.2-4.5,6-7.1,10-10c6.3-4.5,13.4-8.6,17.3-15.5
	c2.7-4.7,7-6.3,11.1-7.3c4.2-0.9,8.3-2.2,12.2-3.8c4.4-1.9,6.9,0.4,9.4,3.3s0.5,5.2-0.8,7.6c-1.2,2.2-2.7,4.4-2.4,6.9
	c0.7,6.1,2.3,12,4.7,17.7c0.2,0.6,0.6,1.1,1.1,1.4c0.6,0.3,1.3,0,1.6-0.6c0,0,0-0.1,0.1-0.1c0.7-1.5-0.2-4.8,2.1-4.3
	c3.1,0.7,0.1,3.5,0.7,5.3c0.1,0.5,0.3,0.9,0.4,1.4c0.2,0.9,0,2.1,1.3,2.4s1.8-0.8,2.1-1.7c1.5-3.9,5.4-6.2,6.5-10.6
	c2.1-8.5,10.6-12.1,15.1-18.9c2.1-3.2,4-2.2,6.3,0.1c1.3,1.3,3.4,4,5.5,0.7c0.6-0.9,0.4-2.5,2.1-2.1c1.9,0.4,2,2,2,3.5
	c0.1,3.7-0.3,7.5,2,10.9c2-1.4,3.2-3.7,3-6.2c0-1.4-0.2-3,1.8-3.6c4.3-1.1,4.4-4.7,3.7-7.9s-0.2-6.5-1.3-9.8
	c-0.8-2.5,1.8-2.8,3.6-3.7c2.1-0.9-2.9-3.5,0.6-4.6c2.5-0.8,4.1-2.9,7-3.3c6.3-0.8,12.6-2.8,18.9-1.3c6.5,1.5,13.5,0.3,19.5,4.4
	c1.8,1.3,1.7,4.6,4.9,4.2c2.3-0.3,3.2,1.2,3.4,3.4c0,1,0,2.2,1.4,2.2s1.4-1.3,1.2-2.3c-1.8-8.3-3.5-16.7-5.7-24.9
	c-1.1-4.2-4-7.8,0.8-11.9c1.5-1.3,3.9-0.5,4.7-2.6c-3.4-1.5-7.3-0.7-10.2-2.2c-9-4.6-18.2-7.5-28.3-6.1c-4.8,0.7-9.6,1-14.4,0.9
	c-6.2-0.1-12.5,1.9-18.7,0.4c-0.3-2.2-2.1-1.6-3.5-1.8c-4.4-0.6-8.8-1.2-13.2-1.8c-13.3-1.5-26.5-4-40-3.3
	c-4.9-0.9-9.5-2.9-14.2-4.2c-13.6-3.6-27.8-3.2-41.5-6.3c-18.5-4.2-36.6-8.6-49.3-24.3c-1.5-1.9-2.6-1.6-4.5-0.3
	c-4.8,3.2-8.4,7.7-12.4,11.7c-1.1,1.1-1.8,1.8-3.2,0.8c-3.2-2.2-6-4.6-7.4-8.5c-0.3-1-0.9-2,0.2-2.7c4.2-2.5,7-6.6,10.6-9.7
	c4.7-4,8-7.9,5.8-15.5c-3.7-12.8-1.4-25.6,4.8-37.5c3.9-7.4,10.8-12.1,16.1-18.1c6.3-7.1,13.8-9.4,22.7-9.1c2,0.1,4.3,0.5,5.9-0.3
	c7.9-3.9,16.7-4.4,24.9-6.9c6.2-1.9,13.1-2,18.8-4.6c8.5-3.9,15.1-11,21.8-17.6c3.2-3.1,5.8-3.7,9.2,0.1c2.7,3-1.2,3.7-2.6,5.2
	c-1,0.9-1.8,1.9-2.5,3.1c-0.7,1.2-3,1.8-2,3.5s2.7,0.6,4.1,0.3c11.2-3,22.7-5,34.3-5.9c9.3-0.7,18.7-2.3,27.8-1.6
	c17.1,1.4,32.5,9.5,48.5,15.1c6.7,2.3,12.8,6,19.6,8c9.8,2.8,20,4.3,29.8,7c8.2,2.2,16.7,2.5,25,4c0.6,0.1,1.3-0.1,1.8-0.5
	c0.4-0.5,0.3-1.2-0.1-1.6c-0.1-0.1-0.1-0.1-0.2-0.1c-5.6-2.5-8.8-8.4-14.1-10.8c-5.7-2.6-9.2-7.1-12.9-11.3c-3.9-4.4-2-8.2,3.9-8.6
	c3-0.2,1.9-1.5,1.1-2.8c-2.4-3.9-4.7-7.7-1-12.1c0.3-0.4,0.5-0.9,0.5-1.4c-1.1-6.5,2.7-11.3,5.9-16.2c2.8-4.3,6.1-8.3,6.6-13.7
	c0.2-2.1,3.7-5,0.9-5.9c-2.5-0.8-3.3,3.4-4,5.8c-2.9,10.4-10.1,17.9-18.8,23c-11.9,6.9-25.6,7.4-39.1,7.5c-1.7,0-3.8,0-4.3-1.7
	s1.2-2.9,2.3-4.1c5-6,12.1-8.7,18.7-12.3c2.7-1.5,6.5-0.7,8.2-2.7c3.4-4,8-6,12.1-8.8c6.8-4.4,12.5-10.3,16.7-17.2
	c2.2-3.7,6.5-5.1,8.7-8.8c8.7-14.9,22-25.9,33.5-38.4c4.2-4.5,9.1-8.5,12.8-13.4c7.9-10.5,17.1-19.8,26.5-28.9
	c3.1,3.2,7.3,1.6,10.9,2c10.2,1.2,20.4,2.3,30.8,1c11.3-1.4,22.6-3.5,34.1-1.5c13.2,2.3,24.9,7.5,33.5,17.6
	c11,12.9,21.2,26.6,31.6,40.1c8.4,10.9,16.8,21.8,25.9,32.1c7.1,8.1,14.6,15.9,21.2,24.4c9.8,12.8,20.6,24.6,30.7,37
	c12.3,15.2,25.3,29.8,37.5,45.1c9.9,12.3,20.8,23.7,31.8,34.9c11.5,11.7,24,22.4,37.5,31.7C1173,558.5,1175.6,562.9,1180.5,563.8z"
	/>
<path class="st5" d="M693.3,291.7c-5.3,5.9-11.5,10.6-17.3,15.9s-11,11-16.6,16.3c-11.3,10.7-22.7,21.3-34.1,32c-13.8,12.9-27.7,25.8-41.6,38.6
	c-7.2,6.7-14.3,13.3-21.5,19.9c-2.7,2.5-4.6,2.6-6.5-1.3c-1-2-1.5-6.2-3.8-5.6c-2.6,0.6,0.3,3.9-0.1,6.1s0,3.9-3.4,2.2
	c-4.9-2.4-5.9,2.6-7,5.4c-2.1,5.3-4.2,10.6-7.6,15.3c-2.4,3.3-6.9,3-9.6,6c-2.1,2.2-4.1,4.5-6,6.9c-2.4,3.3-4.5,7.4-8.5,9.4
	c-3.2,1.6-6,4-8.2,7c-2.2,3-6.3,3.8-8.9,6.8c-4.4,5.1-9.5,9.5-14,14.5s-10,9.3-15,13.9c-4.5,4.1-7.5,9.4-10.7,14.4
	c-2.4,3.6-4.5,7.4-6.5,11.2c-2.4,4.9-7.7,9-13.1,11.7c-1.1,0.5-2.3,0.4-3.4-0.1c-5.1-3.4-10.8-2.6-16.4-2.6l0,0c0-0.7,0.1-1.3,0.2-2
	c0.1-0.4,0.1-0.9,0.2-1.3s0.2-0.8,0.3-1.3c1.5-5.2,4.9-9.5,8.4-13.6c3.4-3.8,4.1-8.7,5.5-13.1c0.9-2.8-2.9-6-3.1-9.6
	c-0.5-9.3,0.1-18.3,6.8-25.6c4.7-5.1,6.2-11.9,10.6-17.2c12-14.6,20.9-31.2,30.5-47.3c9.3-15.6,22.4-27.6,38.2-36.7
	c2.6-1.5,4.8-3.5,7.2-5.2c14.8-10.2,30.3-19.6,46.2-28c9.9-5.2,19.3-11.5,29.3-16.5c8.9-4.5,16.9-10.4,26.1-14.3
	c11.5-4.8,23.6-6.9,35.9-7.9c10.2-0.9,20.3-3,30.4-4.5C688.8,291.1,691,290.5,693.3,291.7z"/>
<path class="st1" d="M87.6,926.4c-3.3,3.6-6.7,7.1-10,10.7C80.9,933.5,84.3,930,87.6,926.4l2.6-2.8L87.6,926.4z M135.5,896.3
	c1.6-1.5,3.3-3,5-4.5C138.8,893.3,137.1,894.8,135.5,896.3L135.5,896.3z M260,766.8l-4,3.8C257.3,769.4,258.7,768.1,260,766.8
	l2.4-2.3C261.6,765.3,260.8,766.1,260,766.8z M258.5,780.6c-0.7,0.6-1.3,1.2-2,1.9L258.5,780.6l7.7-7.3L258.5,780.6z M281.6,758.8
	c2.6-2.4,5.2-4.7,7.9-7.1C286.9,754,284.3,756.4,281.6,758.8L281.6,758.8z M307.8,680.1c0,0,0-0.1,0-0.1c0-0.1,0-0.3,0-0.4
	c-0.1,0.4-0.1,0.8,0,1.2c0-0.1,0-0.2,0-0.3C307.8,680.3,307.8,680.2,307.8,680.1L307.8,680.1z M311.5,705.4
	c-0.7,0.8-0.9,1.9-0.6,2.9l0,0C310.6,707.3,310.8,706.3,311.5,705.4L311.5,705.4z M312.8,667.8c-0.1-0.2-0.1-0.4-0.2-0.7
	s-0.1-0.4-0.2-0.6c-0.1-0.2,0-0.5,0.2-0.7c-0.2,0.2-0.2,0.5-0.2,0.7c0.1,0.4,0.2,0.9,0.4,1.4C312.8,667.9,312.8,667.9,312.8,667.8
	L312.8,667.8z M323.6,721.9L323.6,721.9c-0.1-0.5-0.1-0.9,0-1.4C323.5,721,323.5,721.4,323.6,721.9c0,0.1,0,0.2,0,0.3
	C323.7,722.1,323.7,722,323.6,721.9L323.6,721.9z M333,725.6l-0.3,0.3L333,725.6c1.2-1.1,2.4-2.2,3.5-3.3
	C335.4,723.4,334.2,724.5,333,725.6L333,725.6z M336.1,677.8l-12.5,12L336.1,677.8l0.8-0.7L336.1,677.8z M345.7,710
	c-3,3.1-6,6.2-9,9.3C339.7,716.2,342.7,713.1,345.7,710z M349.8,702.1c-1.1,0.9-2.1,1.9-3.2,2.9C347.6,703.9,348.7,703,349.8,702.1
	l0.7-0.6L349.8,702.1z M354.3,720.3c-0.1,0.3,0,0.6,0.2,0.8C354.3,720.9,354.3,720.6,354.3,720.3L354.3,720.3z M355.2,673.1
	c1-0.3,2-0.4,3-0.3C357.2,672.6,356.2,672.7,355.2,673.1L355.2,673.1z M373.6,699.1c0.5,0.2,1,0.5,1.5,0.2
	C374.6,699.6,374.1,699.4,373.6,699.1L373.6,699.1z"/>
<path class="st1" d="M41.8,977.2L41.8,977.2l0.2-0.1C42,977.2,41.9,977.2,41.8,977.2z"/>
<polygon class="st1" points="42.7,975.7 42.7,975.7 42.7,975.7 "/>
<polygon class="st1" points="42.7,975.7 42.7,975.7 43,975.7 "/>
<path class="st1" d="M117.1,895.1c0.1,0.3,0.3,0.5,0.5,0.8C117.4,895.6,117.2,895.4,117.1,895.1z"/>
<path class="st1" d="M124.8,900.1c0,0.1,0,0.3,0.1,0.4C124.8,900.4,124.8,900.3,124.8,900.1L124.8,900.1z"/>
<path class="st1" d="M125.3,901.2l-0.1-0.2L125.3,901.2c0.1,0.1,0.2,0.2,0.2,0.3C125.4,901.5,125.3,901.4,125.3,901.2L125.3,901.2z"
	/>
<path class="st1" d="M131.3,900.4c0.2-0.1,0.4-0.2,0.6-0.4C131.7,900.2,131.5,900.3,131.3,900.4L131.3,900.4z"/>
<path class="st1" d="M131.8,900c0.1,0,0.1,0,0.2,0l0,0C131.9,900,131.9,900.1,131.8,900L131.8,900z"/>
<path class="st1" d="M126.6,898.2L126.6,898.2c1.8-1.8,3.6-3.7,5.5-5.5L126.6,898.2z"/>
<path class="st1" d="M305.6,689.6L305.6,689.6L305.6,689.6z"/>
<path class="st1" d="M306.7,703.1L306.7,703.1c0.3-0.5,0.7-0.9,1-1.4C307.4,702.2,307,702.7,306.7,703.1L306.7,703.1z"/>
<path class="st1" d="M308,681.4c0-0.1-0.1-0.3-0.1-0.4s0-0.2,0-0.2c0,0.3,0.1,0.7,0.2,1l0,0C308,681.7,308,681.5,308,681.4
	L308,681.4z"/>
<path class="st1" d="M309.1,674.1c0,0.1,0.1,0.2,0.2,0.3C309.2,674.3,309.1,674.2,309.1,674.1L309.1,674.1z"/>
<path class="st1" d="M311.7,671.8L311.7,671.8c0.1-0.2,0.3-0.4,0.5-0.5L311.7,671.8z"/>
<rect x="312.1" y="676.2" class="st1" width="0" height="0.3"/>
<path class="st1" d="M312.9,668.3c0.1,0.3,0.2,0.6,0.4,0.9C313.1,668.9,313,668.6,312.9,668.3L312.9,668.3z"/>
<polygon class="st1" points="315.6,670.8 315.6,670.8 315.6,670.8 "/>
<path class="st1" d="M316.3,673.2c-0.1,0-0.1,0-0.2,0C316.2,673.2,316.2,673.2,316.3,673.2l0.3,0L316.3,673.2z"/>
<path class="st1" d="M318,726.1l-1.7,1.5L318,726.1c0.1-0.1,0.2-0.2,0.4-0.3L318,726.1z"/>
<path class="st1" d="M319.6,716.9c0,0.1,0,0.1,0,0.2l0,0C319.6,717.1,319.6,717,319.6,716.9L319.6,716.9z"/>
<path class="st1" d="M319.6,659.8c-0.2,0.2-0.3,0.5-0.5,0.7C319.2,660.3,319.4,660,319.6,659.8c0.1-0.2,0.2-0.3,0.4-0.5
	C319.8,659.5,319.7,659.7,319.6,659.8L319.6,659.8z"/>
<path class="st1" d="M328.6,728.6c0.4,0,0.7-0.1,1.1-0.3C329.3,728.4,329,728.6,328.6,728.6L328.6,728.6z"/>
<polygon class="st1" points="327.8,728.6 327.8,728.6 332.2,724 "/>
<path class="st1" d="M341.2,669.3c0.2,0.4,0.4,0.9,0.6,1.3l0,0C341.6,670.2,341.4,669.7,341.2,669.3L341.2,669.3z"/>
<path class="st1" d="M348.5,673.2L348.5,673.2c0.3,0,0.6-0.1,0.8-0.1C349.1,673.2,348.8,673.2,348.5,673.2z"/>
<path class="st1" d="M348.9,670.4c0-0.4,0-0.8,0-1.1c0-0.2,0-0.4,0-0.6C348.9,669.3,348.9,669.9,348.9,670.4z"/>
<path class="st1" d="M349.1,677.7L349.1,677.7l1.1,1.3C349.9,678.7,349.5,678.2,349.1,677.7z"/>
<path class="st1" d="M350.5,679.5c0.4,0.5,0.8,1,1,1.4C351.2,680.4,350.8,679.9,350.5,679.5z"/>
<path class="st1" d="M359.6,672.8c-0.1,0.4-0.2,0.7-0.3,1.1C359.5,673.6,359.6,673.2,359.6,672.8L359.6,672.8z"/>
<path class="st1" d="M361.4,691.7c0.1,0.5,0.2,1.1,0.3,1.6l0,0L361.4,691.7z"/>
<path class="st1" d="M364.8,696.7c-0.3,0.2-0.7,0.3-1,0.5L364.8,696.7l0.4-0.1C365.1,696.6,365,696.7,364.8,696.7L364.8,696.7z"/>
<path class="st1" d="M394.2,682.7c-4.3-3-8.6-6-12.1-10.1c-1.3-1.6-3.3-4.1-4.8,0.7c-0.7,2.3-3.5,5.2-7.1,3.6
	c-6-2.7-6.7-6.3-2.1-10.9c3.2-3.1,2.8-5.7-0.1-8.6c0,0.2,0.1,0.4,0.1,0.5c0.2,1,0.2,2.1-0.1,3.2l-0.1,0.5c-0.1,0.3-0.2,0.7-0.4,1
	c-0.2,0.3-0.3,0.6-0.5,0.9c-0.5,0.7-1,1.4-1.6,2l-0.6,0.6c-0.5,0.5-1,0.9-1.4,1.4c-0.2,0.1-0.3,0.3-0.5,0.5l-0.6,0.6L362,669
	c-0.5,0.5-1,1.1-1.4,1.7c-0.5,0.7-1.1,1.1-0.9,2c0.7,0.2,1.5,0.4,2.2,0.6c0.7,0.2,1.4,0.4,2.1,0.8c0.4,0.2,0.8,0.4,1.1,0.7l0.5,0.4
	c0.2,0.1,0.3,0.3,0.5,0.5c0.2,0.1,0.3,0.3,0.4,0.5c0.1,0.2,0.2,0.4,0.3,0.6l0.1,0.3c0,0.1,0.1,0.2,0.1,0.3c0,0.1,0,0.1,0,0.2
	c0,0.2,0,0.5,0,0.7c-0.1,0.3-0.2,0.6-0.4,0.8l-0.1,0.1c-0.3,0.3-0.6,0.4-1,0.5c-0.3,0-0.6,0-0.9,0h-0.3l-1-0.2l-0.6-0.1
	c-0.6-0.1-1.6-0.2-1.8,0.1c-0.3,0.5-0.7,1-1.1,1.4c-0.2,0.2-0.4,0.4-0.6,0.7c-0.2,0.2-0.4,0.4-0.6,0.7c-0.2,0.2-0.5,0.6-0.8,0.9
	c-0.3,0.3-0.5,0.5-0.8,0.8l-0.8,0.8c-0.5,0.4-1,0.9-1.5,1.3l-1.5,1.2l-0.9,0.7l-0.9,0.7l-1.9,1.4c-0.8,0.6-1.6,1.3-2.5,1.9
	c-0.8,0.7-1.6,1.3-2.4,2c-0.8,0.7-1.5,1.4-2.2,2.2c-0.7,0.8-1.5,1.6-2.2,2.4c-1.5,1.6-3.1,3.1-4.6,4.7c-4,3.8-8.1,7.5-12,11.4
	c-0.5,0.5-0.9,1-1.4,1.6c-0.1,0.1-0.3,0.3-0.4,0.4l-0.2,0.2c-0.2,0.1-0.3,0.2-0.5,0.3l-0.3,0.1l-0.2,0.1h-0.1
	c-0.2,0-0.4,0.1-0.6,0.1h-0.1c0-0.1,0-0.1,0-0.2c0-0.3,0-0.6,0.1-0.8c0-0.1,0.1-0.2,0.1-0.3c0-0.1,0.1-0.2,0.1-0.2v-0.1
	c0-0.1,0.1-0.2,0.2-0.2c0-0.1,0.1-0.1,0.1-0.2c0-0.1,0.1-0.1,0.2-0.2c0-0.1,0.1-0.1,0.2-0.2c0.1-0.1,0.2-0.2,0.4-0.3
	c0.4-0.4,0.9-0.7,1.3-1.1c8.7-8.4,17.5-16.8,26.2-25.2c1-1,1.8-1.7,2.4-2.4c0.2-0.2,0.4-0.4,0.5-0.6c0.6-0.6,0.9-1.3,1-2.1v-0.3
	c0-0.1,0-0.2,0-0.2c0-0.1,0-0.2-0.1-0.3c0-0.1,0-0.2-0.1-0.2c-0.1-0.2-0.2-0.3-0.2-0.5c-0.1-0.2-0.2-0.4-0.3-0.6
	c-0.3-0.4-0.6-0.9-1-1.4l-0.3-0.4l-1.1-1.3l0.2-0.1l0.2-0.1c0.1-0.1,0.3-0.1,0.4-0.2l0.2-0.1c0.6-0.2,1.2-0.2,1.8-0.2h2.8
	c0.3,0,0.6,0,0.9-0.1c0.1,0,0.2,0,0.3,0c0.2,0,0.4-0.1,0.7-0.1c0.1,0,0.3-0.1,0.4-0.2c0.4-0.2,0.8-0.4,1.1-0.7
	c0.1-0.1,0.2-0.2,0.3-0.3c0.2-0.2,0.3-0.3,0.4-0.5c0-0.1,0.1-0.1,0.1-0.2l0.1-0.2c0-0.1,0.1-0.1,0.1-0.2c0-0.1,0.1-0.2,0.1-0.3
	c0.1-0.3,0.2-0.7,0.3-1.1c-0.5,0-0.9,0-1.4,0c-1-0.1-2,0-3,0.3c-2,1-4,0.1-5.9,0.1c-0.3,0-0.6,0-0.8,0.1c0.3-0.9,0.5-1.9,0.4-2.8
	v-2.3c0-0.2,0-0.3,0.1-0.5c0.1-0.5,0.2-0.9,0.4-1.3c0.1-0.2,0.2-0.3,0.2-0.4c2-3.2,3.2-7.1,5.5-10.1c0.2-0.3,0.5-0.6,0.8-0.9
	l0.4-0.4c0.6-0.6,1.3-1.2,2.1-1.6c0.3-0.2,0.6-0.4,0.9-0.5c0.4-0.2,0.8-0.4,1.2-0.5c0.2-0.1,0.4-0.2,0.7-0.2l0.7-0.2
	c-4.6-7.2-9.7-14.1-15.1-20.7c3.5,4.9,1.6,8.5-2.9,11.4c-1.2,0.9-2,2.2-2.3,3.7c-1.4,4.9-6.1,6.9-10.8,4.9c-3.4-1.5-6.4-2.5-9.5,1.3
	c-6.6,8.3-14.8,15-22.8,21.8c-2.5,2.2-4.8,4.5-7,7c-1.2,1.4-2.2,3-1.1,5c1.2,2.3,1.9,5.3,3.8,6.9c4.2,3.8,2.4,7.3-0.4,10
	c-6.6,6.6-13.4,13.2-20.3,19.6l-0.1,0.1l-0.6,0.5l0,0c-3.3,3.1-6.5,6.2-9.8,9.3c-11.7,11-23.6,21.9-35.3,33
	c-12.6,12-25,24.2-37.7,36.2c-15,14.2-30,28.2-45,42.4c-12.5,11.8-24.9,23.8-37.4,35.6c-1.4,1.3-1.4,2.9-1.9,4.4
	c-1.8,5.2,0.6,11.1-3.8,16.1c-11.5,12.9-22.5,26.2-33.6,39.4C58.9,950.8,49.5,962,40,973c-1.7,2-2.9,3.8-1.2,6.2s4.3,1.7,6.3,1
	c1.8-0.7,3.3-2.2,4.9-3.4c10.1-8,20.1-16,30.2-23.9c5.3-4.1,11.4-7.5,16.4-12c8.8-7.8,19.4-13.5,27.2-22.4c1.2-1.3,2.4-0.4,3.7-0.3
	c5.8,0.6,11.5,1.1,16.5-3.4c4.2-3.8,8.1-7.7,12.4-11.4c11.5-10,22.2-20.9,33.3-31.4c13.4-12.8,26.7-25.7,40.2-38.5
	c18-17.1,36.3-34,54.3-51.1c10.5-10,20.7-20.3,31.3-30c4.8-4.4,9.4-9,14.2-13.3c2.1-1.9,3.7-4,7.6-1c7.3,5.6,10.2,5,15.3,0.2
	c9.9-9.3,19.7-18.7,29.6-27.9c1.8-1.6,2-2.5,0.7-4.8c-3.6-6-1.2-10.2,5.8-11.1c1.1-0.1,2.3,0,2.9-1.4c2-4.8,5.5-6.2,10.3-4.6
	C400.1,685.6,396.9,684.5,394.2,682.7z M345.3,676.5c-0.1,0.1-0.2,0.3-0.3,0.4c-0.1,0.1-0.2,0.2-0.2,0.3l-0.3,0.3
	c-10.4,10-20.8,20-31.2,29.9c-0.8,0.5-1.6,0.8-2.4,1.1c-0.3-1-0.1-2.1,0.6-2.9l0.2-0.2l0.2-0.2c0-0.1,0.1-0.1,0.2-0.2
	c0.1-0.1,0.1-0.1,0.2-0.2l0.2-0.2l0.3-0.3l0.2-0.2c1.8-1.8,3.6-3.5,5.5-5.3c0.6-0.6,1.2-1.1,1.7-1.7c3.4-3.3,6.8-6.6,10.2-9.9
	l0.8-0.8c2.4-2.4,4.9-4.7,7.3-7l3.8-3.6l0.1-0.1c0.2-0.2,0.4-0.6,0.7-0.8l0.1-0.1c0,0,0.1-0.1,0.1-0.1l0.1-0.1
	c0.1-0.1,0.2-0.1,0.2-0.2l0.2-0.1c0.1,0,0.1,0,0.2,0c0.4,0,0.7,0.2,1,0.5c0.3,0.3,0.5,0.7,0.5,1.1
	C345.5,676.2,345.4,676.3,345.3,676.5z M319.1,722.7h-8.5c0.1-0.1,0.2-0.2,0.2-0.2c0.5-0.4,1-0.9,1.4-1.4c0.5-0.5,0.7-0.8,1.1-1.2
	c0.3-0.3,0.6-0.6,1-0.9l0.2-0.1c0.1,0,0.2-0.1,0.3-0.1h0.2c0.1,0,0.3,0,0.4,0.1l0.3,0.1l0.1,0.1c0.2,0.1,0.4,0.3,0.6,0.5l0.2,0.2
	c0.3,0.4,0.7,0.8,1.1,1.1l0.4,0.3l0.2,0.2l0.2,0.2c0.1,0.1,0.1,0.1,0.2,0.2s0.1,0.1,0.2,0.2c0.1,0.1,0.1,0.1,0.2,0.2
	C318.9,722.4,319,722.5,319.1,722.7C319,722.6,319,722.7,319.1,722.7z M332.8,656.1L332.8,656.1c0-0.1,0-0.1,0-0.2l0.1-0.2
	c0-0.1,0.1-0.2,0.1-0.2c0-0.1,0.1-0.1,0.2-0.2s0.1-0.1,0.2-0.1c0.1-0.1,0.3-0.1,0.4-0.1h0.4c0.2,0,0.4,0,0.6,0.1l0.3,0.1l0.2,0.1
	l0.2,0.1c0.1,0.1,0.2,0.2,0.3,0.3l0.1,0.2c0.2,0.2,0.3,0.5,0.5,0.8c0.1,0.3,0.2,0.6,0.3,1c0,0.1,0.1,0.3,0.2,0.4
	c0.1,0.3,0.2,0.5,0.4,0.8l0.2,0.4c0.2,0.2,0.3,0.5,0.5,0.7c0.2,0.2,0.4,0.4,0.6,0.6c0.4,0.4,0.7,0.7,1.1,1c0.2,0.2,0.5,0.4,0.8,0.6
	l0.8,0.5l1.2,0.7c0.5,0.3,1,0.6,1.4,0.9c0.4,0.3,0.5,0.4,0.8,0.5c0.2,0.2,0.3,0.3,0.5,0.4l0.2,0.2l0.2,0.2c0.2,0.2,0.3,0.4,0.5,0.6
	c0,0.1,0.1,0.1,0.1,0.2c0,0,0,0.1,0,0.1v0.1c0,0.1,0,0.1,0,0.2c0,0.1,0,0.2,0,0.3c0,0.1,0,0.2,0,0.4c0,0.1,0,0.3-0.1,0.4
	c0,0.1-0.1,0.2-0.1,0.3c0,0.1-0.1,0.2-0.1,0.3c0,0.1-0.1,0.2-0.1,0.3c0,0.1-0.2,0.3-0.3,0.5c-0.1,0.2-0.2,0.3-0.3,0.5
	c-0.1,0.1-0.2,0.2-0.2,0.4c-0.2,0.3-0.4,0.6-0.7,0.9l-0.4,0.6l-1,1.3l-0.5,0.2l-0.4,0.2c-0.6,0.3-1.1,0.6-1.6,0.9
	c-0.2,0.2-0.4,0.3-0.7,0.5l-0.6,0.5c-0.3,0.2-0.5,0.5-0.8,0.7c-0.5,0.4-0.9,0.8-1.3,1.3l-0.8,0.7l-12.5,12c-4.2,4-8.4,8-12.5,12
	c-1,1-2,2.4-4.3,1.3c0.3-0.5,0.7-0.9,1-1.4l0.5-0.7c0.2-0.2,0.4-0.5,0.5-0.7c0.4-0.4,0.8-0.9,1.1-1.3c0.4-0.4,0.8-0.8,1.2-1.2
	l0.8-0.8c0.6-0.6,1.2-1.2,1.8-1.7c1.2-1.2,2.5-2.3,3.7-3.5c0.6-0.6,1.2-1.1,1.8-1.7l1.4-1.4l1.4-1.4c1-0.9,1.9-1.8,2.9-2.8l1.9-1.8
	c3.3-3.2,6.7-6.3,9.9-9.5c0.3-0.3,0.7-0.6,1-0.9c0.1-0.1,0.2-0.2,0.3-0.3c0.1-0.1,0.3-0.2,0.4-0.3c0.1-0.1,0.3-0.2,0.4-0.3l0.2-0.2
	l0.4-0.2c0.1-0.1,0.3-0.1,0.4-0.2c0.2-0.1,0.5-0.2,0.7-0.2c0.1,0,0.2-0.1,0.4-0.1c0.2-0.1,0.5-0.1,0.8-0.1c-0.2-0.4-0.4-0.9-0.6-1.3
	c-0.6-1.3-1.2-2.6-1.9-3.9c-0.1-0.3-0.3-0.5-0.5-0.8c-0.3-0.6-0.7-1.1-1.1-1.6c-0.1-0.2-0.3-0.3-0.4-0.5v-0.1
	c-0.1-0.2-0.3-0.3-0.5-0.5c-0.3-0.3-0.6-0.6-0.9-0.8c-0.1-0.1-0.2-0.1-0.3-0.2c-0.2-0.2-0.4-0.3-0.6-0.5c-0.2-0.1-0.5-0.3-0.8-0.5
	C332.9,659.2,332.6,657.6,332.8,656.1z M312.6,665.9L312.6,665.9c0,0,0.1-0.1,0.1-0.1c0.1-0.1,0.2-0.1,0.2-0.2
	c0.1-0.1,0.2-0.1,0.3-0.2l0.2-0.1h0.2l0.2,0c0.1,0,0.3-0.1,0.4-0.1h0.4c0.2,0,0.3,0,0.4,0c0.2,0,0.4,0,0.6,0.1l0.3,0.1
	c0-0.2,0.1-0.3,0.1-0.5c0-0.1,0.1-0.2,0.1-0.3c0-0.1,0.1-0.2,0.1-0.3c0.1-0.3,0.2-0.5,0.4-0.8c0.2-0.2,0.3-0.5,0.5-0.7
	c0.2-0.2,0.3-0.4,0.5-0.6c0.5-0.6,1-1.1,1.4-1.7c0.2-0.2,0.3-0.4,0.5-0.7c0.1-0.2,0.2-0.3,0.3-0.4c0.1-0.1,0.2-0.3,0.4-0.4
	c0.1-0.1,0.3-0.2,0.4-0.3c0.1-0.1,0.3-0.2,0.4-0.3c0.1-0.1,0.3-0.2,0.4-0.3c0.2-0.1,0.4-0.2,0.6-0.3c0.2-0.1,0.4-0.2,0.6-0.3
	c0.9-0.4,1.8-0.6,2.7-1c0.2-0.1,0.4-0.2,0.6-0.3s0.3-0.2,0.5-0.3c0.7-0.5,1.5-0.4,2.1,0.2c0.2,0.2,0.3,0.4,0.5,0.6
	c0.1,0.3,0.3,0.5,0.4,0.8c0.1,0.2,0.2,0.5,0.3,0.7c0.1,0.2,0.2,0.3,0.3,0.5c0,0.1,0.1,0.2,0.1,0.3c0,0.1,0.1,0.1,0.1,0.2
	c0,0.1,0,0.1,0.1,0.2c0.1,0.2,0.1,0.4,0.1,0.6c0,0.1,0,0.2-0.1,0.2c0,0.1,0,0.1,0,0.1c0,0.1-0.1,0.2-0.2,0.3c0,0-0.1,0.1-0.1,0.1
	c0,0.1-0.1,0.1-0.1,0.2c-0.1,0.1-0.2,0.2-0.3,0.3c-3.3,2.9-6,6.6-10.1,8.5c0,0.1,0,0.2-0.1,0.4c0,0.1-0.1,0.2-0.1,0.3
	c0,0.1-0.1,0.3-0.2,0.4l-0.1,0.2c-0.1,0.1-0.1,0.3-0.2,0.4c-0.1,0.1-0.2,0.2-0.3,0.4c-0.1,0.1-0.2,0.2-0.2,0.3
	c-0.1,0.1-0.3,0.3-0.4,0.4c-0.1,0.1-0.2,0.1-0.3,0.2c-0.2,0.1-0.4,0.2-0.5,0.3s-0.4,0.1-0.6,0.2l-0.3,0c-0.1,0-0.1,0-0.2,0H316
	c0,0-0.1,0-0.1-0.1c0,0-0.1-0.1-0.1-0.1c0,0,0-0.1,0-0.1v-0.1c0-0.1,0-0.2,0-0.2c-0.1-0.5,0-1.2,0-1.7h-0.4c-0.1,0-0.2,0-0.3-0.1
	c-0.3-0.1-0.5-0.2-0.8-0.4c-0.1-0.1-0.2-0.2-0.3-0.2c-0.1-0.1-0.2-0.2-0.2-0.2c-0.1-0.1-0.1-0.2-0.2-0.3c0-0.1-0.1-0.1-0.1-0.2
	c0,0,0,0,0-0.1c-0.2-0.3-0.3-0.6-0.4-0.9c0-0.1-0.1-0.2-0.1-0.3c-0.1-0.5-0.2-1-0.4-1.4C312.4,666.5,312.4,666.1,312.6,665.9z
	 M309.1,673.6L309.1,673.6c0-0.2,0.1-0.3,0.1-0.5c0-0.1,0.1-0.3,0.2-0.4c0.1-0.1,0.1-0.2,0.2-0.2l0.1-0.1c0.1-0.1,0.1-0.1,0.2-0.2
	c0-0.1,0.1-0.1,0.2-0.1c0.1-0.1,0.1-0.1,0.2-0.1c0.1-0.1,0.3-0.1,0.4-0.1c0.1,0,0.3-0.1,0.5-0.1c0.2,0,0.3-0.1,0.5-0.1l0.6-0.4
	c-0.2,0.2-0.3,0.4-0.5,0.5c-0.1,0.2,0,0.3,0,0.5c0,0.1,0,0.3-0.1,0.4c0,0.1,0,0.2-0.1,0.2l-0.1,0.2c0,0.1-0.1,0.2-0.1,0.3
	c-0.1,0.1-0.1,0.2-0.2,0.3c-0.1,0.1-0.2,0.2-0.3,0.2c-0.2,0.1-0.4,0.2-0.6,0.3c-0.1,0-0.2,0.1-0.4,0.1h-0.2c-0.1,0-0.1,0-0.2,0
	c-0.1,0-0.1,0-0.2-0.1c-0.1-0.1-0.2-0.2-0.2-0.3C309.1,673.9,309.1,673.8,309.1,673.6z M307.9,679.6L307.9,679.6
	c0-0.1,0.1-0.2,0.1-0.3c0-0.1,0.1-0.2,0.1-0.2c0-0.1,0.1-0.2,0.2-0.2c0.1-0.1,0.2-0.2,0.3-0.2c0.2-0.1,0.4-0.2,0.6-0.3l0.1-0.1
	l0.3-0.1c0.1,0,0.2,0,0.3,0h0.2c0.2,0.1,0.3,0.2,0.3,0.3c0,0.2,0,0.4,0,0.6c0,0,0,0.1,0,0.1c-0.1,0.6-0.5,1.1-1,1.5l-0.3,0.2
	l-0.3,0.2l-0.2,0.2c-0.2,0.2-0.4,0.3-0.5,0.5c-0.1-0.3-0.2-0.7-0.2-1C307.8,680.3,307.8,679.9,307.9,679.6z M318.8,675.6l13.3-14
	l1.5,1.4c-3.4,3.5-6.7,6.9-10.1,10.3c-0.7,0.7-1.4,1.4-2.1,2.1l-2.2,2.1l-2.2,2.1c-1.1,1-2.2,2.1-3.3,3.1l-1.7,1.5
	c-0.6,0.5-1.1,1-1.7,1.5c-0.8,0.7-1.5,1.3-2.3,2c-0.8,0.6-1.5,1.3-2.3,1.9l-0.1,0L318.8,675.6z M113.7,906.5c0,0.1,0,0.2,0,0.3
	c0,0.6-0.3,1.1-0.7,1.5c-1.5,1.9-3.2,3.8-5,5.5l-7.4,6.9l-7.4,6.9l-7.4,6.9c-2.5,2.3-4.9,4.6-7.4,6.9c-2,1.8-3.9,3.7-5.9,5.6
	c-1.4,1.3-2.8,2.7-4.2,4c-0.8,0.7-1.5,1.5-2.3,2.2c-1.7,1.7-3.5,3.3-5.2,5c-0.4,0.4-0.8,0.8-1.2,1.1l-1.2,1.1l-2.6,2.4
	c-0.9,0.8-1.8,1.6-2.6,2.4c-0.3,0.2-0.5,0.5-0.8,0.8c-0.3,0.3-0.8,0.8-1.2,1.2s-0.5,0.5-0.8,0.8c-0.4,0.4-0.8,0.9-1.2,1.3
	c-0.3,0.3-0.5,0.6-0.8,0.9s-0.4,0.5-0.6,0.8c-0.2,0.3-0.3,0.4-0.4,0.6c-0.5,0.6-1,1.3-1.4,1.9c-0.2,0.3-0.4,0.6-0.7,0.8
	c-0.1,0.1-0.2,0.2-0.3,0.3c-0.1,0.1-0.2,0.2-0.4,0.3c-0.1,0.1-0.3,0.2-0.4,0.2c-0.1,0.1-0.3,0.1-0.4,0.2c-0.1,0-0.3,0.1-0.4,0.1
	c-0.1,0-0.2,0-0.3,0h-0.3v0.2c0,0.3-0.1,0.6-0.2,0.8c0,0.1,0,0.1-0.1,0.1c0,0,0,0-0.1,0.1c0,0,0,0-0.1,0c0,0-0.1,0-0.1,0.1
	c0,0,0,0-0.1,0l-0.2,0.1c0,0,0,0,0,0c-0.1,0-0.1-0.1-0.2-0.1l-0.1-0.1c-0.1-0.1-0.2-0.2-0.2-0.3c0-0.1,0-0.2,0.1-0.3
	c0-0.1,0.1-0.2,0.1-0.2c0.1-0.2,0.3-0.3,0.6-0.3c0.2,0,0.3-0.1,0.5-0.1h0.2c0-0.2,0.1-0.4,0.2-0.6c0-0.1,0.1-0.3,0.1-0.4
	c0-0.1,0-0.1,0.1-0.2c0.1-0.2,0.1-0.4,0.2-0.5c0.1-0.2,0.2-0.4,0.3-0.5c0.1-0.2,0.1-0.3,0.2-0.4c0.1-0.1,0.2-0.3,0.3-0.4
	c0.1-0.1,0.3-0.5,0.5-0.7c0.4-0.6,0.9-1.1,1.3-1.6c0.5-0.5,1-1,1.4-1.5c3.3-3.5,6.7-7.1,10.1-10.6c6.7-7,13.5-14.1,20.2-21.2
	c3.3-3.5,6.7-7.1,10-10.7l2.6-2.8c1.8-1.9,3.5-3.8,5.3-5.6c1.6-1.6,3.1-3.2,4.7-4.8c2.9-3,5.9-6,8.8-8.9c0.6-0.6,1-0.9,1.5-0.9h0.2
	c0.1,0,0.1,0,0.2,0.1c0.2,0.1,0.3,0.1,0.4,0.2c0.1,0,0.1,0.1,0.2,0.1c0.1,0.1,0.2,0.2,0.4,0.4l0.2,0.2c0.1,0,0.1,0.1,0.2,0.2
	c0.1,0.1,0.2,0.2,0.3,0.4l0.3,0.3l0.1,0.2l0.2,0.3c0.1,0.1,0.2,0.2,0.2,0.4c0,0.1,0.1,0.2,0.1,0.3
	C113.7,906.2,113.7,906.3,113.7,906.5C113.7,906.4,113.7,906.4,113.7,906.5z M123.2,896.8c-0.2,0.1-0.4,0.3-0.5,0.4l-0.4,0.3
	l-0.2,0.1c-0.1,0.1-0.3,0.1-0.5,0.2h-0.8c-0.1,0-0.2,0-0.3,0c-0.1,0-0.3,0-0.4-0.1l-0.3-0.1c-0.3-0.2-0.7-0.4-0.9-0.6l-0.2-0.1
	l-0.3-0.2c-0.2-0.2-0.5-0.5-0.7-0.8c-0.2-0.2-0.3-0.5-0.5-0.8c-0.2-0.3-0.3-0.7-0.3-1v-0.3c0-0.2,0-0.4,0-0.6c0-0.3,0.1-0.5,0.2-0.8
	c0-0.1,0.1-0.3,0.2-0.4c0-0.1,0.1-0.2,0.1-0.3c0-0.1,0.1-0.2,0.1-0.2c0.1-0.2,0.3-0.5,0.5-0.7c0.1-0.1,0.1-0.1,0.2-0.2
	c0.3-0.3,0.6-0.7,0.9-1l0.6-0.5c21.3-20.2,42.4-40.6,63.9-60.7c16.8-15.8,33.4-31.9,50-47.9l6.1-5.9c4.1-3.9,8.2-7.8,12.3-11.6
	l7.7-7.2c3-2.8,6.1-5.7,9.1-8.5c1.7-1.5,3.3-3.1,5-4.7c1.1-1,2.2-2,3.2-3.1c1.9-1.8,3.8-3.6,5.7-5.5c3.7-3.6,7.4-7.1,11.1-10.7
	l0.1-0.1l0.6-0.5l0,0c3.8-3.6,7.5-7.2,11.3-10.7c0.6-0.6,1.2-1.1,1.9-1.6c0.1,0,0.2-0.1,0.3-0.1c0.1-0.1,0.2-0.1,0.4-0.1h0.2
	c0.3,0,0.5,0.1,0.8,0.2c0.2,0.1,0.4,0.2,0.5,0.4c0.1,0.1,0.2,0.2,0.3,0.3c0.2,0.2,0.5,0.5,0.6,0.8c0.7,0.8,1.3,1.8,1.7,2.8
	c0.1,0.3,0,0.7-0.1,1c0,0.1-0.1,0.2-0.1,0.3c0,0.1-0.1,0.2-0.2,0.3c-0.1,0.1-0.1,0.2-0.2,0.3l-0.2,0.2c-0.2,0.2-0.3,0.4-0.5,0.6
	l-0.4,0.4l-4.9,4.7c-0.1,0.1-0.2,0.2-0.3,0.3H305v0.5c-0.4,0.4-0.8,0.8-1.2,1.2c-3,2.9-6,5.7-8.9,8.6c-2.6,2.5-5.2,5.1-7.9,7.7
	l-8,7.7c-2,2-4,4-6.1,6c-3.5,3.4-7,6.8-10.5,10.1l-2.4,2.3c-1.3,1.3-2.7,2.6-4,3.8c-1.2,1.1-2.4,2.2-3.6,3.3l-3.6,3.3
	c-3.6,3.3-7.2,6.6-10.8,9.9c-1.5,1.3-2.9,2.7-4.4,4c-0.8,0.7-1.6,1.4-2.4,2.2c-1.4,1.3-2.7,2.5-4.1,3.8l-0.9,0.8
	c-0.1,0.1-0.2,0.2-0.3,0.3l-0.4,0.4l-0.2,0.2c-0.2,0.2-0.3,0.4-0.5,0.6l-4.1,3.8l-3.4,3.3l-10.1,9.6l-1.1,1.1l-3.1,2.9l-0.8,0.8
	l-2.9,2.8l-0.2,0.2l-17.8,16.9L166,855.4l-2.6,2.5l-3.7,3.5h0l-0.9,0.9c-0.3,0.3-0.6,0.7-0.8,0.9c-5.4,5.2-10.9,10.4-16.2,15.7
	c-5.4,5.2-10.8,10.5-16.3,15.8l-0.3,0.3C124.4,895.7,123.8,896.3,123.2,896.8z M319.3,724.5v0.1c-0.3,0.6-0.7,1.1-1.2,1.5l-1.7,1.5
	l-2.3,2c-0.8,0.7-1.5,1.3-2.3,2c-0.5,0.4-1,0.9-1.5,1.3c-0.7,0.6-1.4,1.2-2.2,1.8l-1.2,1l-1.3,1c-0.5,0.4-1.1,0.8-1.6,1.2
	c-5.4,4-9.3,9.3-14.3,13.7c-2.7,2.3-5.3,4.7-7.9,7.1c-2.6,2.4-5.2,4.8-7.8,7.2c-2.6,2.4-5.1,4.8-7.7,7.3l-7.7,7.3l-2,1.9
	c-2,1.9-4,3.8-5.9,5.7l-7.8,7.6c-2.6,2.5-5.2,5-7.9,7.6c-2.6,2.5-5.3,5-8,7.5c-16.4,15-31.8,31.1-48.4,45.9c-3,2.7-6,5.3-9,8
	c-1,0.9-2,1.7-2.9,2.6l-2.5,2.3l-3,2.8c-1,0.9-2,1.8-3,2.8s-1.8,1.7-2.7,2.6l-0.1,0.1c-0.2,0.2-0.4,0.4-0.6,0.6
	c-0.2,0.2-0.3,0.3-0.4,0.4l-0.8,0.8l-0.9,0.9c-0.1,0.1-0.2,0.2-0.3,0.3l-0.8,0.8l-1.2,1.2c-1.2,1.2-2.4,2.3-3.7,3.5
	c-0.8,0.8-1.7,1.5-2.5,2.2l-3.8,3.3c-1.7,1.5-3.4,3-5,4.5c-0.7,0.6-1.3,1.3-2,2c-0.3,0.3-0.7,0.7-1,1l-0.6,0.6c0,0-0.1,0.1-0.1,0.1
	c-0.2,0.2-0.3,0.3-0.6,0.4c-0.1,0.1-0.3,0.2-0.5,0.3c-0.2,0.1-0.5,0.2-0.7,0.4l-0.1,0.1c-0.2,0.1-0.4,0.3-0.5,0.4l-0.2,0.2
	c-0.3,0.3-0.6,0.5-1,0.6c-0.1,0.1-0.3,0.1-0.5,0.1c-0.3,0-0.6,0-0.9-0.1l-0.2-0.1c0,0,0,0-0.1,0c-0.1,0-0.2-0.1-0.3-0.2h-0.1l-0.1,0
	c-0.1-0.1-0.2-0.2-0.4-0.3c-0.1-0.1-0.2-0.2-0.3-0.3c-0.1-0.1-0.2-0.2-0.3-0.3l-0.1-0.1c-0.1-0.1-0.1-0.2-0.2-0.2c0,0,0,0,0-0.1
	c0-0.1-0.1-0.1-0.1-0.2c-0.1-0.1-0.1-0.3-0.1-0.4c0-0.1,0-0.3,0.1-0.4l0.1-0.2l0.2-0.2l0.1-0.1c0.1-0.1,0.2-0.2,0.3-0.3l0.5-0.4
	c0.1,0,0.1-0.1,0.2-0.1c0.1-0.1,0.2-0.2,0.2-0.2l5.5-5.5l10.9-11c5.5-5.5,11-11,16.4-16.4c0-0.1,0.1-0.1,0.2-0.2l0.1,0.1l67.4-64
	c0.2-0.1,0.4-0.2,0.6-0.3s0.5-0.3,0.7-0.4l0.7-0.4c0.2-0.2,0.5-0.4,0.7-0.5c0.2-0.2,0.4-0.3,0.5-0.4c0,0,0,0,0.1-0.1l0.7-0.5
	c0.2-0.2,0.4-0.3,0.6-0.5c0.4-0.3,0.8-0.7,1.1-1c0.4-0.3,0.7-0.7,1-1c1-1,2-2.1,3-3.2l1.2-1.2c0.3-0.3,0.5-0.5,0.8-0.8
	c4.8-4.6,9.5-9.2,14.3-13.8c2.4-2.3,4.8-4.6,7.2-6.8c2.4-2.3,4.9-4.5,7.4-6.7c0.7-0.6,1.3-1.2,2-1.8c1.2-1.1,2.4-2.2,3.5-3.3
	c0.6-0.6,1.2-1.2,1.8-1.8c1-1,2-2,3-3l2-2l1.6-1.6c0.8-0.8,1.6-1.6,2.5-2.4l0.7-0.6l0.7-0.6c0.5-0.4,0.9-0.8,1.4-1.2l0.6-0.5
	c0.4-0.3,0.8-0.6,1.2-0.9c0.2-0.1,0.3-0.2,0.5-0.4c0,0,0.1,0,0.1-0.1c0.2-0.1,0.4-0.2,0.6-0.4h0.1l0.4-0.2c0.2-0.1,0.4-0.2,0.6-0.3
	l0.6-0.3c0.2-0.1,0.4-0.2,0.6-0.3c0.2-0.1,0.4-0.2,0.6-0.2c0.2-0.1,0.5-0.2,0.7-0.2h0.1c0.4-0.1,0.7-0.2,1-0.4
	c0.2-0.1,0.3-0.2,0.5-0.3c0.1-0.1,0.2-0.1,0.3-0.2c0.1,0,0.2-0.1,0.2-0.2c0.5-0.4,1-1,1.2-1.7c0.1-0.3,0.2-0.5,0.3-0.8
	s0.2-0.5,0.3-0.7c0-0.1,0.1-0.2,0.1-0.3c0.1-0.1,0.1-0.3,0.2-0.4c0-0.1,0.1-0.3,0.2-0.4l0.3-0.6c0.3-0.6,0.7-1.2,1.1-1.7l0.3-0.5
	c0.1-0.2,0.2-0.3,0.4-0.5c0.1-0.2,0.4-0.5,0.7-0.8l0.4-0.5l0.6-0.7c0.5-0.5,1-1,1.5-1.5c0.5-0.5,0.8-0.7,1.2-1.1
	c1-0.9,1.9-1.7,2.9-2.5l1.8-1.5l0.8-0.7c0.2-0.2,0.4-0.4,0.6-0.6h9.4C319.4,723.6,319.4,724.1,319.3,724.5z M367.3,709.3
	c-0.1,0.1-0.1,0.3-0.2,0.4c-0.1,0.1-0.1,0.3-0.2,0.4c-0.1,0.1-0.1,0.3-0.2,0.4c0,0,0,0,0,0.1c-0.1,0.1-0.1,0.2-0.2,0.3l-0.2,0.3
	c-0.4,0.5-0.8,1.1-1.2,1.5l-0.5,0.6c-0.2,0.2-0.5,0.5-0.7,0.7c-0.2,0.2-0.5,0.5-0.7,0.7c-0.2,0.2-0.5,0.4-0.7,0.6l-0.8,0.7l-1.3,1.1
	l-0.5,0.4l-0.8,0.7c-0.8,0.7-1.5,2.2-2.3,3c-0.1,0.1-0.1,0.1-0.2,0.2l-0.2,0.1l-0.2,0.1c0,0-0.1,0-0.1,0h-0.1c-0.2,0-0.4,0-0.6-0.1
	c-0.1,0-0.1-0.1-0.2-0.1c-0.1,0-0.1-0.1-0.2-0.1c0,0-0.1-0.1-0.1-0.1c-0.1-0.1-0.1-0.1-0.2-0.2c-0.2-0.2-0.3-0.5-0.2-0.8
	c0.1-0.3,0.3-0.6,0.6-0.8c0.1-0.1,0.3-0.3,0.5-0.4l0.6-0.4l0.6-0.4l0.3-0.2c0.2-0.1,0.4-0.3,0.5-0.4c0.2-0.1,0.3-0.2,0.4-0.4
	c0.4-0.4,0.8-0.8,1.2-1.2l0.9-0.9l1-0.9l1.4-1.3c1-0.9,2-1.8,3-2.7c1-0.9,1.7-1.5,2.5-2.3C367.7,708.3,367.5,708.8,367.3,709.3
	L367.3,709.3z M375.5,699c-0.1,0.2-0.2,0.3-0.4,0.4c-0.5,0.3-1,0-1.5-0.2l-0.2-0.1l-0.2-0.1l-0.2-0.1c-0.3-0.1-0.5-0.2-0.8-0.3
	c-0.3-0.1-0.5-0.2-0.8-0.4l-0.5-0.3l-1-0.5l-0.5-0.3l-0.5-0.2l-0.5-0.2c-0.2-0.1-0.4-0.1-0.6-0.1c-0.2-0.1-0.4-0.1-0.6-0.1h-0.2
	c-0.2,0-0.4,0-0.7,0h-0.4c-0.2,0-0.3,0-0.5,0.1l-0.4,0.1l-1,0.5l-0.9,0.5c-0.9,0.6-1.8,1.2-2.6,1.9c-0.5,0.5-1.1,0.9-1.6,1.4
	c-1.3,1.3-2.6,2.7-3.9,4.1c-0.4,0.5-0.9,0.9-1.3,1.3s-1,1-1.6,1.5c-0.6,0.5-1.2,1-1.8,1.6c-0.4,0.4-0.8,0.7-1.2,1.1l-1.4,1.2
	l-1.1,1.1c-3.3,3.1-6.6,6.2-9.9,9.4c-1.2,1.1-2.3,2.2-3.5,3.4l-0.3,0.3c-0.5,0.4-0.9,0.9-1.4,1.3c-0.2,0.1-0.3,0.3-0.5,0.4
	c-0.1,0.1-0.1,0.1-0.2,0.2c-0.1,0.1-0.3,0.2-0.5,0.3c-0.2,0.1-0.3,0.2-0.5,0.2c-0.3,0.2-0.7,0.3-1.1,0.3h-0.3c-0.2,0-0.3,0-0.5,0
	l4.5-4.7l4.5-4.7c3-3.1,6-6.2,9-9.3c0.3-0.3,0.7-0.7,1-1l1.4-1.4c1.4-1.4,2.9-2.7,4.4-4c0.5-0.4,1-0.9,1.5-1.3
	c1.4-1.4,2.8-2.8,4.2-4.2c0.6-0.7,1.2-1.5,1.8-2.2c0.6-0.8,1.1-1.6,1.7-2.4c-0.1-0.5-0.2-1.1-0.3-1.6c-0.3,0.1-0.6,0.3-0.9,0.4
	c-0.3,0.1-0.5,0.3-0.8,0.4l-0.2,0.1c-0.2,0.1-0.5,0.3-0.7,0.4c-0.5,0.3-0.9,0.6-1.4,1c-0.2,0.1-0.3,0.3-0.5,0.4
	c-0.4,0.3-0.7,0.7-1.1,1l-0.4,0.4c-0.3,0.3-0.6,0.6-0.8,0.9l-0.8,0.9c-1.1,1.2-2.1,2.5-3.3,3.6l-0.7,0.7c-1.1,0.9-2.2,1.9-3.2,2.9
	c-4.2,3.9-8.3,7.9-12.5,11.8c-1,1-2.1,2-3.2,2.9c-2.1,1.9-4.3,3.8-6.5,5.6l-0.2-0.2c-0.1-0.1-0.2-0.2-0.2-0.4c0-0.1-0.1-0.1-0.1-0.2
	c0,0,0-0.1-0.1-0.2c0-0.1,0-0.1,0-0.2v-0.2c0-0.1,0-0.3,0-0.4c0-0.1,0-0.2,0-0.3v-0.5c0-0.2,0-0.4,0-0.5c0-0.1,0-0.2-0.1-0.3
	c-0.1-0.5-0.1-1,0.1-1.4c0-0.1,0-0.1,0.1-0.2c0-0.1,0-0.1,0.1-0.2c0.1-0.2,0.2-0.5,0.4-0.7c0.1-0.1,0.2-0.3,0.3-0.4l0.2-0.2l0.4-0.4
	c9.8-9.4,19.6-18.8,29.4-28.2l0.5-0.4l0.3-0.3c0.5-0.5,1.1-0.8,1.8-0.9c0.5,0,0.9,0,1.3,0.2h3.4c0,0,0.1,0,0.1-0.1
	c0.1-0.1,0.1-0.2,0.2-0.4c0-0.3,0.1-0.6,0.2-0.8c0-0.1,0.1-0.1,0.1-0.2h0.1c0,0,0.1,0,0.2,0c0.2,0,0.3,0.1,0.5,0.2
	c0.4,0.2,0.8,0.4,1.2,0.6c0.1,0,0.1,0.1,0.2,0.1l0.6,0.3h0c0.1,0,0.1,0.1,0.2,0.1c0.1,0,0.1,0.1,0.2,0.1c0,0,0.1,0,0.1,0.1
	c0.3,0.2,0.6,0.3,0.8,0.5c0.5,0.3,1.1,0.7,1.6,1.1c0.5,0.4,0.9,0.7,1.4,1l0.2,0.2l0.7,0.5c0.1,0.1,0.3,0.2,0.4,0.3
	c0.3,0.2,0.5,0.4,0.8,0.7l0.5,0.4c0.2,0.1,0.3,0.3,0.5,0.4c0.1,0.1,0.2,0.1,0.2,0.2l0.2,0.2l0.4,0.5c0.3,0.3,0.6,0.6,0.9,1
	c0.2,0.2,0.3,0.3,0.4,0.5c0.1,0.2,0.3,0.3,0.4,0.5C375.2,697.5,376.1,698.2,375.5,699z"/>
<path class="st1" d="M305,723.2c0.2-0.2,0.4-0.4,0.6-0.5h-11.2c-0.2,0.2-0.4,0.4-0.6,0.5C298,723.2,301.7,723.2,305,723.2z"/>
<path class="st1" d="M319.3,723.2c0-0.2-0.1-0.4-0.2-0.5h-8.5c-0.2,0.2-0.4,0.4-0.6,0.5C313.9,723.2,317,723.2,319.3,723.2z"/>
<polygon class="st1" points="312.3,676.4 312.3,676.4 312,676.4 312,676.4 312.2,676.2 "/>
<path class="st1" d="M446.5,680.8c-3,5.5-5.2,6.4-10.6,4.1c-1.3-0.4-2.4-1-3.5-1.8c-3.6-2.8-6.3-1.9-9.2,1.4
	c-2.3,2.7-5.4,4.8-8.1,7.3c-4.8,4.4-8.4,3.8-12.3-2.1c1.6-0.1,2.9,0.3,4.6-1.4c2.1-2,4.4-3.8,6.9-5.3c3.1-1.9,4.8-4.5,2.6-8.3
	c-1.3-1.8-1.3-4.3-0.1-6.1c5.2,3.3,9.4,8,15,10.7c3.7,1.8,7.1,5.7,10.2-0.7c0.4-0.9,1.6-1.5,3.2-2.8
	C444.7,678.2,441.1,681.3,446.5,680.8z"/>
<path class="st1" d="M372,623.3c-1.7,1.9-2.8-0.5-4-1.3c-3.4-2.1-6.2-4.9-8.5-8.2c-0.9-1.3-1.7-2.2-3.1-1c-4.1,3.3-7.8,7.1-11,11.2
	c-1,1.4,0.4,2.5-0.1,3.7c-3.5-2.4-3.1-5-0.4-7.7c3.4-3.4,7-6.6,10-10.3c2.2-2.6,2.8-4.6,0.9-7.8c-1.3-2.2-2.9-4.5-3-7.2
	c3.5,1,3.3,4.7,4.8,7c3.8,6.2,8.1,12.1,12.9,17.6C371.3,620.2,373.4,621.8,372,623.3z"/>
<path class="st1" d="M385.9,562.1c-1.6,6.8-8.5,8.9-12.3,13.9c-4.3,5.6-10.9,9-14.4,15.3c-0.6,1-1.6,1.6-2.4,0.8
	c-1.9-2-2.8,0.3-4.2,0.7c-1.5-2,0.6-3.2,1.4-3.3c4.9-0.7,7-4.8,10.1-7.6c5.9-5.6,11.5-11.5,17.4-17.1
	C382.7,563.5,383.6,561.5,385.9,562.1z"/>
<path class="st1" d="M400.1,562.8c-0.9-0.2-2.3-0.2-2.8,0.3c-4.8,4.8-5.7-1.2-8.1-2.8l13.3-1.4C403.4,561.2,404.4,563.5,400.1,562.8
	z"/>
<path class="st2" d="M746.3,241.2c-0.6,0.6-1.2,1.2-1.9,1.8l-2,1.8L746.3,241.2z"/>
<path class="st3" d="M779.9,209l-1.9,2C778.5,210.3,779.2,209.6,779.9,209z"/>
<path class="st2" d="M734.9,253.2c0,1-0.7,1.8-1.7,1.8c-0.1,0-0.3,0-0.4,0c0-0.2,0-0.4,0-0.6c0-0.6,0.5-1.2,1.1-1.2
	C734.2,253.1,734.5,253.1,734.9,253.2z"/>
<path class="st2" d="M851.5,283.9c0.1,1.3-0.6,1.9-1.9,1.9C849.4,284.3,850,283.6,851.5,283.9z"/>
<path class="st5" d="M754.9,300.9c-5.7-6.9-12.6-12.5-18.3-19.4c-2.4-2.9-5.3-2.1-8.7,1.1c4-0.7,6.2,1,7.4,3.4c1.1,2,0.8,4.5-0.9,6
	c-2.8,2.2-1.4-2.7-3.1-2.4c-1.7,1-1.3,2.3-1.2,3.6s0.2,3.5-1.8,3.4c-1.8-0.1-1.7-2.1-1.8-3.6c-0.2-2-0.1-4.1,0.3-6.1
	c0.1-0.5,0.3-0.9,0.5-1.4l0,0l0.3-0.6c-3.5,0.6-11,6.9-12,9.8c-0.4,1.3,0.1,2.3,1.2,2c5.4-1.5,6.4,3.7,9.1,6c1.3,1,1.6,2.8,0.6,4.1
	c-0.2,0.3-0.5,0.5-0.8,0.7c-1.9,1.5-2.9-0.1-4.1-1.4c-4.5-5.2-4.5-5.2-10.1-1.3c-0.5,0.4-1,0.8-1.7,1.3c2.2,2.4,4.5,4.6,5.9,7.5
	c0.6,1.3,0.8,2.7-0.5,3.6c-1.5,1-2.6-0.1-3.3-1.2c-2.1-3.4-6.2-5.9-5.2-10.8c0.2-0.8,0.2-1.7-0.8-2.1s-1.6,0.4-2,1
	c-2.2,3.1-5.5,5.4-7.2,9c5.2,1.1,10.7,4.9,11.3,8.8c0.7,4.3-1.1,8.6-4.7,11c-1.1,0.8-2.3,1.8-1.1,3.7c3.2,5.5,4.9,5.9,9.7,1.9
	c0.5-0.5,1-0.9,1.6-1.2c1-0.5,2.3-1.1,3.2,0s0.3,2.2-0.7,3c-1.9,1.8-3.7,3.9-5.9,5.3c-2.4,1.6-5.2,2.2-7.8-0.2
	c-6.5-6-6.5-11-0.2-17.1c1-1,3.2-2,2.5-3.3c-1.4-2.6-3.1-5.3-5.5-6.9c-2.1-1.4-3,1.9-4.4,3.1c-3.8,3.5-4.9,3.5-7-0.8
	c-0.2,0.1-0.3,0.2-0.5,0.3c-0.3,0.2-0.7,0.4-1,0.6s-0.7,0.4-1,0.6c-0.5,0.3-0.9,0.6-1.2,1.1c-3.4,4.3-8.8,6.6-11.4,11.7l0.6-0.1
	c0.3,0,0.6-0.1,0.8-0.2c0.1,0,0.1,0,0.2-0.1l0.3-0.1c0.1,0,0.1-0.1,0.2-0.1l0.2-0.2c0.2-0.2,0.4-0.3,0.6-0.5c0.4-0.6,1-1,1.7-1.3
	c0.4-0.1,0.8-0.1,1.2,0c0.1,0,0.2,0.1,0.4,0.2l0.2,0.1c0.1,0.1,0.2,0.2,0.3,0.3c0.1,0.1,0.2,0.3,0.3,0.4c0.1,0.3,0.1,0.7,0,1
	c-0.1,0.2-0.2,0.5-0.3,0.7l-0.2,0.3c-0.3,0.4-0.6,0.8-0.9,1.1c-0.3,0.4-0.6,0.7-0.9,1c-0.2,0.2-0.3,0.3-0.5,0.5
	c-0.9,0.8-1.8,1.4-2.8,1.9c-0.7,0.5-1.6,0.7-2.4,0.8c-0.1,0-0.2,0-0.3,0c0,0-0.1,0-0.1,0h-0.1c-0.1,0-0.1,0-0.2-0.1
	c0,0-0.1,0-0.1-0.1c0,0-0.1,0-0.1-0.1c0,0-0.1-0.1-0.1-0.1c-0.2-0.2-0.3-0.5-0.3-0.8c0-0.3-0.1-0.6-0.1-0.8c0-0.5,0-1,0.1-1.5
	c-3.4,1.2-5.6,3.8-7.3,6.8c-1.5,2.7-0.8,5.6,1.5,7c6.7,4,11,10.4,16.8,15.3c2.3,1.9,4.7,5.9,8.5,2.2c9-8.4,17.9-16.8,26.9-25.2
	c12.4-11.5,24.9-23,37.4-34.4C757.3,306,757.7,304.2,754.9,300.9z M698.7,352.7c0,0.2,0,0.3-0.1,0.5c0,0.2-0.1,0.4-0.1,0.6
	c-0.1,0.3-0.2,0.6-0.3,0.9l-0.2,0.5c-0.3,0.8-0.8,1.7-1.2,2.4c-0.2,0.3-0.4,0.6-0.6,0.9v0.1c-0.2,0.3-0.4,0.5-0.6,0.8l-0.4,0.5l0,0
	c-0.2,0.2-0.3,0.4-0.5,0.5s-0.3,0.4-0.5,0.5s-0.3,0.3-0.5,0.5l-0.4,0.4c-0.2,0.2-0.5,0.4-0.7,0.6c-0.3,0.3-0.7,0.5-1,0.8
	c-0.1,0.1-0.2,0.1-0.3,0.2c-0.4,0.2-0.8,0.4-1.2,0.5c-0.2,0-0.4,0-0.6,0c-0.1,0-0.2,0-0.3,0h-0.2c0,0-0.1,0-0.1,0H689
	c-0.1,0-0.1,0-0.2-0.1c-0.1,0-0.1-0.1-0.2-0.1l-0.2-0.2l0,0c0-0.1-0.1-0.1-0.1-0.2c0-0.1-0.1-0.2-0.1-0.3c0-0.3,0-0.6,0-0.9
	c0,0,0-0.1,0-0.1c0-0.1,0-0.3,0.1-0.4c0.4-1.8,2.3-2.4,3.1-3.8c0.1-0.2,0.3-0.3,0.4-0.5c0.1,0,0.1-0.1,0.2-0.1
	c0.2-0.2,0.4-0.3,0.6-0.4l0.5-0.2l0.4-0.2l0.4-0.2c0.1-0.1,0.2-0.1,0.2-0.2c0.1-0.1,0.1-0.1,0.2-0.2c0,0,0.1-0.1,0.1-0.1
	c0,0,0,0,0.1-0.1c0-0.1,0.1-0.1,0.1-0.2c0-0.1,0.1-0.2,0.1-0.2c0-0.1,0-0.3,0-0.5c0-0.1,0-0.1,0-0.2c0-0.2-0.1-0.3-0.2-0.5
	c-0.3-0.6-0.7-1.2-1.1-1.8c-0.4-0.6-0.8-1.2-1.3-1.7c-0.4-0.4-0.8-0.8-1.2-1.2c-0.2-0.2-0.5-0.5-0.8-0.7s-0.5-0.4-0.8-0.6l-0.4-0.3
	c-0.4-0.3-1-0.4-1.5-0.1c-0.2,0.1-0.3,0.2-0.4,0.3c-0.1,0.1-0.1,0.1-0.2,0.2c-0.3,0.4-0.7,0.8-1,1.2c-0.1,0.2-0.3,0.3-0.4,0.5
	c-0.2,0.2-0.4,0.4-0.7,0.5c-1.5,0.8-2.6,3.4-4.5,1.2c-0.1-0.1-0.1-0.2-0.2-0.2c0-0.1-0.1-0.1-0.1-0.2c0-0.1-0.1-0.1-0.1-0.2
	c-0.2-0.5-0.2-1.1,0.1-1.6c0.1-0.1,0.1-0.3,0.2-0.4c0.1-0.1,0.2-0.3,0.3-0.4l0.3-0.4c0.3-0.3,0.7-0.6,1.1-0.8
	c0.8-0.4,1.6-0.9,2.2-1.5c0.2-0.2,0.3-0.4,0.5-0.5c0.2-0.3,0.4-0.6,0.5-0.9c0-0.1,0.1-0.2,0.1-0.3c0.1-0.2,0.1-0.4,0.1-0.6
	c0-0.4,0-0.9-0.1-1.3c-0.1-0.3-0.2-0.7-0.4-1c-0.1-0.2-0.2-0.4-0.4-0.7c-0.2-0.2-0.3-0.5-0.5-0.8s-0.3-0.5-0.5-0.7l-1.1-1.5
	c-0.9-1.3-3.5-2.8-1.5-4.4c0.2-0.1,0.4-0.3,0.5-0.4c0.2-0.1,0.3-0.2,0.5-0.2h0.1l0.3-0.1l0.3-0.1c0.9-0.1,1.8,0.1,2.5,0.6
	c0.2,0.1,0.3,0.2,0.5,0.3c0.1,0.1,0.3,0.3,0.4,0.4c0.1,0.1,0.2,0.2,0.3,0.4c0,0,0.1,0.1,0.1,0.1l0.1,0.1c0.1,0.1,0.2,0.3,0.3,0.4
	c0.4,0.7,0.9,1.3,1.4,1.9l0.5,0.6c0.3,0.4,0.6,0.9,0.8,1.4c0.1,0.1,0.1,0.2,0.1,0.4c0.1,0.3,0.2,0.5,0.2,0.8c0,0.3,0,0.6,0,0.9
	c0,0.2,0,0.3-0.1,0.5c0,0,0,0.1,0,0.1c0,0.1,0,0.2,0,0.2c0,0.2,0,0.3,0,0.5c0,0.1,0,0.1,0.1,0.2c0,0.1,0,0.1,0.1,0.1
	c0,0.1,0.1,0.1,0.2,0.2c0.1,0.1,0.2,0.1,0.3,0.2l0.2,0.1c0.2,0.1,0.3,0.1,0.5,0.1c0.2,0.1,0.5,0.2,0.7,0.3h0.1
	c0.9,0.6,1.7,1.3,2.4,2.1c0.2,0.2,0.4,0.4,0.5,0.6s0.3,0.4,0.5,0.6s0.3,0.4,0.5,0.6c0.3,0.4,0.6,0.8,0.8,1.2
	c0.3,0.4,0.5,0.8,0.7,1.2c0.1,0.2,0.2,0.4,0.3,0.6s0.2,0.4,0.3,0.6c0.2,0.4,0.4,0.8,0.6,1.2c0.1,0.2,0.2,0.4,0.3,0.5
	C698.8,352.2,698.8,352.5,698.7,352.7z M735.9,318.1c0,5.3-6.9,12-11.9,11.3c-0.1,0-0.2,0-0.3-0.1c-0.1,0-0.2-0.1-0.3-0.1l-0.2-0.1
	c-0.2-0.1-0.5-0.2-0.7-0.4l-0.4-0.2c-0.1-0.1-0.3-0.2-0.4-0.3l-0.4-0.3c-0.2-0.1-0.3-0.2-0.5-0.4l-0.4-0.4l-0.5-0.5l-0.6-0.6
	l-0.1-0.1l-0.5-0.6c-0.2-0.2-0.3-0.3-0.5-0.5c-0.1-0.2-0.4-0.4-0.6-0.7c-0.1-0.1-0.2-0.3-0.3-0.4c-0.1-0.1-0.2-0.3-0.3-0.4
	c-0.4-0.6-0.8-1.2-1.1-1.8c0-0.1-0.1-0.2-0.1-0.3c0-0.1-0.1-0.1-0.1-0.2c0-0.2-0.1-0.3-0.1-0.5c0-0.1,0-0.3,0-0.4c0-0.1,0-0.2,0-0.2
	c0-0.2,0.1-0.4,0.2-0.7c0.1-0.1,0.1-0.2,0.2-0.4c0.2-0.2,0.4-0.4,0.7-0.5c0.1,0,0.2-0.1,0.3-0.1c0.1,0,0.2,0,0.4,0
	c0.6,0,1.1,0.1,1.6,0.4c0.1,0.1,0.3,0.1,0.4,0.2c0.1,0.1,0.3,0.2,0.4,0.3c0.1,0.1,0.2,0.2,0.3,0.3c0.5,0.7,1.1,1.3,1.8,1.8
	c0.3,0.2,0.6,0.5,0.8,0.9c0.1,0.1,0.1,0.1,0.1,0.2c0.1,0.1,0.1,0.2,0.2,0.3c0.2,0.3,0.3,0.7,0.5,1s0.2,0.4,0.3,0.6
	c0.1,0.2,0.2,0.4,0.4,0.5c0.4,0.4,0.9,0.6,1.5,0.4l0.5-0.2l0.5-0.2c0.2-0.1,0.3-0.2,0.5-0.3c0.2-0.1,0.3-0.2,0.5-0.3
	c0.4-0.3,0.8-0.6,1.1-0.9c0.2-0.2,0.4-0.3,0.5-0.5c0.3-0.3,0.6-0.6,0.8-0.9c0.2-0.2,0.4-0.5,0.6-0.7c0.1-0.1,0.2-0.2,0.2-0.4
	c0.1-0.1,0.2-0.2,0.2-0.4c0.4-0.6,0.5-1.3,0.3-2c-0.1-0.2-0.2-0.4-0.3-0.6l-0.1-0.1c-0.1-0.1-0.2-0.2-0.3-0.4l-0.3-0.4
	c-0.5-0.5-1-0.9-1.5-1.3c-0.2-0.1-0.3-0.3-0.5-0.4c-0.1-0.1-0.2-0.2-0.2-0.2l-0.2-0.2c-0.1-0.1-0.1-0.1-0.2-0.2
	c-0.1-0.1-0.1-0.1-0.2-0.2c-0.1-0.1-0.3-0.2-0.4-0.3c-0.1,0-0.2-0.1-0.2-0.1l-0.4-0.3l-0.3-0.2c-0.1-0.1-0.3-0.2-0.4-0.3
	c-0.1-0.1-0.2-0.2-0.2-0.3l-0.1-0.2c-0.3-0.6-0.4-1.3-0.1-1.9c0.1-0.2,0.1-0.3,0.2-0.5c0.1-0.2,0.2-0.3,0.3-0.4
	c0.1-0.1,0.1-0.2,0.2-0.3l0.2-0.2c0.1-0.1,0.1-0.1,0.2-0.2l0.1-0.1c0.2-0.2,0.5-0.3,0.8-0.4c0.1-0.1,0.3-0.1,0.5-0.2
	c0.2,0,0.3-0.1,0.5-0.1c0.4-0.1,0.9,0,1.3,0.1c0.2,0.1,0.5,0.2,0.7,0.4l0.2,0.2c0.2,0.1,0.3,0.3,0.4,0.4c0.1,0.1,0.2,0.3,0.4,0.4
	c0.1,0.1,0.2,0.3,0.3,0.5c0.2,0.2,0.3,0.5,0.5,0.7c0.3,0.6,0.7,1.1,1.1,1.6l0.6,0.8l0.3,0.4c0.2,0.3,0.4,0.5,0.5,0.8l0,0
	c0.4,0.5,0.6,1.1,0.8,1.8c0.1,0.2,0.1,0.4,0.1,0.6c0,0.1,0.1,0.3,0.1,0.4C735.8,317.7,735.8,317.8,735.9,318.1L735.9,318.1z
	 M751.7,306.6c-0.1,0.3-0.2,0.6-0.3,0.9c-0.9,2.6-3,4-5.1,3.6c-0.2-0.1-0.5-0.1-0.7-0.2l0,0c-0.3-0.1-0.5-0.2-0.7-0.4
	c-0.3-0.2-0.5-0.3-0.7-0.5l-0.8-0.6l-0.4-0.3c-0.3-0.2-0.5-0.3-0.8-0.5l0,0c-0.3-0.1-0.6-0.2-0.8-0.2c-0.4-0.1-0.9,0-1.3,0.1
	c-0.1,0-0.3,0.1-0.4,0.1l0,0l-0.5,0.2c-0.8,0.4-1.7,0.1-2.2-0.7c-0.2-0.4-0.3-0.9-0.3-1.4c0-0.1,0-0.2,0-0.2c0-0.1,0-0.2,0-0.3
	c0-0.1,0-0.2,0.1-0.3c0-0.1,0.1-0.2,0.1-0.2c0,0,0-0.1,0.1-0.1c0-0.1,0.1-0.1,0.1-0.1c0-0.1,0.1-0.1,0.2-0.1c0.7-0.5,1.4-1,2.2-1.5
	c1.6-1,3.2-2,4.8-3c0.6-0.4,1.3-0.8,2-1.1l0.2-0.1c0.1-0.1,0.3-0.1,0.4-0.1c0.3,0,0.5,0,0.8,0.1c0.2,0.1,0.4,0.2,0.5,0.3
	c0.2,0.1,0.3,0.3,0.4,0.5c0.1,0.2,0.2,0.5,0.3,0.7c0,0.1-0.1,0.3-0.1,0.4c0,0.1-0.1,0.2-0.1,0.3c-0.1,0.1-0.1,0.2-0.2,0.3
	c0,0.1-0.1,0.1-0.1,0.2c-0.2,0.2-0.4,0.4-0.6,0.5l-0.2,0.1c-0.2,0.1-0.4,0.2-0.6,0.3l-0.5,0.2l-0.3,0.1c-0.2,0.1-0.3,0.2-0.4,0.2
	l-0.2,0.1l-0.2,0.2c-0.1,0.1-0.2,0.2-0.2,0.4v0.1c0,0.1,0,0.2,0,0.2c0,0.1,0,0.3,0,0.4c0,0.1,0.1,0.3,0.2,0.4
	c0.1,0.2,0.2,0.4,0.3,0.5c0.1,0.1,0.2,0.3,0.3,0.4c0,0.1,0.1,0.1,0.2,0.2c0.1,0.1,0.2,0.2,0.4,0.4c0.1,0.1,0.1,0.1,0.2,0.1
	c0.1,0.1,0.2,0.1,0.3,0.1c0.1,0,0.3,0.1,0.4,0.1c0.1,0,0.2,0,0.2,0c0.1,0,0.2-0.1,0.3-0.1l0.1-0.1c0.1-0.1,0.2-0.2,0.2-0.2
	c0.1-0.1,0.1-0.2,0.2-0.3l0.1-0.3c0-0.1,0.1-0.2,0.1-0.3c0.1-0.1,0.1-0.3,0.2-0.4c0.1-0.2,0.2-0.4,0.3-0.5c0-0.1,0.1-0.2,0.2-0.2
	c0.1-0.1,0.1-0.2,0.2-0.2c0,0,0.1-0.1,0.1-0.1c0.1-0.1,0.3-0.2,0.4-0.3h0.1c0.3-0.1,0.6-0.2,0.9-0.1h0.1h0.1l0.1,0
	c0.1,0,0.1,0.1,0.2,0.1c0.3,0.2,0.5,0.5,0.6,0.8c0,0.1,0.1,0.3,0.1,0.4c0,0.1,0,0.1,0,0.2C751.9,305.9,751.8,306.2,751.7,306.6z
	 M727.7,284.9L727.7,284.9L727.7,284.9L727.7,284.9z M672.6,334.8L672.6,334.8L672.6,334.8L672.6,334.8l0.1,0l0,0L672.6,334.8z
	 M670.6,336.8c0,0,0,0.1,0,0.1h0.1L670.6,336.8z"/>
<path class="st0" d="M634.7,401.5c-0.1,0.4-0.1,0.7-0.2,1.1c0,0.2-0.1,0.4-0.2,0.5c-0.1,0.4-0.3,0.8-0.5,1.2l-0.2,0.4
	c-2.3,0.1-3.3,1.1-2.2,3.4c0,0-0.1,0.1-0.1,0.1l-0.1,0.1l0,0c-4.9-1.1-9.6,1.7-14.5,0.5l0,0l-0.8-0.6l-0.8-0.6
	c-5.5-4.2-6.8-9.1-3.9-14.5s8.9-7.9,13.7-5.3c1.5,0.8,3,1.8,4.3,3c0.3,0.2,0.5,0.5,0.8,0.7s0.5,0.5,0.8,0.8s0.5,0.5,0.7,0.8
	s0.5,0.5,0.7,0.8c0.5,0.7,1,1.4,1.4,2.2c0.2,0.3,0.3,0.6,0.4,0.9l0,0c0.3,0.7,0.5,1.4,0.6,2.1c0,0.1,0,0.3,0,0.4s0,0.3,0,0.4l0,0
	C634.7,400.5,634.7,401,634.7,401.5z"/>
<path class="st4" d="M799.3,238.5v0.1c0,0.1,0,0.1,0,0.2l0,0c0,0.1,0,0.2,0,0.4l0,0c0,0.5-0.1,0.9-0.3,1.4c-0.1,0.2-0.1,0.5-0.2,0.7
	c-0.4,1.1-1,2.1-1.7,3.1c-0.4,0.5-0.8,0.9-1.2,1.4c-2.1,2.1-4.8,3.5-7.7,4.1l-0.6,0.1c-0.4,0.1-0.8,0.1-1.3,0.1c-0.2,0-0.5,0-0.7,0
	h-0.6c-0.2,0-0.5,0-0.7-0.1c0,0-0.1,0-0.2,0h-0.2H784l-0.2-0.1c-0.2-0.1-0.4-0.1-0.7-0.2H783h-0.1c-0.2-0.1-0.4-0.2-0.6-0.2
	l-0.4-0.2c-0.4-0.2-0.7-0.4-1.1-0.7c-0.3-0.2-0.6-0.5-0.8-0.7s-0.5-0.5-0.8-0.8l0,0c-0.2-0.2-0.4-0.5-0.5-0.7l0,0
	c-0.3-0.4-0.6-0.9-0.8-1.4c0-0.1-0.1-0.2-0.1-0.3c0-0.1-0.1-0.2-0.1-0.2l0,0l0,0c-0.1-0.2-0.1-0.3-0.2-0.5s-0.1-0.3-0.2-0.5
	c0,0,0-0.1,0-0.1l0,0c-0.1-0.2-0.1-0.4-0.2-0.6l0,0c-0.1-0.5-0.2-1.1-0.3-1.6c0-0.4,0-0.9,0-1.4l0,0c0.3-3,1.7-5.8,3.9-7.8
	c0.3-0.2,0.5-0.5,0.8-0.7c0.3-0.2,0.5-0.4,0.8-0.6l0.4-0.3c0.3-0.2,0.6-0.3,0.9-0.5s0.6-0.3,0.9-0.4c1-0.4,2.1-0.6,3.1-0.5
	c0.5,0,1,0.1,1.5,0.2l1,0.3c0.7,0.2,1.4,0.5,2,0.8c0.3,0.2,0.7,0.3,1,0.5l0.5,0.3c0.5,0.3,0.9,0.6,1.4,1c0.3,0.2,0.6,0.5,0.8,0.7
	l0,0c0.3,0.2,0.5,0.5,0.8,0.7s0.2,0.2,0.4,0.4c0.5,0.5,0.9,1,1.2,1.6l0,0c0.1,0.1,0.2,0.3,0.2,0.4c0.1,0.1,0.2,0.3,0.2,0.4
	c0.1,0.1,0.1,0.3,0.2,0.4c0.1,0.1,0.1,0.2,0.2,0.4c0,0,0,0.1,0,0.1c0,0.1,0.1,0.2,0.1,0.3c0,0.1,0.1,0.3,0.1,0.4
	C799.3,238.1,799.3,238.3,799.3,238.5z"/>
<path class="st0" d="M368.2,661.2l-0.1,0.5c-0.1,0.3-0.2,0.7-0.4,1c-0.2,0.3-0.3,0.6-0.5,0.9l0,0c-0.5,0.7-1,1.4-1.6,2l0,0l-0.6,0.6
	c-0.5,0.5-1,0.9-1.4,1.4c-0.2,0.2-0.3,0.3-0.5,0.5l-0.6,0.6L362,669c-0.5,0.5-1,1.1-1.4,1.7c-0.5,0.7-1.1,1.1-0.9,2l0,0v0.1l0,0
	c-0.5,0-0.9,0-1.4,0c-1-0.2-2-0.1-3,0.3c-2,1-4,0.1-5.9,0.1c-0.3,0-0.6,0-0.8,0.1l0,0c0.3-0.9,0.5-1.9,0.4-2.8c0-0.6,0-1.1,0-1.7
	c0-0.2,0-0.4,0-0.6s0-0.3,0.1-0.5c0.1-0.5,0.2-0.9,0.4-1.3c0.1-0.1,0.2-0.3,0.2-0.4c2-3.2,3.2-7.1,5.5-10.1c0.2-0.3,0.5-0.6,0.8-0.9
	l0.4-0.4c0.6-0.6,1.3-1.2,2.1-1.7c0.3-0.2,0.6-0.4,0.9-0.5c0.4-0.2,0.8-0.4,1.2-0.5l0.7-0.2l0.7-0.2c0.2,0.2,0.4,0.4,0.5,0.5
	c0.3,0.2,0.6,0.5,0.9,0.7s0.6,0.5,0.9,0.7l0.6,0.5l0.7,0.5c0.1,0.1,0.2,0.2,0.3,0.3s0.5,0.4,0.7,0.6c0.7,0.6,1.2,1.4,1.6,2.2
	c0,0.2,0.1,0.3,0.1,0.5C368.4,659,368.4,660.1,368.2,661.2z"/>
<path class="st0" d="M382.4,643.1c0,0.3,0,0.5,0,0.8c-3.7,3.3-8.9,4.9-10.8,10.1l0,0c-0.3-0.1-0.5-0.2-0.8-0.2l0,0
	c-0.2-0.1-0.5-0.2-0.7-0.2h-0.1l-0.7-0.3l0,0l-0.3-0.2l-0.3-0.2c-0.2-0.1-0.4-0.2-0.6-0.3c-0.4-0.2-0.7-0.5-1.1-0.8
	c-0.2-0.1-0.3-0.3-0.5-0.4c-2-1.9-2.3-4.5-0.8-7.2l0,0c0.2-0.3,0.4-0.7,0.6-1c0.3-0.3,0.5-0.7,0.8-1l0.1-0.1l0,0
	c0.1-0.1,0.2-0.2,0.3-0.4l0.4-0.5c0.3-0.6,0.8-1.2,1.3-1.7c0.3-0.3,0.6-0.6,0.9-1l0.6-0.7c1.1-1.3,2.2-2.7,3.9-2.7
	c0.2,0,0.4,0,0.6,0.1c0.1,0,0.2,0,0.3,0.1c0.1,0,0.2,0.1,0.3,0.1l0,0c0.4,0.2,0.9,0.4,1.3,0.6c1.1,0.5,2,1.1,2.9,1.9l0.4,0.4
	c0.1,0.1,0.3,0.3,0.4,0.4c0.1,0.1,0.2,0.2,0.2,0.3l0.2,0.3c0.1,0.1,0.1,0.2,0.2,0.3c0.1,0.1,0.1,0.2,0.2,0.3
	c0.1,0.1,0.1,0.3,0.2,0.4c0.1,0.2,0.2,0.5,0.3,0.7c0.1,0.4,0.2,0.8,0.3,1.2c0,0.2,0.1,0.4,0.1,0.7
	C382.4,642.9,382.4,643,382.4,643.1z"/>
<path class="st1" d="M383.7,626.8L383.7,626.8L383.7,626.8L383.7,626.8L383.7,626.8z"/>
<path class="st1" d="M413.7,600.2L413.7,600.2c0,0.2,0,0.4-0.1,0.6c-0.3,0.7-0.8,1.3-1.4,1.9l-0.1,0.2l-0.1,0.1c-1,1-1.9,2-2.9,2.9
	c-2.9,3-5.9,5.9-8.8,8.9c-3.9,3.9-7.8,7.9-11.6,11.9c-0.5,0.6-1.2,0.9-1.9,1c-0.1,0-0.2,0-0.4,0l-0.4-0.1c-0.4-0.1-0.7-0.2-1.1-0.4
	l-0.4-0.1c-0.1,0-0.2-0.1-0.4-0.1c-0.1,0-0.2-0.1-0.3-0.1l0,0c-0.1-1,0-2,0.4-3c0.1-0.4,0.3-0.7,0.5-1c0.1-0.2,0.2-0.3,0.4-0.5
	c0.1-0.1,0.1-0.2,0.2-0.2c0.1-0.1,0.1-0.2,0.2-0.2l8.4-7.4l7.4-6.6c1.4-1.2,2.8-2.5,4.2-3.7l4.2-3.7l0.2-0.2l0.2-0.2
	c0.8-0.7,1.6-1.6,2.5-1.4c0.2,0,0.4,0.1,0.5,0.2l0,0l0.2,0.2c0.1,0.1,0.2,0.2,0.2,0.2l0,0C413.6,599.6,413.7,599.9,413.7,600.2z"/>
<path class="st1" d="M423.8,602.6c-0.2,0.6-0.5,1.2-1,1.7c-0.2,0.3-0.5,0.5-0.8,0.7l-0.5,0.4l-0.4,0.3c-0.9,0.8-1.8,1.5-2.7,2.3
	l-0.4,0.3l-0.5,0.4l-0.3,0.3l-0.3,0.3l-0.4,0.4l-0.4,0.4l0,0l-1.9,1.8c-0.6,0.6-1.3,1.2-1.9,1.8c-1.9,1.8-3.8,3.7-5.7,5.5
	c-3,2.9-6.1,5.8-9.3,8.6l-0.2,0.2l-0.2,0.2c-0.1,0.1-0.2,0.3-0.4,0.5l-0.4,0.5c-0.1,0.1-0.2,0.2-0.3,0.3c-0.7,0.9-1.6,1.5-2.8,0.5
	l-0.2-0.2c-0.6-0.4-0.8-1.1-0.6-1.8c0.1-0.2,0.2-0.4,0.4-0.6l0.2-0.2l0.2-0.2l0.1-0.1c0.6-0.5,1.3-0.9,1.7-1.4
	c7.2-7,14.5-14,22-20.8c0.2-0.2,0.5-0.5,0.7-0.7c0.5-0.5,0.9-1,1.3-1.5c0.3-0.3,0.5-0.7,0.8-1l0.4-0.5c0.3-0.3,0.5-0.7,0.8-1
	l0.6-0.8l0.7-0.8l0,0c0.3,0.3,0.5,0.6,0.8,0.9c0.2,0.3,0.4,0.5,0.5,0.8C424,600.8,424.1,601.7,423.8,602.6z"/>
<path class="st1" d="M444.3,582.4c-0.2,0.3-0.5,0.5-0.8,0.6l-0.3,0.1h-0.1l0,0c-0.1,0-0.2,0-0.3-0.1l0,0c-0.1,0-0.1,0-0.2-0.1
	l-0.1-0.1h-0.1l-0.3-0.2h-0.1h-0.1c-0.2-0.1-0.3-0.2-0.4-0.3c-0.1-0.1-0.3-0.2-0.4-0.3l-0.1-0.1c0,0,0,0-0.1-0.1l-0.2-0.1l0,0
	l-0.3-0.2l-0.1-0.1l0,0l-0.4-0.3l-0.6-0.5l0,0c-0.3-0.2-0.6-0.5-0.9-0.8s-0.8-0.7-1.2-1.1l-0.3-0.3l-0.3-0.3l-0.3-0.3l-0.6-0.6
	c-0.2-0.2-0.4-0.4-0.5-0.6s-0.3-0.4-0.5-0.5c0-0.1-0.1-0.1-0.2-0.2l-0.3-0.3l0,0l-0.3-0.3l0,0l-0.3-0.4l-0.3-0.3v-0.1
	c-0.1-0.1-0.2-0.2-0.3-0.4l0,0c-0.1-0.2-0.3-0.4-0.4-0.6l-0.1-0.1l-0.1-0.1c0,0,0-0.1,0-0.1c0,0,0-0.1,0-0.1c0,0,0-0.1,0-0.1l0,0
	c0,0,0,0,0-0.1c0,0,0-0.1,0-0.1l0,0l0,0c0.2-0.4,0.5-0.8,0.8-1.3c0.5-0.7,1-1.4,1.6-2c0.2-0.2,0.5-0.5,0.7-0.7c0.7-0.7,1.7-1,2.7-1
	c1.9,0.1,3.8,1,5.1,2.4c0.3,0.3,0.5,0.5,0.8,0.8s0.6,0.8,0.9,1.2c0.7,1.1,1.4,2.2,2,3.4C448.9,578.8,445.4,580.2,444.3,582.4z"/>
<path class="st1" d="M412,592.3c-0.3,0.4-0.6,0.9-0.9,1.3c-0.1,0.2-0.3,0.4-0.4,0.5c0,0,0,0.1-0.1,0.1c-0.1,0.2-0.3,0.3-0.5,0.5
	c-6,5.9-12,11.7-18,17.6l-6,5.9l-0.3,0.3c-0.3,0.3-0.6,0.7-1,0.9c-0.2,0.1-0.4,0.2-0.5,0.2c-0.4,0.1-0.9,0-1.2-0.4l-0.1-0.1
	c-0.1-0.1-0.2-0.3-0.3-0.4l0,0c0-0.1-0.1-0.2-0.1-0.2c-0.1-0.4,0-0.8,0.3-1c0.1-0.1,0.2-0.2,0.3-0.2c0.5-0.3,0.9-0.6,1.3-0.9
	l5.9-5.8c6-5.9,11.9-11.7,17.9-17.5c0.8-0.8,1.5-1.9,2.8-1.8c0.1,0,0.3,0.1,0.4,0.2l0.1,0.1l0.3,0.3l0,0
	C411.8,592.1,411.9,592.2,412,592.3z"/>
<path class="st1" d="M439,585.5c-0.1,0.1-0.2,0.2-0.2,0.2c-0.2,0.1-0.4,0.3-0.5,0.4l-1,0.7c-1,0.7-2,1.4-3,2.2
	c-3.7,3-6.4,2.2-8.1-2.4c-0.3-0.7-0.6-1.6-0.2-2h0c0,0,0,0,0.1,0c0.1-0.1,0.2-0.1,0.3-0.1h0.7c0.8,0,1.6-0.3,2.2-0.8
	c0.3-0.3,0.5-0.5,0.7-0.8l0.3-0.4l0.3-0.5c0.3-0.4,0.6-0.8,0.9-1.1c1.2-1.1,2.4-2.3,4.4-1.3l0.3,0.2c1.4,1,2.6,2.3,3.5,3.8
	C439.7,584.2,439.5,584.9,439,585.5z"/>
<path class="st1" d="M403.4,592L403.4,592c-0.2,0.3-0.3,0.6-0.5,0.8s-0.3,0.5-0.5,0.8v0.1l0,0c-0.2,0.3-0.4,0.5-0.5,0.8l-0.6,0.8
	c-0.2,0.2-0.4,0.5-0.6,0.7s-0.4,0.4-0.6,0.6c-0.2,0.3-0.4,0.5-0.7,0.7l-0.7,0.7c-1.5,1.5-3.1,3-4.7,4.4l-1,1
	c-4.9,4.8-10,9.4-15.3,13.8c2.1-2.2,4.1-4.4,6.2-6.6c1-1.1,2.1-2.2,3.1-3.3c0.5-0.5,1.1-1.1,1.6-1.6l1.6-1.6l0.6-0.7l2.6-2.5
	c1.1-1,2.2-2.1,3.3-3.1c1.1-1,2.2-2.1,3.4-3.1C401.3,593.9,402.3,592.9,403.4,592z"/>
<path class="st1" d="M403.6,591.8l-0.2,0.2C403.5,591.9,403.5,591.9,403.6,591.8L403.6,591.8z"/>
<path class="st5" d="M767.2,275.3c0.1,0.2,0.2,0.5,0.3,0.8c-2.2-1.3-4.3-2.5-6.3-1.9l-0.4,0.1c-0.5,0.2-1,0.5-1.3,0.9c-0.1,0.1-0.1,0.1-0.2,0.2
	l-0.2,0.2c-0.3,0.4-0.6,0.8-0.8,1.2c0.1-3.5,4.7-5.7,0.5-8.6c-0.5-0.4,0.7-1.7,1.2-1.3l0,0l0,0l0,0l0.3,0.4l0.3,0.4
	c2.4,2.2,4.6-0.1,7.6-1.7c-0.4,0.7-0.7,1.4-1,1.9s-0.4,0.8-0.5,1.1s-0.2,0.5-0.3,0.7s-0.2,0.4-0.2,0.6c-0.2,0.8-0.3,1.6-0.1,2.4
	c0,0.2,0.1,0.3,0.1,0.5s0.1,0.2,0.1,0.4l0.2,0.7l0.2,0.6C767.1,275,767.1,275.1,767.2,275.3z"/>
<path class="st5" d="M656.9,371.3c0,0.2-0.5,0.8-1.4,1.7l-0.7,0.7c-2.6,2.6-7,6.5-7.5,6.5h-0.1l-0.2-0.1c-0.1,0-0.2-0.1-0.3-0.1l-0.2-0.1l0,0
	c0-0.1-0.1-0.1-0.1-0.2c0-0.1-0.1-0.1-0.1-0.2c-0.1-0.5,0-1,0.4-1.4l2-1.9l2-1.9c1.3-1.2,2.6-2.5,4-3.6c0.6-0.5,1.3-0.7,1.8-0.3
	c0.1,0,0.1,0.1,0.1,0.1c0.1,0.1,0.2,0.3,0.2,0.4C656.9,371.1,656.9,371.2,656.9,371.3z"/>
<path class="st0" d="M631,408.4c-0.3,0.4-0.6,0.7-0.9,1l0,0c-0.3,0.3-0.6,0.6-1,0.9c-0.3,0.3-0.7,0.5-1,0.8c-0.3,0.2-0.7,0.4-1,0.6
	c-0.3,0.2-0.7,0.3-1,0.5c-0.3,0.1-0.7,0.2-1,0.3c-0.3,0.1-0.7,0.2-1,0.2c-0.3,0-0.7,0.1-1,0.1h-0.5l-0.5,0l-0.4-0.1l-0.2,0l-0.3-0.1
	c-0.2,0-0.3-0.1-0.4-0.1c-0.1,0-0.3-0.1-0.4-0.1l-0.4-0.2c-0.3-0.1-0.6-0.3-0.8-0.5l0,0l-0.3-0.3l0,0c-0.1-0.1-0.2-0.2-0.3-0.2
	l-0.1-0.1c-0.1-0.1-0.2-0.2-0.3-0.3c-0.4-0.4-0.7-0.8-1-1.2c-0.1-0.1-0.2-0.3-0.3-0.5l0,0C621.4,410.1,626.2,407.3,631,408.4z"/>
<path class="st1" d="M383.7,626.8h-0.1l0,0c0,0,0-0.1,0-0.1L383.7,626.8L383.7,626.8z"/>
<path class="st1" d="M387.2,634.3L387.2,634.3l-0.5-0.1l-0.2-0.1h-0.2h-0.1L386,634c0,0-0.1,0-0.1,0c-0.1,0-0.2-0.1-0.3-0.1l0,0
	l-0.3-0.1l-0.1,0l-0.1-0.1l-0.1-0.1H385c-0.1,0-0.2-0.1-0.2-0.2l-0.3-0.2c-0.2-0.2-0.5-0.4-0.7-0.6c-0.4-0.4-0.9-0.9-1.2-1.4
	c-0.4-0.5-0.8-1-1.1-1.5c-0.3-0.4-0.5-0.7-0.7-1.1c-0.2-0.4-0.4-0.7-0.7-1.1c-0.5-0.8-1.4-1.2-2.4-1.2l0,0c-0.2,0-0.3,0-0.5,0l0,0
	c-0.1,0-0.2-0.1-0.3-0.1l0,0l-0.1-0.1l-0.1-0.1c-0.2-0.4,0.3-1.1,0.5-1.6l0.1-0.3l0.2-0.2c0-0.1,0.1-0.1,0.2-0.2
	c0.1-0.1,0.2-0.1,0.3-0.2h0.1c0.1,0,0.2,0,0.4,0l0.2,0.1c0.1,0.1,0.2,0.1,0.3,0.2l0.2,0.1c0.1,0.1,0.2,0.2,0.3,0.3
	c0.2,0.2,0.4,0.5,0.5,0.7l0.3,0.5l0.3,0.5c0.1,0.2,0.3,0.5,0.5,0.7l0.1,0.1c0.1,0.1,0.2,0.2,0.3,0.2c0.1,0.1,0.2,0.1,0.4,0.2l0,0
	c0.1,0.1,0.3,0.1,0.4,0.1h0.5h0.3c0.2,0,0.4-0.1,0.6-0.2l-0.1,0.2l-0.1,0.2c-0.5,1.6,0.2,2.5,1.2,3.4l0.5,0.5l0.2,0.2l0.4,0.3
	C386.6,632.4,387.1,633.3,387.2,634.3z"/>
<path class="st1" d="M433.1,551.6L433.1,551.6c-0.3-0.1-0.6-0.3-0.9-0.4s-0.5-0.3-0.8-0.5c-0.5-0.3-1-0.7-1.5-1.1
	c-0.5-0.4-0.9-0.8-1.4-1.2c-1.1-1.1-2-2.2-2.9-3.4c-0.4-0.5-0.7-1-1-1.5s-0.5-0.8-0.8-1.1l-0.8-1.1l0,0c0.9,0.3,1.8,0.7,2.7,1.1
	c0.5,0.3,1,0.7,1.5,1l0.7,0.6c0.2,0.2,0.4,0.4,0.6,0.6s0.4,0.4,0.6,0.7c1,1.2,1.8,2.5,2.6,3.8C432.2,550,432.7,550.8,433.1,551.6z"
	/>
<path class="st3" d="M968,111L968,111c0,0.2,0,0.4,0,0.6C967.9,111.4,967.9,111.2,968,111L968,111z"/>
<polygon class="st1" points="435.9,544.5 435.9,544.5 435.9,544.5 "/>
<path class="st1" d="M443.5,553.4c-1.6,0-3.1-0.6-4.1-1.8l-0.3-0.4c-0.1-0.2-0.2-0.3-0.3-0.5v-0.1l0,0v-0.1
	c-0.1-0.2-0.2-0.3-0.2-0.5c-0.2-0.4-0.3-0.7-0.4-1.1s-0.2-0.5-0.3-0.7s-0.2-0.6-0.3-0.9c-0.1-0.2-0.1-0.3-0.2-0.4l0,0
	c0-0.1,0-0.1-0.1-0.2l-0.1-0.2l-0.1-0.2c-0.1-0.1-0.1-0.3-0.2-0.4l-0.3-0.5c-0.2-0.3-0.4-0.6-0.6-0.9l0.5,0.2
	c0.4,0.2,0.9,0.3,1.3,0.6c0.4,0.2,0.7,0.4,1.1,0.7l0.3,0.2c0.3,0.2,0.6,0.5,0.8,0.8c0.2,0.2,0.3,0.4,0.5,0.5c0.9,1.2,1.7,2.6,2.2,4
	C442.9,552,443.2,552.7,443.5,553.4z"/>
<path class="st3" d="M1153.4,42c-23.7-0.3-47.4-1.1-70.8,4.7c-9.8,2.4-19.9,4-29.7,6.3c-7.1,1.7-13.9,4.3-20.8,6.3
	c-3.1,0.9-6.3,1.7-9.3,2.8c-1.7,0.1-3.5,0.4-5.1,1c-0.2,0.1-0.4,0.1-0.5,0.2c-0.4,0-0.9,0.1-1.3,0.2c-12.4,3.3-24.1,10.7-35.2,16.9
	c-5.6,3.2-11.1,6.4-16.6,9.6l-4.8,2.8c-0.2,0.1-0.5,0.2-0.8,0.3c-0.9-0.9-1.9-1.9-2.8-2.8c-2.8-3.5-6.1-6.6-9.8-9.2
	c-0.5-0.4-1.1-0.6-1.7-0.7c-1.8-1.5-3.8-2.7-5.9-3.6c-3-1.2-6.4-0.7-8.9,1.4c-13.6,10.6-27.2,21.1-41,31.3
	c-18.6,13.8-34.9,30-51.7,45.7c-11.6,10.9-23.3,21.7-34.7,32.8c-2.8,2.7-6.1,5-8.4,8.2c-0.6,0.1-1.2,0.4-1.4,1
	c-1.5,2.6-4.7,3.8-6.8,5.9c-1.8,1.8-3.6,3.6-5.4,5.4L778,211l-1.3,1.3c-2.6,2.7-5.3,5.3-8,7.9l-1.4,1.4l-0.4,0.2l-1.8,1.1
	c-3,1.9-6.4,4.1-8,7.4c-3.9,3.3-7.2,7.3-10.8,10.8c-0.6,0.6-1.2,1.2-1.9,1.8l-2,1.8c-3,2.7-5.9,5.5-8.6,8.4c0.3,0,0.7,0,1,0.1
	c0,1-0.7,1.8-1.7,1.8c-0.1,0-0.3,0-0.4,0c0-0.2,0-0.4,0-0.6c-0.9,1-1.8,2.1-2.6,3.2c-1.9,1.8-3.7,3.6-5.6,5.3
	c-10.4,9.6-20.8,19.2-31.3,28.9c-5.3,5.9-11.5,10.6-17.3,15.9s-11,11-16.6,16.3c-11.3,10.7-22.7,21.3-34.1,32
	c-13.8,12.9-27.7,25.8-41.6,38.6c-7.2,6.7-14.3,13.3-21.5,19.9c-2.7,2.5-4.6,2.6-6.5-1.3c-1-2-1.5-6.2-3.8-5.6
	c-2.6,0.6,0.3,3.9-0.1,6.1s0,3.9-3.4,2.2c-4.9-2.4-5.9,2.6-7,5.4c-2.1,5.3-4.2,10.6-7.6,15.3c-2.4,3.3-6.9,3-9.6,6
	c-2.1,2.2-4.1,4.5-6,6.9c-2.4,3.3-4.5,7.4-8.5,9.4c-3.2,1.6-6,4-8.2,7c-2.2,3-6.3,3.8-8.9,6.8c-4.4,5.1-9.5,9.5-14,14.5
	s-10,9.3-15,13.9c-4.5,4.1-7.5,9.4-10.7,14.4c-2.4,3.6-4.5,7.4-6.5,11.2c-2.4,4.9-7.7,9-13.1,11.7c-1.1,0.5-2.3,0.4-3.4-0.1
	c-5.1-3.4-10.8-2.6-16.4-2.6l0,0c-1.3,1-2.5,2.1-3.6,3.4c-0.2,0.3-0.4,0.6-0.6,0.9c-1,1.7-1.1,3.7-0.2,5.5c0.1,0.2,0.2,0.5,0.4,0.7
	c0.4,0.8,1,1.5,1.6,2.2c0.8,0.9,1.1,2.2-0.1,3c-3.2,2.1-4.7,6-8.4,7.6c0.9,2.3,1.8,4.6-2.4,4c-0.9-0.2-2.3-0.2-2.8,0.3
	c-4.8,4.8-5.7-1.2-8.1-2.8l-3.3,1.8c-1.6,6.8-8.5,8.9-12.3,13.9c-4.3,5.6-10.9,9-14.4,15.3c-0.6,1-1.6,1.6-2.4,0.8
	c-1.9-2-2.8,0.3-4.2,0.7l0.2,2c3.5,1,3.3,4.7,4.8,7c3.8,6.2,8.1,12.1,12.9,17.6c0.8,0.9,2.9,2.4,1.5,4c-1.7,1.9-2.8-0.5-4-1.3
	c-3.4-2.1-6.2-4.9-8.5-8.2c-0.9-1.3-1.7-2.2-3.1-1c-4.1,3.3-7.8,7.1-11,11.2c-1,1.4,0.4,2.5-0.1,3.7c0.9,0.8,1.4,1.8,1.6,2.9
	c5.5,6.6,10.5,13.5,15.1,20.7c0.2,0.2,0.4,0.3,0.5,0.5s0.6,0.5,0.9,0.7s0.6,0.5,0.9,0.7l0.6,0.5l0.7,0.5c0.1,0.1,0.2,0.2,0.3,0.3
	s0.5,0.4,0.7,0.6c0.7,0.6,1.2,1.4,1.6,2.2c3,2.8,3.3,5.5,0.1,8.5c-4.7,4.5-3.9,8.2,2.1,10.9c3.6,1.6,6.3-1.2,7.1-3.6
	c1.5-4.8,3.4-2.2,4.8-0.7c3.5,4.1,7.8,7.1,12.1,10.1c2.6,1.8,5.8,2.9,7.5,5.9c0.4,0.3,0.7,0.7,1.1,1c1.6-0.1,2.9,0.3,4.6-1.4
	c2.1-2,4.4-3.8,6.9-5.3c3.1-1.9,4.8-4.5,2.6-8.3c-1.3-1.8-1.3-4.3-0.1-6.1c5.2,3.3,9.4,8,15,10.7c3.7,1.8,7.1,5.7,10.2-0.7
	c0.4-0.9,1.6-1.5,3.2-2.8c-0.6,2.5-4.2,5.6,1.2,5c1.1-1.3,2.1-2.8,4-3.2c6.3-3.8,11.8-8.6,16.3-14.4c0-0.2,0.2-0.4,0.4-0.4
	c1.7-3.2,4.6-5.8,7.9-5c5.8,1.5,8.1,0.9,12-3.5c3-3.4,5.6-7.1,9.5-9.8c5.2-3.7,11.5-4.9,17-7.8c4.2-2.2,8-5.9,13.4-4.5
	c3.2,1,6.5,1.8,9.8,2.4c3.3,0.5,4.3,2.4,5,5.3c0.7,3.1,0.2,7.5,5.8,6.4c0.7-0.1,1.1,0.6,1.1,1.4c0,4.4,1.4,9.7-0.5,13.1
	c-4.4,7.8-6.3,17.3-14,23.2c-1.7,1.5-2.8,3.5-3.1,5.7c2.9-0.9,5.8-0.5,7.3-3.4c2.2-4.5,6-7.1,10-10c6.3-4.5,13.4-8.6,17.3-15.5
	c2.7-4.7,7-6.3,11.1-7.3c4.2-0.9,8.3-2.2,12.2-3.8c4.4-1.9,6.9,0.4,9.4,3.3s0.5,5.2-0.8,7.6c-1.2,2.2-2.7,4.4-2.4,6.9
	c0.7,6.1,2.3,12,4.7,17.7c0.2,0.6,0.6,1.1,1.1,1.4c0.6,0.3,1.3,0,1.6-0.6c0,0,0-0.1,0.1-0.1c0.7-1.5-0.2-4.8,2.1-4.3
	c3.1,0.7,0.1,3.5,0.7,5.3c0.1,0.5,0.3,0.9,0.4,1.4c0.2,0.9,0,2.1,1.3,2.4s1.8-0.8,2.1-1.7c1.5-3.9,5.4-6.2,6.5-10.6
	c2.1-8.5,10.6-12.1,15.1-18.9c2.1-3.2,4-2.2,6.3,0.1c1.3,1.3,3.4,4,5.5,0.7c0.6-0.9,0.4-2.5,2.1-2.1c1.9,0.4,2,2,2,3.5
	c0.1,3.7-0.3,7.5,2,10.9c2-1.4,3.2-3.7,3-6.2c0-1.4-0.2-3,1.8-3.6c4.3-1.1,4.4-4.7,3.7-7.9s-0.2-6.5-1.3-9.8
	c-0.8-2.5,1.8-2.8,3.6-3.7c2.1-0.9-2.9-3.5,0.6-4.6c2.5-0.8,4.1-2.9,7-3.3c6.3-0.8,12.6-2.8,18.9-1.3c6.5,1.5,13.5,0.3,19.5,4.4
	c1.8,1.3,1.7,4.6,4.9,4.2c2.3-0.3,3.2,1.2,3.4,3.4c0,1,0,2.2,1.4,2.2s1.4-1.3,1.2-2.3c-1.8-8.3-3.5-16.7-5.7-24.9
	c-1.1-4.2-4-7.8,0.8-11.9c1.5-1.3,3.9-0.5,4.7-2.6c-3.4-1.5-7.3-0.7-10.2-2.2c-9-4.6-18.2-7.5-28.3-6.1c-4.8,0.7-9.6,1-14.4,0.9
	c-6.2-0.1-12.5,1.9-18.7,0.4c-4.7,0-9.3,0.2-14,0c-16-0.9-29.8,4.1-42,14.4c-6.7,5.7-13.9,10.8-21.5,15.4c-3.3,2-3.8,0.9-5.1-2.1
	c-2.5-5.8-1.3-10.1,3.8-13.6c8.4-5.8,14.5-14.1,22.1-20.8c-4.9-0.9-9.5-2.9-14.2-4.2c-13.6-3.6-27.8-3.2-41.5-6.3
	c-18.5-4.2-36.6-8.6-49.3-24.3c-1.5-1.9-2.6-1.6-4.5-0.3c-4.9,3.4-8.4,7.8-12.4,11.8c-1.1,1.1-1.8,1.8-3.2,0.8
	c-3.2-2.2-6-4.6-7.4-8.5c-0.3-1-0.9-2,0.2-2.7c4.2-2.5,7-6.6,10.6-9.7c4.7-4,8-7.9,5.8-15.5c-3.7-12.8-1.4-25.6,4.8-37.5
	c3.9-7.4,10.8-12.1,16.1-18.1c6.3-7.1,13.8-9.4,22.7-9.1c2,0.1,4.3,0.5,5.9-0.3c7.9-3.9,16.7-4.4,24.9-6.9c6.2-1.9,13.1-2,18.8-4.6
	c8.5-3.9,15.1-11,21.8-17.6c3.2-3.1,5.8-3.7,9.2,0.1c2.7,3-1.2,3.7-2.6,5.2c-1,0.9-1.8,1.9-2.5,3.1c-0.7,1.2-3,1.8-2,3.5
	s2.7,0.6,4.1,0.3c11.2-3,22.7-5,34.3-5.9c9.3-0.7,18.7-2.3,27.8-1.6c17.1,1.4,32.5,9.5,48.5,15.1c6.7,2.3,12.8,6,19.6,8
	c9.8,2.8,20,4.3,29.8,7c8.2,2.2,16.7,2.5,25,4c0.6,0.1,1.3-0.1,1.8-0.5c0.4-0.5,0.3-1.2-0.1-1.6c-0.1-0.1-0.1-0.1-0.2-0.1
	c-5.6-2.5-8.8-8.4-14.1-10.8c-5.7-2.6-9.2-7.1-12.9-11.3c-3.9-4.4-2-8.2,3.9-8.6c3-0.2,1.9-1.5,1.1-2.8c-2.4-3.9-4.7-7.7-1-12.1
	c0.3-0.4,0.5-0.9,0.5-1.4c-1.1-6.5,2.7-11.3,5.9-16.2c2.8-4.3,6.1-8.3,6.6-13.7c0.2-2.1,3.7-5,0.9-5.9c-2.5-0.8-3.3,3.4-4,5.8
	c-2.9,10.4-10.1,17.9-18.8,23c-11.9,6.9-25.6,7.4-39.1,7.5c-1.7,0-3.8,0-4.3-1.7s1.2-2.9,2.3-4.1c5-6,12.1-8.7,18.7-12.3
	c2.7-1.5,6.5-0.7,8.2-2.7c3.4-4,8-6,12.1-8.8c6.8-4.4,12.5-10.3,16.7-17.2c2.2-3.7,6.5-5.1,8.7-8.8c8.7-14.9,22-25.9,33.5-38.4
	c4.2-4.5,9.1-8.5,12.8-13.4c7.9-10.5,17.1-19.8,26.5-28.9l5.7-5.6c-0.2-1.5,0.4-2.1,1.9-1.9l23.9-23.3c2.3,0.4,3.2-1.5,4.4-2.8
	c7-6.8,13.7-14,21-20.5c13.5-12,26.2-24.9,38.9-37.8c13.8-13.9,26.3-29,39-44l0.1-0.1c3.4-2.3,6.4-5.1,9.1-8.2
	c0.7-0.6,1.4-1.2,2.1-1.9c0.9-0.8,1.6-1.9,2-3c1.2-2.9,1-6.2,0.5-9.2c-0.6-3.5-2.6-5.5-4.1-8.6c-1-2.1-1.3-2.9,0.1-4.6
	c1.2-1.4,3.6-2.4,5.1-3.4c0.6-0.4,1.1-0.9,1.5-1.4l0,0c17.8-10.8,37.2-18.1,57-24.2c16.8-5.2,34.1-8.2,51.5-10.5
	c2-0.3,4.4,0.1,6.5-0.4c1.6,0,3.3-0.1,4.9-0.2c5.2,0.3,10.3,0.6,15.5,0.6c0.3,0.1,0.6,0.1,0.9,0.1L1153,81c3.4,0,6.8,0.1,10.1,0.2
	c2.8,0.1,5.8,0.7,8.5-0.1c2.9,0.2,5.9,0.4,8.8,0.9v-38C1171.5,43.2,1162.4,42.2,1153.4,42z M435.9,544.5l0.5,0.2
	c0.4,0.2,0.9,0.3,1.3,0.6c0.4,0.2,0.7,0.4,1.1,0.7l0.3,0.2c0.3,0.2,0.6,0.5,0.8,0.8c0.2,0.2,0.3,0.4,0.5,0.5c0.9,1.2,1.7,2.6,2.2,4
	c0.3,0.7,0.6,1.3,0.9,2c-1.6,0-3.1-0.6-4.1-1.8l-0.3-0.4c-0.1-0.2-0.2-0.3-0.3-0.5v-0.1v-0.1c-0.1-0.2-0.2-0.3-0.2-0.5
	c-0.2-0.4-0.3-0.7-0.4-1.1s-0.2-0.5-0.3-0.7s-0.2-0.6-0.3-0.9c-0.1-0.2-0.1-0.3-0.2-0.4l0,0c0-0.1,0-0.1-0.1-0.2l-0.1-0.2l-0.1-0.2
	c-0.1-0.1-0.1-0.3-0.2-0.4l-0.3-0.5C436.5,545.2,436.3,544.9,435.9,544.5L435.9,544.5L435.9,544.5z M434.3,553.2l-0.2,0.2l-0.1-0.3
	L434.3,553.2z M410.9,591.3c0.1,0,0.3,0.1,0.4,0.2c0.1,0,0.1,0.1,0.1,0.1l0.3,0.3l0,0c0.1,0.1,0.2,0.2,0.3,0.3l0,0
	c-0.3,0.4-0.6,0.9-0.9,1.3c-0.1,0.2-0.2,0.4-0.4,0.5c0,0,0,0.1-0.1,0.1c-0.1,0.2-0.3,0.3-0.5,0.5c-6,5.9-12,11.7-18,17.6l-6,5.9
	l-0.3,0.3c-0.3,0.3-0.6,0.7-1,0.9c-0.2,0.1-0.4,0.2-0.5,0.2c-0.4,0.1-0.9,0-1.2-0.4l-0.1-0.1c-0.1-0.1-0.2-0.3-0.3-0.4l0,0
	c-0.1-0.1-0.1-0.2-0.1-0.2c-0.1-0.4,0-0.8,0.3-1c0.1-0.1,0.2-0.2,0.3-0.2c0.5-0.3,0.9-0.6,1.3-0.9l5.9-5.8
	c6-5.9,11.9-11.7,17.9-17.5C408.9,592.2,409.5,591.1,410.9,591.3L410.9,591.3z M406.7,569.1c0.3,0.2,0.6,0.4,0.9,0.7
	c0.2,0.2,0.4,0.4,0.6,0.7c0.1,0.2,0.2,0.3,0.3,0.5c0.8,1.5,1.4,3.2,1.7,4.9l0,0c-0.2-0.1-0.4-0.2-0.6-0.3l-0.6-0.3
	c-0.4-0.2-0.8-0.5-1.1-0.8c-0.2-0.2-0.4-0.3-0.7-0.5l-0.5-0.4c0,0-0.1-0.1-0.1-0.1l-0.2-0.2c-0.1,0-0.1-0.1-0.2-0.2
	c-0.1-0.1-0.1-0.1-0.2-0.2c-0.1-0.1-0.1-0.1-0.2-0.2c-0.2-0.2-0.3-0.4-0.5-0.5l0,0c-0.1-0.2-0.2-0.3-0.4-0.5
	c-0.1-0.1-0.1-0.2-0.2-0.2l-0.1-0.2l0-0.1l-0.1-0.1c-0.1-0.1-0.2-0.3-0.2-0.4c-0.1-0.2-0.2-0.4-0.3-0.6c-0.1-0.3-0.2-0.5-0.3-0.8
	c-0.2-0.5-0.3-0.9-0.4-1.4C404.6,568.1,405.7,568.5,406.7,569.1L406.7,569.1z M384,610.7c1-1.1,2.1-2.2,3.1-3.3
	c0.5-0.5,1.1-1.1,1.6-1.6l1.6-1.6l0,0l0.6-0.6l2.6-2.5c1.1-1,2.2-2.1,3.3-3.1c1.1-1,2.2-2.1,3.4-3.1c1.1-1,2.1-1.9,3.2-2.8
	c0.1-0.1,0.1-0.2,0.1-0.3l0,0l0.1-0.1l0,0c0,0,0.1-0.1,0.1-0.1l0,0l0.6-0.7c0.1,0.1,0.1,0.3,0,0.5c0,0,0,0,0,0.1l0,0h0
	c-0.1,0.1-0.2,0.1-0.4,0.1h-0.1l-0.2,0.2l-0.2,0.2l0,0c-0.1,0.3-0.3,0.6-0.5,0.8s-0.3,0.5-0.5,0.8v0.1l0,0c-0.2,0.3-0.4,0.5-0.5,0.8
	l-0.6,0.8c-0.2,0.2-0.4,0.5-0.6,0.7s-0.4,0.4-0.6,0.6c-0.2,0.3-0.4,0.5-0.7,0.7c-0.2,0.2-0.4,0.5-0.7,0.7c-1.5,1.5-3.1,3-4.7,4.4
	l-1,1c-4.9,4.8-10,9.4-15.3,13.8C379.8,615,381.9,612.9,384,610.7z M373,654.5l-0.1,0.1L373,654.5L373,654.5L373,654.5z
	 M373.2,654.4L373.2,654.4l1.3-1.1L373.2,654.4z M382.4,643.9c-3.7,3.3-8.9,4.9-10.8,10.1c0.1,0.1,0.2,0.3,0.3,0.4
	c-0.1-0.1-0.2-0.2-0.3-0.4c-0.3-0.1-0.5-0.2-0.8-0.2l0,0c-0.2-0.1-0.5-0.2-0.7-0.2H370l-0.7-0.3l0,0l-0.3-0.2l-0.3-0.2
	c-0.2-0.1-0.4-0.2-0.6-0.3c-0.4-0.2-0.7-0.5-1.1-0.8c-0.2-0.1-0.3-0.3-0.5-0.4c-2-1.9-2.3-4.5-0.8-7.2l0,0c0.2-0.3,0.4-0.7,0.6-1
	c0.3-0.3,0.5-0.7,0.8-1l0.1-0.1l0,0c0.1-0.1,0.2-0.2,0.3-0.4l0.4-0.5c0.3-0.6,0.8-1.2,1.3-1.7c0.3-0.3,0.6-0.6,0.9-1l0.6-0.7
	c1.1-1.3,2.2-2.7,3.9-2.7c0.2,0,0.4,0,0.6,0.1c0.1,0,0.2,0,0.3,0.1c0.1,0,0.2,0.1,0.3,0.1l0,0c0.4,0.2,0.9,0.3,1.3,0.6
	c1.1,0.5,2,1.1,2.9,1.9c0.1,0.1,0.3,0.3,0.4,0.4c0.1,0.1,0.3,0.3,0.4,0.4c0.1,0.1,0.2,0.2,0.2,0.3l0.2,0.3c0.1,0.1,0.1,0.2,0.2,0.3
	c0.1,0.1,0.1,0.2,0.2,0.3c0.1,0.1,0.1,0.3,0.2,0.4c0.1,0.2,0.2,0.5,0.3,0.7c0.1,0.4,0.2,0.8,0.3,1.2c0,0.2,0.1,0.4,0.1,0.7
	c0,0.1,0,0.2,0,0.3C382.4,643.4,382.4,643.7,382.4,643.9c0.3,0.1,0.6,0.2,0.8,0.4C383,644.1,382.7,644,382.4,643.9L382.4,643.9z
	 M384.8,630.6l0.5,0.5l0.2,0.2l0.4,0.3c0.8,0.7,1.3,1.6,1.4,2.7l0,0l-0.5-0.1l-0.2-0.1h-0.2h-0.1L386,634c0,0-0.1,0-0.1,0
	c-0.1,0-0.2-0.1-0.3-0.1l0,0c-0.1,0-0.2-0.1-0.3-0.1l-0.1,0l-0.1-0.1l-0.1-0.1H385c-0.1,0-0.2-0.1-0.2-0.2l-0.3-0.2
	c-0.2-0.2-0.5-0.4-0.7-0.6c-0.4-0.4-0.9-0.9-1.2-1.4c-0.4-0.5-0.8-1-1.1-1.5c-0.3-0.4-0.5-0.7-0.7-1.1c-0.2-0.4-0.4-0.7-0.7-1.1
	c-0.5-0.8-1.4-1.2-2.4-1.2l0,0c-0.2,0-0.3,0-0.5,0l0,0c-0.1,0-0.2-0.1-0.3-0.1l0,0c0,0-0.1-0.1-0.1-0.1c0,0-0.1-0.1-0.1-0.1
	c-0.2-0.4,0.3-1.1,0.5-1.6l0.1-0.3l0.2-0.2c0-0.1,0.1-0.1,0.2-0.2c0.1-0.1,0.2-0.1,0.3-0.2h0.1c0.1,0,0.2,0,0.4,0l0.2,0.1
	c0.1,0.1,0.2,0.1,0.3,0.2l0.2,0.1c0.1,0.1,0.2,0.2,0.3,0.3c0.2,0.2,0.4,0.5,0.5,0.7c0.1,0.1,0.2,0.3,0.3,0.5l0.3,0.5
	c0.1,0.1,0.1,0.2,0.2,0.2c0.1,0.1,0.2,0.3,0.4,0.4l0.1,0.1c0.1,0.1,0.2,0.2,0.3,0.2c0.1,0.1,0.2,0.1,0.4,0.2l0,0
	c0.1,0,0.3,0.1,0.4,0.1h0.5h0.3c0.2,0,0.4-0.1,0.6-0.2c0,0,0-0.1,0-0.1h0.1c-0.1-1,0-2,0.4-3c0.1-0.4,0.3-0.7,0.5-1
	c0.1-0.2,0.2-0.3,0.4-0.5c0.1-0.1,0.1-0.2,0.2-0.2c0.1-0.1,0.1-0.2,0.2-0.2l0,0l8.4-7.4l7.4-6.6c1.4-1.2,2.8-2.5,4.2-3.7l4.2-3.7
	l0.2-0.2l0.2-0.2c0.8-0.7,1.6-1.6,2.5-1.4c0.2,0,0.4,0.1,0.5,0.2l0,0c0.1,0.1,0.2,0.1,0.2,0.2l0,0c0.1,0.1,0.1,0.2,0.2,0.2l0,0
	c0.2,0.2,0.3,0.5,0.2,0.7v0c0,0.2,0,0.4-0.1,0.5c-0.3,0.7-0.8,1.3-1.4,1.9l-0.1,0.2l-0.1,0.1c-1,1-1.9,2-2.9,2.9
	c-2.9,3-5.9,5.9-8.8,8.9c-3.9,3.9-7.8,7.9-11.6,11.9c-0.5,0.6-1.2,0.9-1.9,1c-0.1,0-0.2,0-0.4,0l-0.4-0.1c-0.4-0.1-0.7-0.2-1.1-0.4
	l-0.4-0.1c-0.1,0-0.2-0.1-0.4-0.1c-0.1,0-0.2-0.1-0.3-0.1l0,0v0.1h-0.1l0,0l-0.1,0.2l-0.1,0.2C383,628.8,383.7,629.7,384.8,630.6
	L384.8,630.6z M423.9,602.6c-0.2,0.6-0.5,1.2-1,1.7c-0.2,0.3-0.5,0.5-0.8,0.7l-0.5,0.4l-0.4,0.3c-0.9,0.8-1.8,1.5-2.7,2.3l-0.4,0.3
	l-0.5,0.4l-0.3,0.3l-0.3,0.3l-0.4,0.4l-0.4,0.4l0,0l-1.9,1.8c-0.6,0.6-1.3,1.2-1.9,1.8c-1.9,1.8-3.8,3.7-5.7,5.5
	c-3,2.9-6.1,5.8-9.3,8.6l-0.2,0.2l-0.2,0.2l-0.4,0.5l-0.4,0.5c-0.1,0.1-0.2,0.2-0.3,0.3c-0.7,0.9-1.6,1.5-2.8,0.5l-0.2-0.2
	c-0.6-0.4-0.8-1.1-0.6-1.8c0.1-0.2,0.2-0.4,0.4-0.6l0.2-0.2l0.2-0.2l0.1-0.1c0.6-0.5,1.3-0.9,1.7-1.4c7.2-7,14.5-14,22-20.8
	c0.2-0.2,0.5-0.5,0.7-0.7c0.5-0.5,0.9-1,1.3-1.5c0.3-0.3,0.5-0.7,0.8-1l0.4-0.5c0.3-0.3,0.5-0.7,0.8-1l0.6-0.8l0.7-0.8l0,0
	c0.3,0.3,0.5,0.6,0.8,0.9c0.2,0.3,0.4,0.5,0.5,0.8C424,600.9,424.1,601.8,423.9,602.6L423.9,602.6z M424.7,543.6
	c-0.2-0.4-0.5-0.8-0.8-1.1l-0.8-1.1l0,0l0,0c0.9,0.3,1.8,0.7,2.7,1.2c0.5,0.3,1,0.7,1.5,1c0.2,0.2,0.5,0.4,0.7,0.6
	c0.2,0.2,0.4,0.4,0.6,0.6s0.4,0.4,0.6,0.7c1,1.2,1.8,2.5,2.6,3.8c0.5,0.8,0.9,1.6,1.4,2.4l0,0c-0.3-0.1-0.6-0.3-0.9-0.4
	s-0.5-0.3-0.8-0.5c-0.5-0.3-1-0.7-1.5-1.1c-0.5-0.4-0.9-0.8-1.4-1.2c-1.1-1.1-2-2.2-2.9-3.4C425.3,544.5,425,544,424.7,543.6
	L424.7,543.6z M439.1,585.6c-0.1,0.1-0.2,0.2-0.2,0.2c-0.2,0.1-0.4,0.3-0.5,0.4l-1,0.7c-1,0.7-2,1.4-3,2.2c-3.7,3-6.4,2.2-8.1-2.4
	c-0.3-0.7-0.6-1.6-0.2-2c0,0,0,0,0,0s0,0,0.1,0c0.1-0.1,0.2-0.1,0.3-0.1h0.3h0.4c0.8,0,1.6-0.3,2.2-0.8c0.3-0.3,0.5-0.5,0.7-0.8
	l0.3-0.4l0.3-0.5c0.3-0.4,0.6-0.8,0.9-1.1c1.2-1.1,2.4-2.3,4.4-1.3l0.3,0.2c1.4,1,2.6,2.3,3.5,3.8
	C439.8,584.2,439.5,585,439.1,585.6L439.1,585.6z M444.4,582.6c-0.2,0.3-0.5,0.5-0.8,0.6l-0.3,0.1h-0.1l0,0c-0.1,0-0.2,0-0.3-0.1
	l0,0c-0.1,0-0.1,0-0.2-0.1l-0.1-0.1c-0.1-0.1-0.2-0.1-0.3-0.2h-0.1h-0.1c-0.2-0.1-0.3-0.2-0.4-0.3c-0.1-0.1-0.3-0.2-0.4-0.3
	l-0.1-0.1c0,0,0,0-0.1-0.1l-0.2-0.1l-0.3-0.2l-0.1-0.1l-0.4-0.4l-0.6-0.5l0,0c-0.3-0.2-0.6-0.5-0.9-0.8s-0.8-0.7-1.2-1.1l-0.3-0.3
	l-0.3-0.3l-0.3-0.3l-0.6-0.6c-0.2-0.2-0.4-0.4-0.5-0.6s-0.4-0.5-0.6-0.7l-0.3-0.3l0,0l-0.3-0.3l0,0l-0.3-0.4l-0.3-0.3v-0.1
	c-0.1-0.1-0.2-0.2-0.3-0.4l0,0c-0.1-0.2-0.3-0.4-0.4-0.6l-0.1-0.1l-0.1-0.1c0,0,0-0.1,0-0.1c0,0,0-0.1,0-0.1c0,0,0-0.1,0-0.1l0,0
	c0,0,0,0,0-0.1c0,0,0-0.1,0-0.1l0,0l0,0c0.2-0.4,0.5-0.8,0.8-1.3c0.5-0.7,1-1.4,1.6-2c0.2-0.2,0.5-0.5,0.7-0.7c0.7-0.7,1.7-1,2.7-1
	c1.9,0.1,3.8,1,5.1,2.4c0.3,0.3,0.5,0.5,0.8,0.8c0.3,0.4,0.6,0.8,0.9,1.2c0.7,1.1,1.4,2.2,2,3.4c1.3,2.8-2.2,4.2-3.3,6.4
	L444.4,582.6z M634.7,401.5c0,0.4-0.1,0.7-0.2,1.1c0,0.2-0.1,0.4-0.2,0.5c-0.1,0.4-0.3,0.8-0.5,1.2c-0.1,0.1-0.2,0.3-0.2,0.4
	s0,0.2,0.1,0.3c0.1,0.3,0.1,0.7,0.1,1c0,0,0,0,0,0.1s0,0.1,0,0.1c0,0.1,0,0.2-0.1,0.3c0,0.1-0.1,0.3-0.2,0.4
	c-0.1,0.1-0.1,0.2-0.2,0.3c-0.1,0.1-0.2,0.2-0.3,0.3c-0.5,0.3-1,0.6-1.6,0.7l0,0c0,0-0.1,0.1-0.1,0.1l-0.1,0.1c-0.3,0.3-0.6,0.7-1,1
	l0,0c-0.3,0.3-0.6,0.6-1,0.9c-0.3,0.3-0.7,0.5-1,0.8c-0.3,0.2-0.7,0.4-1,0.6c-0.3,0.2-0.7,0.3-1,0.5c-0.3,0.1-0.7,0.2-1,0.3
	c-0.3,0.1-0.7,0.2-1,0.2c-0.3,0-0.7,0.1-1,0.1h-0.5l-0.5,0l-0.4-0.1l-0.2,0l-0.3-0.1c-0.2,0-0.3-0.1-0.4-0.1c-0.1,0-0.3-0.1-0.4-0.1
	L620,412c-0.3-0.1-0.6-0.3-0.8-0.5l0,0l-0.3-0.3l0,0c-0.1-0.1-0.2-0.2-0.3-0.2l-0.1-0.1c-0.1-0.1-0.2-0.2-0.3-0.3
	c-0.4-0.4-0.7-0.8-1-1.2c-0.1-0.1-0.2-0.3-0.3-0.5l-0.8-0.6l-0.8-0.6c-5.5-4.2-6.8-9.1-3.9-14.5s8.9-7.9,13.7-5.3
	c1.5,0.8,3,1.8,4.3,3c0.3,0.2,0.5,0.5,0.8,0.7s0.5,0.5,0.8,0.8s0.5,0.5,0.7,0.8s0.5,0.5,0.7,0.8c0.5,0.7,1,1.4,1.4,2.2
	c0.2,0.3,0.3,0.6,0.4,0.9l0,0c0.3,0.7,0.5,1.4,0.6,2.1c0,0.1,0,0.3,0,0.4c0,0.1,0,0.3,0,0.4l0,0
	C634.8,400.5,634.8,401.1,634.7,401.5z M655.5,373l-0.7,0.7c-2.6,2.6-7,6.5-7.5,6.5h-0.1l-0.2-0.1c-0.1,0-0.2-0.1-0.3-0.1
	c-0.1,0-0.1-0.1-0.2-0.1l0,0c0-0.1-0.1-0.1-0.1-0.2c0-0.1-0.1-0.1-0.1-0.2c-0.1-0.5,0-1,0.4-1.4l0,0l2-1.9l2-1.9
	c1.3-1.2,2.6-2.5,4-3.6c0.6-0.5,1.3-0.7,1.8-0.3c0.1,0,0.1,0.1,0.1,0.1c0.1,0.1,0.2,0.3,0.2,0.4c0,0.1,0,0.2,0.1,0.3
	C657,371.5,656.4,372.1,655.5,373z M727.7,284.9c0-0.1,0-0.1,0.1-0.1c0-0.2-0.1-0.4-0.1-0.6c0.8,0.2,0.3,0.4,0.1,0.6
	C727.8,284.8,727.8,284.9,727.7,284.9L727.7,284.9L727.7,284.9L727.7,284.9L727.7,284.9z M754.5,308.6c-12.5,11.4-25,22.9-37.4,34.4
	c-9,8.3-17.9,16.8-26.9,25.2c-3.9,3.6-6.3-0.3-8.5-2.2c-5.8-4.9-10.1-11.3-16.8-15.3c-2.3-1.4-3-4.3-1.5-7c1.7-3,3.8-5.6,7.3-6.8
	c0,0,0-0.1,0-0.1h0.1c0-0.1,0-0.2,0-0.4c0-0.1,0-0.1,0-0.2c0-0.1,0-0.2,0-0.3c0-0.1,0-0.1,0.1-0.2c0,0,0,0,0-0.1c0,0,0-0.1,0-0.1
	c0-0.1,0.1-0.1,0.1-0.2v0c0.1-0.1,0.1-0.1,0.2-0.2c0.1-0.1,0.2-0.1,0.2-0.2h0c0.1,0,0.2-0.1,0.3-0.1l0,0c0.1,0,0.3,0,0.4,0h0.4v-0.1
	l0,0h0.1c2.6-5.1,8-7.4,11.4-11.7c0.3-0.4,0.8-0.8,1.2-1.1c0.3-0.2,0.6-0.4,1-0.6l1-0.6l0.5-0.3l0,0c2,4.3,3.1,4.3,7,0.8
	c1.3-1.2,2.3-4.5,4.4-3.1c2.3,1.5,4.1,4.3,5.5,6.9c0.7,1.3-1.5,2.4-2.5,3.3c-6.3,6.1-6.2,11.1,0.2,17.1c2.6,2.4,5.3,1.8,7.8,0.2
	c2.2-1.4,4-3.5,5.9-5.3c0.9-0.9,1.6-1.9,0.7-3s-2.1-0.6-3.2,0c-0.6,0.3-1.1,0.8-1.6,1.2c-4.8,4-6.5,3.6-9.7-1.9
	c-1.1-1.9,0-2.9,1.1-3.7c3.6-2.4,5.5-6.7,4.8-10.9c-0.6-3.9-6-7.7-11.3-8.8c1.7-3.6,5-5.9,7.2-9c0.4-0.6,1-1.5,2-1s0.9,1.4,0.8,2.1
	c-1,4.9,3.1,7.4,5.2,10.8c0.7,1.1,1.8,2.2,3.3,1.2c1.2-0.9,1.1-2.4,0.5-3.6c-1.4-2.8-3.7-5-5.9-7.5c0.7-0.5,1.2-0.9,1.7-1.3
	c5.5-3.9,5.6-3.9,10.1,1.3c1.1,1.3,2.2,2.9,4.1,1.4c1.3-0.9,1.7-2.7,0.9-4c-0.2-0.3-0.4-0.5-0.7-0.8c-2.8-2.3-3.7-7.5-9.1-6
	c-1.1,0.3-1.5-0.8-1.2-2c0.9-3,8.5-9.3,12-9.8l-0.3,0.6l0,0c-0.2,0.5-0.4,0.9-0.5,1.4c-0.4,2-0.6,4.1-0.3,6.1c0.1,1.5,0,3.5,1.8,3.6
	c2,0.1,1.9-2,1.8-3.4s-0.5-2.7,1.2-3.6c1.7-0.3,0.4,4.6,3.1,2.4c1.7-1.5,2.1-4,0.9-6c-1.3-2.4-3.4-4.1-7.4-3.4
	c3.4-3.3,6.3-4,8.7-1.1c5.7,6.9,12.6,12.5,18.3,19.4C757.7,304.2,757.3,306,754.5,308.6L754.5,308.6z M766.3,272.7
	c0,0.2,0.1,0.3,0.1,0.5s0.1,0.2,0.1,0.4l0.2,0.7l0.2,0.6c0,0.1,0.1,0.2,0.1,0.4s0.2,0.5,0.3,0.8c-2.2-1.3-4.3-2.5-6.3-1.9l-0.4,0.1
	c-0.5,0.2-1,0.5-1.3,0.9c-0.1,0.1-0.1,0.1-0.2,0.2l-0.2,0.2c-0.3,0.4-0.6,0.8-0.8,1.2c0.1-3.5,4.7-5.7,0.5-8.6
	c-0.5-0.4,0.7-1.7,1.2-1.3l0,0l0,0l0,0l0,0l0.3,0.4l0.3,0.4c2.4,2.2,4.6-0.1,7.6-1.7c-0.4,0.7-0.7,1.4-1,1.9l-0.5,1.1
	c-0.1,0.2-0.2,0.5-0.3,0.7l-0.2,0.6C766,271,766,271.9,766.3,272.7L766.3,272.7z M799.3,238.6c0,0.1,0,0.1,0,0.2l0,0
	c0,0.1,0,0.2,0,0.4l0,0c0,0.5-0.1,0.9-0.3,1.4c-0.1,0.2-0.1,0.5-0.2,0.7c-0.4,1.1-1,2.1-1.7,3.1c-0.4,0.5-0.8,0.9-1.2,1.4
	c-2.1,2.1-4.8,3.5-7.7,4.1l-0.6,0.1c-0.4,0.1-0.8,0.1-1.3,0.1c-0.2,0-0.5,0-0.7,0h-0.6c-0.2,0-0.5,0-0.7-0.1c0,0-0.1,0-0.2,0
	c-0.2,0-0.3-0.1-0.5-0.1c-0.2-0.1-0.4-0.1-0.7-0.2H783h-0.1c-0.2-0.1-0.4-0.2-0.6-0.2l-0.4-0.2c-0.4-0.2-0.7-0.4-1.1-0.7
	c-0.3-0.2-0.6-0.5-0.8-0.7s-0.5-0.5-0.8-0.8l0,0c-0.2-0.2-0.4-0.5-0.5-0.7l0,0c-0.3-0.4-0.6-0.9-0.8-1.4c0-0.1-0.1-0.2-0.1-0.3
	l-0.1-0.2l0,0c-0.1-0.2-0.1-0.3-0.2-0.5s-0.1-0.3-0.2-0.5v-0.1c-0.1-0.2-0.1-0.4-0.2-0.6l0,0c-0.1-0.5-0.2-1.1-0.3-1.6
	c0-0.4,0-0.9,0-1.4l0,0c0.3-3,1.7-5.8,3.9-7.8c0.3-0.2,0.5-0.5,0.8-0.7c0.3-0.2,0.5-0.4,0.8-0.6l0.4-0.3c0.3-0.2,0.6-0.3,0.9-0.5
	s0.6-0.3,0.9-0.4c1-0.4,2.1-0.6,3.1-0.5c0.5,0,1,0.1,1.5,0.2l1,0.3c0.7,0.2,1.4,0.5,2,0.8c0.3,0.2,0.7,0.3,1,0.5l0.5,0.3
	c0.5,0.3,0.9,0.6,1.4,1c0.3,0.2,0.6,0.4,0.8,0.7l0,0c0.3,0.2,0.5,0.5,0.8,0.7s0.2,0.2,0.4,0.4c0.5,0.5,0.9,1,1.2,1.6l0,0
	c0.1,0.1,0.2,0.3,0.2,0.4c0.1,0.1,0.2,0.3,0.2,0.4c0.1,0.1,0.1,0.3,0.2,0.4c0.1,0.1,0.1,0.2,0.2,0.4c0,0,0,0.1,0,0.1
	c0,0.1,0.1,0.2,0.1,0.3c0,0.1,0.1,0.3,0.1,0.4C799.4,238.1,799.4,238.4,799.3,238.6C799.4,238.6,799.3,238.6,799.3,238.6
	L799.3,238.6z M968,111c0,0.2,0,0.4,0,0.6C967.9,111.4,967.9,111.2,968,111L968,111L968,111z M976.7,122.3l-0.6-0.6
	c0.1-0.1,0.2-0.2,0.3-0.4c0.2,0.2,0.4,0.4,0.6,0.6C977,121.9,976.8,122.2,976.7,122.3L976.7,122.3z"/>
<path class="st3" d="M371.8,654.4c-0.1-0.1-0.2-0.2-0.3-0.4l0,0C371.6,654.1,371.7,654.3,371.8,654.4z"/>
<path class="st3" d="M373,654.5L373,654.5l-0.1,0.1L373,654.5L373,654.5z"/>
<path class="st3" d="M374.4,653.2l-1.3,1.1l0,0L374.4,653.2z"/>
<path class="st1" d="M410.2,575.8L410.2,575.8c-0.2-0.1-0.4-0.2-0.6-0.3l-0.6-0.3c-0.4-0.2-0.8-0.5-1.1-0.8
	c-0.2-0.2-0.4-0.3-0.7-0.5l-0.5-0.4l0,0l-0.1-0.1l-0.2-0.2c-0.1,0-0.1-0.1-0.2-0.2c-0.1-0.1-0.1-0.1-0.2-0.2
	c-0.1-0.1-0.1-0.1-0.2-0.2c-0.2-0.2-0.3-0.4-0.5-0.5l0,0c-0.1-0.2-0.2-0.3-0.4-0.5c-0.1-0.1-0.1-0.2-0.2-0.2l-0.1-0.2
	c0,0,0-0.1,0-0.1l0,0l-0.1-0.1c-0.1-0.1-0.2-0.3-0.2-0.4c-0.1-0.2-0.2-0.4-0.3-0.6c-0.1-0.3-0.2-0.5-0.3-0.8
	c-0.2-0.5-0.3-0.9-0.4-1.4c1.1,0.2,2.2,0.7,3.2,1.2c0.3,0.2,0.6,0.4,0.9,0.7c0.2,0.2,0.4,0.4,0.6,0.7c0.1,0.2,0.2,0.3,0.3,0.5
	C409.4,572.5,409.9,574.1,410.2,575.8z"/>
<path class="st0" d="M633.6,406.1C633.6,406.1,633.6,406.1,633.6,406.1c0,0.1,0,0.1,0,0.1c0,0.1,0,0.2-0.1,0.3
	c0,0.1-0.1,0.3-0.2,0.4c-0.1,0.1-0.2,0.2-0.2,0.3c-0.1,0.1-0.2,0.2-0.3,0.3c-0.5,0.3-1,0.6-1.6,0.7l0,0c-1.1-2.4,0-3.3,2.2-3.4
	c0,0.1,0.1,0.2,0.1,0.3C633.6,405.4,633.7,405.8,633.6,406.1z"/>
<path class="st2" d="M670.7,336.8L670.7,336.8L670.7,336.8L670.7,336.8z"/>
<path class="st2" d="M672.6,334.9c0,1.3-0.8,1.8-1.9,1.9c0-0.1,0-0.2,0-0.4c0-0.1,0-0.1,0-0.2c0-0.1,0-0.2,0-0.3
	c0-0.1,0-0.1,0.1-0.2c0,0,0,0,0-0.1c0,0,0-0.1,0-0.1c0-0.1,0.1-0.1,0.1-0.2v0c0.1-0.1,0.1-0.1,0.2-0.2c0.1-0.1,0.2-0.1,0.2-0.2h0
	c0.1,0,0.2-0.1,0.3-0.1l0,0c0.1,0,0.3,0,0.4,0L672.6,334.9z"/>
<path class="st2" d="M672.6,334.9L672.6,334.9L672.6,334.9L672.6,334.9z"/>
<path class="st1" d="M403.8,591.6l-0.2,0.2l-0.1-0.1l0,0l0.1-0.1l0,0C403.7,591.7,403.7,591.6,403.8,591.6L403.8,591.6z"/>
<path class="st1" d="M404.5,591.3C404.5,591.3,404.5,591.3,404.5,591.3L404.5,591.3L404.5,591.3c-0.2,0.1-0.3,0.2-0.4,0.2h-0.1
	l0.6-0.7C404.6,590.9,404.6,591.1,404.5,591.3z"/>
<path class="st3" d="M977,121.9c0,0-0.2,0.2-0.2,0.4l-0.6-0.6c0.1-0.1,0.2-0.2,0.3-0.4C976.6,121.5,976.8,121.7,977,121.9z"/>
<path class="st3" d="M968,111c0,0.2,0,0.4,0,0.6C968,111.4,968,111.2,968,111L968,111L968,111z M785.1,250.1c-0.3,0-0.7-0.1-1-0.1
	h0.2c0,0,0.1,0,0.2,0C784.6,250,784.9,250,785.1,250.1l0.6-0.1L785.1,250.1z M782.9,249.7L782.9,249.7c0.3,0.1,0.5,0.1,0.8,0.2
	l0.2,0.1C783.6,249.8,783.3,249.8,782.9,249.7L782.9,249.7z M780.8,248.5c0.3,0.3,0.7,0.5,1.1,0.7
	C781.5,248.9,781.1,248.7,780.8,248.5L780.8,248.5z M777.6,244.3c-0.1-0.2-0.2-0.4-0.2-0.6C777.4,243.9,777.5,244.1,777.6,244.3
	L777.6,244.3l0.1,0.2C777.6,244.4,777.6,244.4,777.6,244.3L777.6,244.3z M777.2,243.2c-0.1-0.2-0.1-0.4-0.2-0.6
	C777,242.8,777.1,243,777.2,243.2L777.2,243.2c0,0.2,0.1,0.4,0.2,0.6C777.3,243.5,777.2,243.4,777.2,243.2z M733.9,253.1
	c-0.4,0.4-0.8,0.8-1.1,1.2c0,0.2,0,0.4,0,0.6c1,0.2,1.9-0.5,2.1-1.4c0-0.1,0-0.3,0-0.4C734.6,253.1,734.2,253.1,733.9,253.1
	L733.9,253.1z M727.6,284.2c0,0.2,0.1,0.4,0.1,0.6C727.9,284.6,728.4,284.4,727.6,284.2L727.6,284.2z M727.7,284.8
	c0,0-0.1,0.1-0.1,0.1l0,0l0,0.1h0.1l0,0C727.8,284.9,727.8,284.9,727.7,284.8L727.7,284.8z M672.6,334.8L672.6,334.8L672.6,334.8
	L672.6,334.8l0.1,0l0,0L672.6,334.8z M670.6,336.8c0,0,0,0.1,0,0.1h0.1L670.6,336.8L670.6,336.8z M616.6,408.9L616.6,408.9
	c0.1,0.2,0.2,0.3,0.3,0.5C616.8,409.3,616.7,409.1,616.6,408.9L616.6,408.9z M615.7,408.4l0.8,0.6l0,0L615.7,408.4z M443.3,583.2
	l0.3-0.1L443.3,583.2z M440.9,582l-0.4-0.3l-0.4-0.3l0.4,0.4l0.1,0.1L440.9,582l0.2,0.1L440.9,582z M441.3,582.3
	c0.1,0.1,0.2,0.2,0.4,0.3c0.1,0.1,0.3,0.2,0.4,0.3h0.1C441.9,582.7,441.6,582.5,441.3,582.3L441.3,582.3z M442.9,583.3
	c0.1,0,0.2,0.1,0.3,0.1l0,0C443.1,583.3,443,583.3,442.9,583.3L442.9,583.3z M438.8,550.8L438.8,550.8L438.8,550.8L438.8,550.8
	L438.8,550.8z M435.9,544.6L435.9,544.6z M434.2,589c1-0.8,2-1.5,3-2.2C436.2,587.5,435.2,588.2,434.2,589z M434,553.1l0.1,0.3
	l0.2-0.2L434,553.1z M432.2,551.2c0.3,0.2,0.6,0.3,0.9,0.4l0,0L432.2,551.2z M432.7,573C432.7,573,432.7,573,432.7,573
	C432.7,573,432.7,573,432.7,573C432.7,572.9,432.7,573,432.7,573z M432.7,572.8L432.7,572.8L432.7,572.8c0.2-0.4,0.5-0.8,0.8-1.3
	C433.2,572,433,572.4,432.7,572.8L432.7,572.8z M432.7,573.1C432.7,573.1,432.7,573.2,432.7,573.1c0,0.1,0,0.2,0,0.2
	C432.8,573.2,432.7,573.1,432.7,573.1L432.7,573.1z M423.1,541.3L423.1,541.3l0.8,1.1C423.6,542,423.4,541.6,423.1,541.3
	L423.1,541.3z M422.1,605l-0.5,0.4L422.1,605c0.3-0.2,0.5-0.5,0.8-0.7C422.6,604.5,422.3,604.8,422.1,605z M416.1,610.1L416.1,610.1
	l0.4-0.4L416.1,610.1z M422.3,598.4l-0.7,0.8L421,600C421.4,599.5,421.9,598.9,422.3,598.4L422.3,598.4z M411.9,602.9L411.9,602.9
	l0.1-0.1C412,602.8,411.9,602.8,411.9,602.9L411.9,602.9z M409.6,575.5c0.2,0.1,0.4,0.2,0.6,0.3l0,0L409.6,575.5z M404.8,571.2
	c-0.1-0.2-0.2-0.4-0.3-0.5C404.6,570.8,404.6,570.9,404.8,571.2L404.8,571.2L404.8,571.2l0.2,0.3L404.8,571.2z M406.7,573.5
	L406.7,573.5C406.6,573.5,406.6,573.5,406.7,573.5l0.5,0.4C407,573.8,406.8,573.6,406.7,573.5L406.7,573.5z M393,629.7
	c-0.5-0.4-0.8-1.1-0.6-1.8C392.2,628.5,392.4,629.2,393,629.7l0.2,0.2L393,629.7z M386.2,618.2l-0.3,0.3L386.2,618.2l6-5.9
	L386.2,618.2z M385.7,633.9L385.7,633.9c0.1,0,0.2,0.1,0.3,0.1L385.7,633.9z M386.5,634.2l0.2,0.1l0.5,0.1l0,0
	C386.9,634.3,386.7,634.2,386.5,634.2L386.5,634.2z M384.9,619.4c0.4-0.3,0.7-0.6,1-0.9C385.6,618.8,385.2,619.2,384.9,619.4
	L384.9,619.4z M383,619.2c-0.1-0.2-0.2-0.3-0.4-0.4C382.7,618.9,382.9,619.1,383,619.2l0.1,0.1L383,619.2z M383.8,626.8h-0.1l0,0
	H383.8L383.8,626.8L383.8,626.8z M380.1,627.5c0.2,0.4,0.5,0.7,0.7,1.1C380.5,628.2,380.3,627.9,380.1,627.5L380.1,627.5z
	 M377.2,626.3c0.2,0,0.3,0.1,0.5,0C377.5,626.3,377.3,626.3,377.2,626.3L377.2,626.3z M377.3,624l-0.1,0.3c-0.2,0.5-0.8,1.2-0.5,1.6
	c-0.2-0.4,0.3-1.1,0.6-1.6C377.2,624.2,377.2,624.1,377.3,624L377.3,624z M373.2,654.4L373.2,654.4l1.3-1.1L373.2,654.4z M373,654.5
	l-0.1,0.1L373,654.5L373,654.5L373,654.5z M371.6,654L371.6,654l-0.8-0.2C371,653.8,371.3,653.9,371.6,654c0.1,0.2,0.2,0.3,0.3,0.4
	C371.8,654.3,371.6,654.1,371.6,654L371.6,654z M368.9,653l0.3,0.2l0,0L368.9,653z M366.9,651.7c0.3,0.3,0.7,0.5,1.1,0.8
	C367.6,652.3,367.2,652,366.9,651.7L366.9,651.7z M367.1,642.1c-0.3,0.3-0.6,0.7-0.8,1C366.5,642.8,366.8,642.4,367.1,642.1
	c0,0,0.1-0.1,0.1-0.1L367.1,642.1z"/>
<path class="st3" d="M437.4,547.2c0-0.1,0-0.1-0.1-0.2c0-0.1,0-0.1-0.1-0.2c0.1,0.1,0.1,0.3,0.2,0.4
	C437.5,547.2,437.5,547.2,437.4,547.2z M372.9,654.5L372.9,654.5z"/>
<polygon class="st2" points="434.3,553.2 434.1,553.4 434,553.1 "/>
<path class="st2" d="M727.8,285L727.8,285L727.8,285L727.8,285c-0.1-0.1-0.1-0.2,0-0.2C727.8,284.9,727.8,284.9,727.8,285z"/>
<path class="st2" d="M727.8,284.8c0-0.2-0.1-0.4-0.1-0.6C728.4,284.4,727.9,284.6,727.8,284.8z"/>
<path class="st0" d="M312.2,715.6c0,0.1-0.1,0.2-0.1,0.3l0,0c-0.1,0.1-0.1,0.2-0.2,0.3c-0.1,0.1-0.1,0.2-0.2,0.3l-0.2,0.2
	c-0.2,0.2-0.3,0.4-0.5,0.6l-0.4,0.4l-4.9,4.7c-0.7,0.7-1.4,1.3-2.1,2c-3,2.9-6,5.7-8.9,8.6c-2.6,2.5-5.2,5.1-7.9,7.7l-7.9,7.7
	c-2,2-4,4-6.1,6c-3.5,3.4-7,6.8-10.5,10.1c-0.8,0.8-1.6,1.5-2.4,2.3l-4,3.8c-1.2,1.1-2.4,2.2-3.6,3.3l-3.6,3.3
	c-3.6,3.3-7.2,6.6-10.8,9.9c-1.4,1.3-2.9,2.6-4.4,4c-0.8,0.7-1.6,1.4-2.4,2.2c-1.4,1.3-2.7,2.5-4.1,3.8l-0.9,0.8
	c-0.1,0.1-0.2,0.2-0.3,0.3c-0.1,0.1-0.3,0.3-0.4,0.4l-0.2,0.2c-0.2,0.2-0.3,0.4-0.5,0.6l-4.1,3.8l-3.4,3.3l-10.1,9.6l-1.1,1.1
	l-3.1,2.9l-0.8,0.8l-2.9,2.8l-0.2,0.2l-17.8,16.9l-15.3,14.5l-2.6,2.5l-3.7,3.5h-0.1l-0.9,0.9c-0.3,0.3-0.6,0.7-0.9,0.9l0,0
	c-5.4,5.2-10.8,10.5-16.2,15.7c-5.4,5.2-10.8,10.5-16.3,15.8l-0.3,0.3c-0.6,0.6-1.2,1.2-1.8,1.8c-0.2,0.2-0.4,0.3-0.6,0.4l0,0
	l-0.4,0.3l-0.2,0.1c-0.1,0.1-0.3,0.1-0.5,0.2h-0.2h-0.1h-0.1h-0.3c-0.1,0-0.2,0-0.3,0l0,0c-0.1,0-0.3,0-0.4-0.1l-0.3-0.1
	c-0.3-0.2-0.7-0.4-0.9-0.6l-0.2-0.1l-0.3-0.2c-0.2-0.2-0.5-0.5-0.7-0.8c-0.2-0.2-0.3-0.5-0.5-0.8c-0.2-0.3-0.3-0.7-0.3-1
	c0,0,0-0.1,0-0.2c0,0,0-0.1,0-0.1c0-0.2,0-0.4,0-0.5c0-0.3,0.1-0.6,0.2-0.8c0.1-0.1,0.1-0.3,0.2-0.4c0-0.1,0.1-0.2,0.1-0.3
	c0-0.1,0.1-0.2,0.1-0.2c0.2-0.2,0.3-0.5,0.5-0.7c0.1-0.1,0.1-0.2,0.2-0.2c0.3-0.3,0.6-0.7,0.9-1l0.6-0.5
	c21.3-20.2,42.4-40.6,63.8-60.7c16.8-15.8,33.4-31.9,50-47.9l6.1-5.9c4.1-3.9,8.2-7.8,12.3-11.6l7.7-7.2c3-2.8,6.1-5.7,9.1-8.5
	c1.7-1.5,3.3-3.1,5-4.7c1.1-1,2.2-2,3.2-3.1c1.9-1.8,3.8-3.6,5.7-5.5c7.6-7.4,15.3-14.7,23.1-22c0.6-0.6,1.2-1.1,1.9-1.6
	c0.1,0,0.2-0.1,0.3-0.1c0.1-0.1,0.2-0.1,0.4-0.1h0.2c0.3,0,0.5,0.1,0.8,0.2c0.2,0.1,0.4,0.2,0.5,0.4l0,0l0.3,0.3
	c0.2,0.2,0.4,0.5,0.6,0.8c0.7,0.8,1.3,1.7,1.7,2.8C312.4,714.9,312.4,715.3,312.2,715.6z"/>
<path class="st0" d="M117.6,895.9c-0.2-0.2-0.3-0.5-0.5-0.8C117.2,895.4,117.4,895.6,117.6,895.9z"/>
<path class="st0" d="M262.4,764.6l-2.4,2.3c-1.3,1.3-2.7,2.6-4.1,3.8l4.1-3.8C260.8,766.1,261.6,765.3,262.4,764.6z"/>
<path class="st3" d="M319.3,724.5c0,0,0,0.1,0,0.1c-0.2,0.4-0.5,0.8-0.9,1.2l-0.4,0.3l-1.7,1.5l-2.3,2c-0.8,0.7-1.5,1.3-2.3,2
	c-0.5,0.4-1,0.9-1.5,1.3c-0.7,0.6-1.4,1.2-2.2,1.8l-1.2,1l-1.3,1c-0.5,0.4-1.1,0.8-1.6,1.2c-5.4,4-9.3,9.3-14.3,13.7
	c-2.7,2.3-5.3,4.7-7.9,7.1s-5.2,4.8-7.8,7.2l0,0c-2.6,2.4-5.1,4.8-7.7,7.3l-7.7,7.3c-0.7,0.6-1.3,1.2-2,1.9c-2,1.9-4,3.8-5.9,5.7
	l-7.9,7.6c-2.6,2.5-5.2,5-7.9,7.6c-2.6,2.5-5.3,5-8,7.5c-16.4,15-31.8,31.1-48.4,45.9c-3,2.7-6,5.3-9,8c-1,0.9-2,1.7-2.9,2.6
	l-2.6,2.3c-1,0.9-2,1.8-3,2.8s-2,1.8-3,2.8s-1.8,1.7-2.6,2.6l-0.1,0.1c-0.2,0.2-0.4,0.4-0.6,0.6s-0.3,0.3-0.4,0.4l-0.9,0.8l-0.9,0.9
	c-0.1,0.1-0.2,0.2-0.3,0.3c-0.3,0.3-0.6,0.5-0.8,0.8s-0.8,0.8-1.2,1.2c-1.2,1.2-2.4,2.3-3.7,3.5c-0.8,0.8-1.7,1.5-2.5,2.2l-3.8,3.3
	c-1.7,1.5-3.4,3-5,4.5c-0.7,0.6-1.3,1.3-2,2c-0.3,0.3-0.7,0.7-1,1l-0.6,0.6c0,0-0.1,0.1-0.1,0.1c-0.2,0.2-0.4,0.3-0.6,0.4
	c-0.1,0.1-0.3,0.2-0.5,0.3s-0.4,0.2-0.7,0.4l-0.1,0.1c-0.2,0.1-0.4,0.3-0.5,0.4l0,0l-0.1,0.1l-0.1,0.1c-0.3,0.3-0.6,0.5-1,0.6
	c-0.1,0.1-0.3,0.1-0.5,0.1l0,0c-0.3,0-0.6,0-0.8-0.1l-0.2-0.1c0,0-0.1,0-0.1,0c-0.1,0-0.2-0.1-0.3-0.2h-0.1l-0.1,0
	c-0.1-0.1-0.2-0.2-0.4-0.3c-0.1-0.1-0.2-0.2-0.3-0.3c-0.1-0.1-0.2-0.2-0.2-0.3l-0.1-0.2c-0.1-0.1-0.1-0.2-0.2-0.2c0,0,0,0,0-0.1
	c0-0.1-0.1-0.1-0.1-0.2l0,0c0-0.1-0.1-0.3-0.1-0.4c0-0.1,0-0.3,0.1-0.4l0.1-0.2l0.2-0.2l0.1-0.1c0.1-0.1,0.2-0.2,0.3-0.3l0.5-0.4
	c0.1,0,0.1-0.1,0.2-0.1c0.1-0.1,0.2-0.1,0.2-0.2l0,0c1.8-1.8,3.6-3.7,5.5-5.5l10.9-11c5.5-5.5,11-11,16.4-16.4
	c0.1-0.1,0.1-0.1,0.2-0.2l0.1,0.1l67.4-64c0.2-0.1,0.4-0.2,0.6-0.3s0.5-0.3,0.7-0.4l0.7-0.4c0.2-0.2,0.5-0.3,0.7-0.5
	s0.4-0.3,0.5-0.4c0,0,0.1,0,0.1-0.1c0.2-0.2,0.4-0.3,0.7-0.5s0.4-0.3,0.6-0.5c0.4-0.3,0.8-0.7,1.1-1s0.7-0.7,1-1c1-1,2-2.1,3-3.2
	l1.2-1.2c0.3-0.3,0.5-0.5,0.8-0.8c4.8-4.6,9.5-9.2,14.3-13.8c2.4-2.3,4.8-4.6,7.2-6.8c2.4-2.3,4.9-4.5,7.4-6.7
	c0.7-0.6,1.3-1.2,2-1.8c1.2-1.1,2.4-2.2,3.5-3.3c0.6-0.6,1.2-1.2,1.8-1.8c1-1,2-2,3-3l2-2l1.6-1.6c0.8-0.8,1.6-1.6,2.5-2.4l0.7-0.6
	l0.7-0.6c0.5-0.4,0.9-0.8,1.4-1.2l0.6-0.5c0.4-0.3,0.8-0.6,1.1-0.9c0.2-0.1,0.4-0.2,0.5-0.4c0,0,0.1-0.1,0.1-0.1
	c0.2-0.1,0.4-0.2,0.6-0.4h0.1l0.4-0.2c0.2-0.1,0.4-0.2,0.6-0.3l0.6-0.3c0.2-0.1,0.4-0.2,0.6-0.3c0.2-0.1,0.4-0.2,0.6-0.2l0.7-0.2
	l0.1,0c0.3-0.1,0.7-0.3,1-0.4c0.2-0.1,0.3-0.2,0.5-0.3c0.1-0.1,0.2-0.1,0.3-0.2c0.1-0.1,0.2-0.1,0.2-0.2c0.5-0.4,1-1,1.2-1.7
	c0.1-0.3,0.2-0.5,0.3-0.8s0.2-0.5,0.3-0.7c0-0.1,0.1-0.2,0.1-0.3c0.1-0.1,0.1-0.3,0.2-0.4c0.1-0.1,0.1-0.3,0.2-0.4l0.3-0.6
	c0.3-0.6,0.7-1.2,1-1.7l0.4-0.5c0.1-0.2,0.2-0.3,0.4-0.5s0.4-0.5,0.6-0.8l0.4-0.5l0.6-0.7c0.5-0.5,1-1,1.5-1.5s0.8-0.7,1.2-1.1
	c1-0.9,2-1.7,3-2.5l1.8-1.5l0.8-0.7c0.5-0.4,1-0.9,1.5-1.3s1-0.9,1.4-1.4s0.7-0.8,1.1-1.2c0.3-0.4,0.6-0.6,1-0.9l0.1-0.1
	c0.1,0,0.2-0.1,0.3-0.1h0.2c0.1,0,0.3,0,0.4,0.1l0.3,0.1l0.1,0.1c0.2,0.1,0.4,0.3,0.6,0.5l0.2,0.2c0.3,0.4,0.7,0.8,1.1,1.1l0.4,0.3
	l0.2,0.2l0.2,0.2c0.1,0.1,0.1,0.1,0.2,0.2l0,0c0.1,0.1,0.1,0.1,0.2,0.2c0.1,0.1,0.1,0.1,0.2,0.2c0.1,0.1,0.1,0.2,0.2,0.4
	C319.4,723.2,319.5,723.9,319.3,724.5z"/>
<path class="st3" d="M124.8,900.6c-0.1-0.1-0.1-0.3-0.1-0.4C124.8,900.3,124.8,900.5,124.8,900.6z"/>
<path class="st3" d="M125.5,901.6c-0.1-0.1-0.2-0.2-0.3-0.3l-0.1-0.2l0.1,0.2C125.3,901.4,125.4,901.5,125.5,901.6z"/>
<path class="st3" d="M131.8,900.1c-0.2,0.2-0.4,0.3-0.6,0.4C131.5,900.4,131.6,900.2,131.8,900.1z"/>
<path class="st3" d="M132,899.9L132,899.9c0,0-0.1,0.1-0.1,0.1C131.9,900,132,900,132,899.9z"/>
<path class="st3" d="M132.1,892.8c-1.8,1.8-3.7,3.6-5.5,5.5l0,0L132.1,892.8z"/>
<path class="st3" d="M140.5,891.8c-1.7,1.5-3.4,3-5,4.5C137.1,894.8,138.8,893.3,140.5,891.8z"/>
<path class="st3" d="M266.2,773.3l-7.7,7.3l-2,1.9c0.6-0.6,1.3-1.3,2-1.9L266.2,773.3z"/>
<path class="st3" d="M289.6,751.7c-2.7,2.3-5.3,4.7-7.9,7.1C284.3,756.4,286.9,754,289.6,751.7z"/>
<path class="st3" d="M318.4,725.8c-0.1,0.1-0.2,0.2-0.4,0.3l-1.7,1.5l1.7-1.5L318.4,725.8z"/>
<path class="st0" d="M42.7,975.7L42.7,975.7L42.7,975.7L42.7,975.7z"/>
<path class="st0" d="M113.7,906.8c0,0.5-0.2,1.1-0.6,1.5c-1.5,1.9-3.2,3.8-5,5.5l-7.4,6.9l-7.4,6.9l-7.4,6.9
	c-2.5,2.3-4.9,4.6-7.4,6.9c-2,1.8-3.9,3.7-5.9,5.6c-1.4,1.3-2.8,2.7-4.2,4c-0.8,0.7-1.5,1.5-2.3,2.2c-1.7,1.7-3.5,3.3-5.2,5
	c-0.4,0.4-0.8,0.8-1.2,1.1l-1.2,1.1l-2.6,2.4c-0.9,0.8-1.8,1.6-2.6,2.4c-0.3,0.2-0.5,0.5-0.8,0.8s-0.8,0.8-1.2,1.2s-0.5,0.5-0.8,0.8
	c-0.4,0.4-0.8,0.9-1.2,1.3c-0.3,0.3-0.5,0.6-0.8,0.9s-0.4,0.5-0.6,0.8s-0.3,0.4-0.4,0.6c-0.5,0.6-1,1.3-1.4,1.9
	c-0.2,0.3-0.4,0.6-0.7,0.8c-0.1,0.1-0.2,0.2-0.3,0.3c-0.1,0.1-0.2,0.2-0.3,0.3c-0.1,0.1-0.3,0.2-0.4,0.2l-0.4,0.2
	c-0.1,0-0.3,0.1-0.4,0.1c-0.1,0-0.2,0-0.3,0h-0.3l0,0c0-0.2,0.1-0.4,0.2-0.6c0-0.1,0.1-0.3,0.1-0.4c0-0.1,0-0.1,0.1-0.2
	c0.1-0.2,0.2-0.4,0.2-0.5s0.2-0.3,0.3-0.5c0.1-0.1,0.2-0.3,0.2-0.4c0.1-0.1,0.2-0.3,0.3-0.4s0.3-0.5,0.5-0.7
	c0.4-0.6,0.9-1.1,1.3-1.6s1-1,1.4-1.5c3.3-3.5,6.7-7.1,10.1-10.6c6.7-7,13.5-14.1,20.2-21.2c3.3-3.5,6.7-7.1,10-10.7l2.6-2.8
	c1.8-1.9,3.5-3.8,5.3-5.6c1.6-1.6,3.1-3.2,4.7-4.8c2.9-3,5.9-6,8.8-8.9c0.6-0.6,1-0.9,1.5-0.9h0.2c0.1,0,0.1,0,0.2,0.1
	c0.1,0.1,0.3,0.1,0.4,0.2l0.2,0.1c0.1,0.1,0.3,0.2,0.4,0.4l0.2,0.2l0.2,0.2c0.1,0.1,0.2,0.2,0.3,0.4l0.3,0.3l0.1,0.2l0.2,0.3
	c0.1,0.1,0.2,0.2,0.2,0.4c0,0.1,0.1,0.2,0.1,0.3c0,0.1,0.1,0.2,0.1,0.3c0,0,0,0,0,0.1C113.7,906.6,113.7,906.7,113.7,906.8z"/>
<path class="st3" d="M367,678.2c-0.1,0.3-0.2,0.6-0.4,0.8l-0.1,0.1c-0.3,0.3-0.6,0.4-1,0.5c-0.3,0-0.6,0-0.9,0h-0.3l-1-0.2l-0.6-0.1
	c-0.6-0.1-1.6-0.2-1.8,0.1c-0.3,0.5-0.7,1-1.1,1.4c-0.2,0.2-0.4,0.5-0.6,0.7s-0.4,0.4-0.6,0.7s-0.5,0.6-0.8,0.8s-0.5,0.5-0.8,0.8
	l-0.9,0.8l0,0c-0.5,0.4-1,0.8-1.5,1.3l-1.5,1.2l0,0l-0.9,0.7l-0.9,0.7l-1.9,1.4c-0.8,0.6-1.7,1.3-2.5,1.9c-0.8,0.7-1.6,1.3-2.4,2
	s-1.5,1.5-2.2,2.2s-1.5,1.6-2.2,2.4c-1.5,1.6-3.1,3.1-4.6,4.7c-4,3.8-8.1,7.5-12,11.4c-0.5,0.5-0.9,1-1.4,1.5l-0.4,0.4l-0.2,0.2
	c-0.2,0.1-0.3,0.2-0.5,0.3l-0.3,0.1l-0.2,0.1h-0.1c-0.2,0-0.4,0.1-0.6,0.1h-0.1c0-0.1,0-0.1,0-0.2c0-0.4,0-0.8,0.2-1.2
	c0-0.1,0.1-0.2,0.1-0.2c0,0,0-0.1,0-0.1l0.2-0.2c0-0.1,0.1-0.1,0.1-0.2l0.2-0.2l0.2-0.2c0.1-0.1,0.3-0.2,0.4-0.3
	c0.4-0.4,0.9-0.7,1.3-1c8.7-8.4,17.5-16.8,26.2-25.2c1-1,1.8-1.7,2.4-2.4c0.2-0.2,0.4-0.4,0.5-0.6c0.6-0.6,0.9-1.3,1-2.1
	c0-0.1,0-0.2,0-0.3c0-0.1,0-0.2,0-0.2c0-0.1,0-0.2-0.1-0.3c0-0.1-0.1-0.2-0.1-0.2c-0.1-0.2-0.2-0.3-0.2-0.5
	c-0.1-0.2-0.2-0.4-0.3-0.6c-0.3-0.4-0.6-0.9-1-1.4l-0.3-0.4l-1.1-1.3l0,0l0.2-0.1l0.2-0.1c0.1-0.1,0.3-0.1,0.4-0.2l0.2-0.1
	c0.6-0.2,1.3-0.3,1.9-0.3c0.5,0,1,0,1.4,0c0.3,0,0.6,0,1,0h0.5c0.3,0,0.6,0,0.9-0.1c0.1,0,0.2,0,0.3,0c0.2,0,0.4-0.1,0.6-0.2
	c0.1,0,0.3-0.1,0.4-0.2c0.4-0.2,0.8-0.4,1.1-0.7c0.1-0.1,0.2-0.2,0.3-0.3c0.1-0.2,0.3-0.4,0.4-0.5c0-0.1,0.1-0.1,0.1-0.2l0.1-0.2
	c0-0.1,0.1-0.1,0.1-0.2c0-0.1,0.1-0.2,0.1-0.3c0.1-0.4,0.2-0.7,0.3-1.1l0,0v-0.1c0.7,0.2,1.5,0.4,2.2,0.6c0.7,0.2,1.4,0.4,2.1,0.8
	c0.4,0.2,0.8,0.4,1.1,0.7l0.5,0.4c0.2,0.1,0.3,0.3,0.5,0.5c0.1,0.2,0.3,0.3,0.4,0.5c0.1,0.2,0.3,0.4,0.4,0.6l0.1,0.3
	c0,0.1,0.1,0.2,0.1,0.3c0,0.1,0,0.1,0,0.2C367,677.8,367,678,367,678.2z"/>
<path class="st0" d="M364.8,696.8L364.8,696.8l-1,0.5l-1,0.5c-0.9,0.6-1.8,1.2-2.6,1.9c-0.5,0.5-1.1,0.9-1.6,1.4
	c-1.4,1.3-2.6,2.7-3.9,4.1c-0.4,0.5-0.9,0.9-1.3,1.3s-1,1-1.6,1.5s-1.2,1-1.8,1.6c-0.4,0.4-0.8,0.7-1.2,1.1l-1.4,1.2
	c-0.4,0.3-0.8,0.7-1.1,1.1c-3.3,3.1-6.6,6.2-9.9,9.4c-1.2,1.1-2.4,2.2-3.5,3.3l-0.3,0.3c-0.5,0.4-0.9,0.9-1.4,1.3l-0.5,0.4l-0.2,0.2
	c-0.2,0.1-0.3,0.2-0.5,0.3c-0.2,0.1-0.3,0.2-0.5,0.2c-0.3,0.2-0.7,0.3-1.1,0.3h-0.3c-0.2,0-0.3,0-0.5,0l0,0l4.5-4.7l4.5-4.7
	c3-3.1,6-6.2,9-9.3l0,0c0.3-0.4,0.7-0.7,1-1l1.4-1.4c1.4-1.4,2.9-2.7,4.4-4c0.5-0.4,1-0.9,1.5-1.3c1.4-1.4,2.9-2.8,4.2-4.2
	c0.6-0.7,1.2-1.5,1.8-2.2s1.1-1.6,1.7-2.4C364.8,692.5,365.8,693.7,364.8,696.8z"/>
<path class="st0" d="M342.8,672.8l-0.5,0.2l-0.4,0.2c-0.6,0.3-1.1,0.6-1.6,0.9c-0.2,0.2-0.4,0.3-0.7,0.5c-0.2,0.1-0.4,0.3-0.6,0.5
	s-0.5,0.5-0.8,0.7c-0.5,0.4-0.9,0.8-1.3,1.3l-0.8,0.7l-12.5,12c-4.2,4-8.4,8-12.5,12c-1,1-2,2.4-4.3,1.3l0,0c0.3-0.5,0.7-0.9,1-1.4
	l0.5-0.7c0.2-0.2,0.4-0.5,0.5-0.7c0.4-0.4,0.8-0.9,1.1-1.3s0.8-0.8,1.2-1.2l0.8-0.8c0.6-0.6,1.2-1.2,1.8-1.7
	c1.2-1.2,2.5-2.3,3.7-3.5c0.6-0.6,1.2-1.1,1.8-1.7l1.4-1.4l1.4-1.4l2.9-2.8l1.9-1.8c3.3-3.2,6.6-6.3,9.9-9.5c0.3-0.3,0.7-0.6,1-0.9
	l0.4-0.3c0.1-0.1,0.3-0.2,0.4-0.3c0.1-0.1,0.3-0.2,0.4-0.3l0.2-0.2l0.4-0.2l0.4-0.2c0.2-0.1,0.5-0.2,0.7-0.2l0.4-0.1
	c0.3,0,0.5-0.1,0.8-0.1C343,671,342.8,671.9,342.8,672.8z"/>
<path class="st0" d="M345.5,676.1c0,0.1-0.1,0.3-0.2,0.4c-0.1,0.1-0.2,0.3-0.3,0.4c-0.1,0.1-0.2,0.2-0.2,0.3l-0.3,0.3
	c-10.4,10-20.8,20-31.2,29.9c-0.8,0.5-1.6,0.9-2.4,1.1l0,0c-0.3-1-0.1-2.1,0.6-2.9l0,0l0.2-0.2l0.2-0.2c0.1-0.1,0.1-0.1,0.2-0.2
	l0.2-0.2l0.2-0.2l0.3-0.3l0.2-0.2l5.5-5.3c0.6-0.6,1.1-1.1,1.7-1.7c3.4-3.3,6.8-6.6,10.2-9.9l0.8-0.8c2.4-2.4,4.9-4.7,7.3-7l3.8-3.6
	l0.1-0.1c0.2-0.2,0.4-0.6,0.7-0.8l0.1-0.1c0,0,0.1-0.1,0.1-0.1l0.1-0.1c0.1-0.1,0.2-0.1,0.2-0.2l0.2-0.1c0.1,0,0.2,0,0.2,0
	c0.4,0,0.7,0.2,1,0.5C345.3,675.2,345.5,675.6,345.5,676.1z"/>
<path class="st3" d="M358.2,688.8c-7.5,8.4-16,15.7-24,23.5c-3.4,3.3-7,6.4-10.6,9.6l0,0c-0.1-0.5-0.1-0.9,0-1.4
	c0-0.1,0-0.1,0.1-0.2c0-0.1,0-0.1,0.1-0.2c0.1-0.2,0.2-0.5,0.4-0.7c0.1-0.1,0.2-0.3,0.3-0.4l0.2-0.2l0.4-0.4
	c9.8-9.4,19.6-18.8,29.4-28.2l0.5-0.5l0.3-0.3c0.5-0.5,1.1-0.8,1.8-0.9C357.4,688.5,357.8,688.6,358.2,688.8z"/>
<polygon class="st0" points="315.7,670.8 315.6,670.8 315.6,670.8 "/>
<path class="st0" d="M319.6,659.8c-0.2,0.2-0.3,0.5-0.5,0.7C319.3,660.3,319.4,660,319.6,659.8c0.1-0.2,0.2-0.3,0.4-0.5
	C319.8,659.5,319.7,659.7,319.6,659.8z M319.6,667.8L319.6,667.8l0-0.1L319.6,667.8L319.6,667.8z M313.3,669.2
	c-0.1-0.3-0.3-0.6-0.4-0.9C313,668.7,313.1,669,313.3,669.2L313.3,669.2z M312.6,667.2c0-0.2-0.1-0.4-0.2-0.6
	c-0.1-0.2,0-0.5,0.2-0.7c-0.2,0.2-0.2,0.5-0.2,0.7c0.1,0.4,0.2,0.9,0.4,1.4c0-0.1,0-0.1,0-0.2C312.7,667.6,312.7,667.4,312.6,667.2
	L312.6,667.2z"/>
<path class="st0" d="M305.6,689.6L305.6,689.6L305.6,689.6z"/>
<path class="st0" d="M333.6,663.1c-3.4,3.5-6.7,6.9-10.1,10.3l-2.1,2.1l-2.2,2.1l-2.1,2.1c-1.1,1-2.2,2.1-3.3,3.1l-1.7,1.5
	c-0.6,0.5-1.1,1-1.7,1.5c-0.8,0.7-1.5,1.3-2.3,2l-2.3,1.9l13.2-13.9l13.3-14L333.6,663.1z"/>
<path class="st3" d="M346.1,667.1c0,0.1,0,0.2,0,0.3c0,0.1-0.1,0.3-0.1,0.4c0,0.1-0.1,0.2-0.1,0.3c0,0.1-0.1,0.2-0.1,0.3
	c0,0.1-0.1,0.2-0.1,0.3s-0.2,0.3-0.3,0.5s-0.2,0.3-0.3,0.5s-0.2,0.2-0.2,0.4c-0.2,0.3-0.4,0.6-0.6,0.9l-0.4,0.6l-1,1.3
	c0-0.9,0.2-1.8-1-2.2l0,0c-0.2-0.4-0.4-0.9-0.6-1.3c-0.6-1.3-1.2-2.6-1.9-3.9c-0.1-0.3-0.3-0.5-0.5-0.8c-0.3-0.6-0.7-1.1-1.1-1.7
	c-0.1-0.2-0.3-0.3-0.4-0.5c0,0,0,0,0,0c-0.1-0.2-0.3-0.3-0.5-0.5c-0.3-0.3-0.6-0.6-0.9-0.8c-0.1-0.1-0.2-0.1-0.3-0.2
	c-0.2-0.2-0.4-0.3-0.6-0.5s-0.5-0.3-0.8-0.5c-1.4-0.8-1.8-2.3-1.6-3.9c0-0.1,0-0.1,0-0.2l0.1-0.2c0-0.1,0.1-0.2,0.1-0.2l0.2-0.2
	l0.2-0.1l0,0c0.1-0.1,0.3-0.1,0.4-0.1h0.4c0.2,0,0.4,0,0.6,0.1l0.3,0.1l0.2,0.1l0.2,0.1c0.1,0.1,0.2,0.2,0.3,0.3l0.1,0.2
	c0.2,0.3,0.3,0.5,0.5,0.8c0.1,0.3,0.2,0.6,0.4,1c0,0.1,0.1,0.3,0.2,0.4c0.1,0.3,0.2,0.5,0.4,0.8l0.2,0.4c0.2,0.2,0.3,0.5,0.5,0.7
	c0.2,0.2,0.4,0.4,0.6,0.6c0.3,0.4,0.7,0.7,1.1,1c0.3,0.2,0.5,0.4,0.8,0.6c0.3,0.2,0.5,0.4,0.8,0.5l1.2,0.7c0.5,0.3,1,0.6,1.4,0.9
	s0.5,0.4,0.8,0.5s0.3,0.3,0.5,0.4l0.2,0.2l0.2,0.2c0.2,0.2,0.3,0.4,0.5,0.6c0,0.1,0.1,0.1,0.1,0.2c0,0,0,0.1,0,0.1v0.1
	c0,0.1,0,0.1,0,0.2C346,667,346.1,667,346.1,667.1z"/>
<path class="st3" d="M375.5,699c-0.1,0.2-0.2,0.3-0.4,0.4c-0.5,0.3-1,0-1.5-0.2l-0.2-0.1l-0.2-0.1l-0.2-0.1
	c-0.3-0.1-0.6-0.2-0.8-0.3c-0.3-0.1-0.5-0.2-0.8-0.3l-0.5-0.3l-1-0.5l-0.5-0.3l-0.5-0.2l-0.5-0.2c-0.2-0.1-0.4-0.1-0.6-0.2
	c-0.2,0-0.4-0.1-0.6-0.1h-0.2c-0.2,0-0.4,0-0.7,0H366h-0.3c-0.2,0-0.3,0.1-0.5,0.1l-0.4,0.1l0,0c1-3.1,0-4.2-3.2-3.4
	c-0.1-0.5-0.2-1.1-0.3-1.6c1-0.9,1.2-1.9,0.3-3l0,0c0,0,0.1,0,0.1-0.1c0.1-0.1,0.1-0.2,0.2-0.4c0-0.3,0.1-0.6,0.2-0.8
	c0-0.1,0.1-0.1,0.1-0.2h0.1h0.1c0.1,0,0.1,0,0.2,0c0.2,0,0.3,0.1,0.5,0.2c0.4,0.2,0.8,0.4,1.2,0.6c0.1,0,0.1,0.1,0.2,0.1l0.6,0.3h0
	c0.1,0,0.2,0.1,0.2,0.1c0.1,0,0.1,0.1,0.2,0.1c0,0,0.1,0,0.1,0c0.3,0.2,0.6,0.3,0.8,0.5c0.5,0.3,1.1,0.7,1.6,1.1s0.9,0.7,1.4,1
	l0.2,0.2l0.7,0.5c0.1,0.1,0.3,0.2,0.4,0.3l0.8,0.7l0.5,0.4c0.2,0.1,0.3,0.3,0.5,0.5l0.2,0.2l0.2,0.2l0.4,0.5c0.3,0.3,0.6,0.6,0.9,1
	c0.1,0.2,0.3,0.3,0.4,0.5s0.3,0.3,0.4,0.5C375.2,697.5,376.1,698.2,375.5,699z"/>
<path class="st3" d="M367.8,707.8c-0.2,0.5-0.4,1-0.6,1.5c-0.1,0.1-0.1,0.3-0.2,0.4c-0.1,0.1-0.1,0.3-0.2,0.4
	c-0.1,0.1-0.1,0.3-0.2,0.4s0,0,0,0c-0.1,0.1-0.1,0.2-0.2,0.3l0,0l-0.2,0.3c-0.4,0.5-0.8,1.1-1.2,1.5l-0.5,0.6
	c-0.2,0.2-0.5,0.5-0.7,0.7s-0.5,0.5-0.7,0.7s-0.5,0.4-0.7,0.6l-0.8,0.7l-1.3,1.1l-0.5,0.4l-0.8,0.7c-0.8,0.7-1.5,2.2-2.3,3l-0.2,0.2
	l-0.2,0.1l-0.2,0.1c0,0-0.1,0-0.1,0h-0.1c-0.2,0-0.4,0-0.6-0.1c-0.1,0-0.1-0.1-0.2-0.1c-0.1,0-0.1-0.1-0.2-0.2c0,0-0.1-0.1-0.1-0.1
	c-0.1-0.1-0.1-0.1-0.2-0.2c-0.2-0.2-0.3-0.5-0.2-0.8c0.1-0.3,0.3-0.6,0.6-0.8l0.5-0.4l0,0l0.5-0.4l0,0l0.6-0.4l0.3-0.2
	c0.2-0.1,0.4-0.3,0.5-0.4c0.2-0.1,0.3-0.3,0.4-0.4l0,0c0.4-0.4,0.8-0.8,1.2-1.2l0.9-0.9l1-0.9l1.4-1.3c1-0.9,2-1.8,3-2.7
	S367,708.6,367.8,707.8z"/>
<path class="st0" d="M315.7,670.8L315.7,670.8L315.7,670.8z"/>
<path class="st0" d="M316.7,673.2l-0.3,0c-0.1,0-0.1,0-0.2,0c0.1,0,0.1,0,0.2,0L316.7,673.2z"/>
<path class="st0" d="M310.4,679c0,0,0,0.1,0,0.1c-0.1,0.6-0.5,1.1-1,1.5l-0.3,0.2l-0.3,0.2l-0.2,0.2c-0.2,0.2-0.4,0.3-0.5,0.5l0,0
	c-0.1-0.3-0.2-0.7-0.2-1c-0.1-0.4-0.1-0.8,0-1.2c0-0.1,0.1-0.2,0.1-0.3c0-0.1,0.1-0.1,0.1-0.2c0.1-0.1,0.1-0.2,0.2-0.2
	c0.1-0.1,0.2-0.2,0.3-0.2c0.2-0.1,0.4-0.2,0.6-0.3l0.1-0.1l0,0l0.3-0.1c0.1,0,0.2,0,0.3,0h0.1h0.1c0.2,0.1,0.3,0.2,0.3,0.3
	C310.4,678.5,310.4,678.8,310.4,679z"/>
<path class="st0" d="M311.7,671.9c0,0.2,0,0.3,0,0.5c0,0.2-0.1,0.5-0.1,0.7l-0.1,0.2c0,0.1-0.1,0.2-0.1,0.3
	c-0.1,0.1-0.1,0.2-0.2,0.3c-0.1,0.1-0.2,0.2-0.3,0.2c-0.2,0.1-0.4,0.2-0.6,0.3l-0.4,0.1h-0.2c-0.1,0-0.1,0-0.2,0
	c-0.1,0-0.1,0-0.2-0.1c-0.1-0.1-0.2-0.2-0.2-0.3c0-0.2,0-0.3,0-0.5c0-0.2,0.1-0.3,0.1-0.5c0.1-0.1,0.1-0.3,0.2-0.4
	c0.1-0.1,0.1-0.2,0.2-0.2l0.1-0.1l0.2-0.2c0,0,0.1-0.1,0.2-0.1l0.2-0.1c0.1-0.1,0.3-0.1,0.4-0.2l0.5-0.1c0.2,0,0.3-0.1,0.5-0.1
	L311.7,671.9z"/>
<path class="st0" d="M42.7,975.8c0,0.1,0,0.1,0,0.2c0,0.3-0.1,0.6-0.2,0.8c0,0.1-0.1,0.1-0.1,0.1c0,0,0,0-0.1,0.1h-0.1
	c0,0-0.1,0.1-0.1,0.1h-0.1l-0.2,0.1h-0.1c-0.1,0-0.1-0.1-0.2-0.1l-0.1-0.1c-0.1-0.1-0.2-0.2-0.2-0.3c0-0.1,0-0.2,0.1-0.3
	c0-0.1,0.1-0.1,0.1-0.2c0.1-0.2,0.4-0.3,0.6-0.3l0.5-0.1L42.7,975.8z"/>
<path class="st0" d="M42.7,975.8L42.7,975.8L42.7,975.8L42.7,975.8z"/>
<polygon class="st0" points="312.3,676.4 312.3,676.4 312,676.4 312,676.4 312.2,676.1 "/>
<path class="st0" d="M312.2,671.3c-0.2,0.2-0.3,0.4-0.5,0.5l-0.1-0.1L312.2,671.3z"/>
<path class="st3" d="M698.8,352c0.1,4.3-5.5,11.3-8.6,11.7c-2,0.3-2.2-1-1.9-2.5c0.4-1.8,2.3-2.4,3.1-3.8s4.1-1.6,3-3.8
	c-1.3-2.5-3.1-4.7-5.5-6.3c-1.8-1.2-2.7,1.8-4.2,2.6s-2.6,3.4-4.5,1.3c-1.3-1.6,0.2-3.5,1.5-4.2c6-3.1,3.1-6.3,0.5-9.8
	c-0.9-1.2-3.5-2.8-1.5-4.4s4.5-0.9,5.9,1.6c1.2,2.1,3.7,3.5,3,6.5c-0.4,1.8,1.2,1.4,2,2C695.4,345.4,697.3,349.1,698.8,352z"/>
<path class="st3" d="M735.9,318.1c0,5.4-6.9,12-11.9,11.3c-2.3-0.3-8.5-6.6-8.5-8.8c0-2.5,1.8-2.6,3.5-1.9c1.1,0.5,1.8,1.9,2.9,2.6
	c1.6,1.1,1.8,4.6,3.8,4c2.3-0.9,4.3-2.5,5.5-4.7c1.5-2.7-1.7-4-3.1-5.7c-1.1-1.3-3.4-1.6-2.6-4c0.4-1.3,1.6-2.2,2.9-2.4
	c1.9-0.3,3,1.3,3.8,2.7C733.6,313.4,735.9,315.1,735.9,318.1z"/>
<path class="st3" d="M748.6,301.2c-0.2,1.1-1,1.6-2,2s-2.4,0.9-1.6,2.4c0.3,0.8,0.9,1.4,1.6,1.7c1.3,0.4,1.5-1,1.9-1.8
	c0.6-1.2,1.6-2,2.7-1.3s0.7,2.1,0.3,3.2c-1.2,3.5-4.5,4.8-7.3,2.5c-1.7-1.4-3-2.3-5.1-1.2c-0.8,0.4-1.7,0.1-2.2-0.7
	c-0.6-0.9-0.5-2,0.3-2.8c2.9-2,5.8-3.9,8.9-5.5c0.9-0.5,2-0.2,2.4,0.7C748.5,300.6,748.6,300.9,748.6,301.2z"/>
<path class="st3" d="M679.8,334.2c-0.1,0.2-0.2,0.5-0.3,0.7l-0.2,0.3c-0.3,0.4-0.6,0.8-0.9,1.1c-0.3,0.4-0.6,0.7-0.9,1
	c-0.2,0.2-0.3,0.3-0.5,0.5c-0.9,0.8-1.8,1.4-2.8,1.9c-0.7,0.5-1.6,0.7-2.4,0.8c-0.1,0-0.2,0-0.3,0c0,0-0.1,0-0.1,0h-0.1
	c-0.1,0-0.1,0-0.2-0.1c0,0-0.1,0-0.1-0.1l-0.1-0.1c0,0-0.1-0.1-0.1-0.1c-0.2-0.2-0.3-0.5-0.3-0.8c0-0.3-0.1-0.6-0.1-0.8
	c0-0.5,0-1,0.1-1.5c0,0,0-0.1,0-0.1h0.1c1.2-0.1,2-0.6,1.9-1.9V335h0.1l0.6-0.1c0.3,0,0.6-0.1,0.8-0.2c0.1,0,0.1,0,0.2-0.1
	c0.1,0,0.2-0.1,0.3-0.1c0.1,0,0.1-0.1,0.2-0.1l0.2-0.2c0.2-0.2,0.4-0.3,0.6-0.5c0.4-0.6,1-1,1.7-1.3c0.4-0.1,0.8-0.1,1.2,0
	c0.1,0,0.2,0.1,0.4,0.2l0.2,0.1c0.1,0.1,0.2,0.2,0.3,0.3c0.1,0.1,0.2,0.3,0.3,0.4C679.8,333.7,679.8,334,679.8,334.2z"/>
<path class="st2" d="M315.7,670.8L315.7,670.8L315.7,670.8L315.7,670.8z"/>
<polygon class="st2" points="319.7,667.8 319.6,667.8 319.6,667.8 "/>
<path class="st0" d="M330.5,659.4c0-0.1,0-0.1-0.1-0.2c0-0.1-0.1-0.1-0.1-0.2c0-0.1-0.1-0.2-0.1-0.3s-0.2-0.3-0.3-0.5
	c-0.1-0.2-0.2-0.4-0.3-0.7c-0.1-0.3-0.2-0.6-0.4-0.8c-0.1-0.2-0.3-0.4-0.5-0.6c-0.6-0.6-1.4-0.7-2.1-0.2c-0.2,0.1-0.3,0.2-0.5,0.3
	c-0.2,0.1-0.4,0.2-0.6,0.3c-0.9,0.4-1.8,0.6-2.7,1l-0.6,0.3c-0.2,0.1-0.4,0.2-0.6,0.3c-0.1,0.1-0.3,0.2-0.4,0.3
	c-0.1,0.1-0.3,0.2-0.4,0.3c-0.1,0.1-0.3,0.2-0.4,0.3c-0.1,0.1-0.3,0.3-0.4,0.4c-0.1,0.1-0.2,0.3-0.3,0.5c-0.2,0.2-0.3,0.5-0.5,0.7
	c-0.5,0.6-1,1.1-1.4,1.7c-0.2,0.2-0.3,0.4-0.5,0.6c-0.2,0.2-0.3,0.5-0.5,0.7c-0.1,0.3-0.3,0.5-0.4,0.8c0,0.1-0.1,0.2-0.1,0.3
	c0,0.1-0.1,0.2-0.1,0.3s-0.1,0.3-0.1,0.5l0,0l-0.3-0.1c-0.2,0-0.4-0.1-0.6-0.1c-0.1,0-0.3,0-0.4,0h-0.4l-0.4,0.1l-0.2,0h-0.2
	l-0.2,0.1c-0.1,0-0.2,0.1-0.3,0.2c-0.1,0.1-0.2,0.1-0.2,0.2l-0.1,0.1c-0.2,0.2-0.2,0.4-0.2,0.7c0.1,0.2,0.1,0.4,0.2,0.6
	s0.1,0.4,0.2,0.7c0,0.1,0,0.1,0,0.2c0,0.1,0.1,0.2,0.1,0.3c0.1,0.3,0.2,0.6,0.4,0.9c0,0,0,0,0,0.1c0,0.1,0.1,0.1,0.1,0.2
	c0.1,0.1,0.1,0.2,0.2,0.3c0.1,0.1,0.1,0.2,0.2,0.2c0.1,0.1,0.2,0.2,0.3,0.2c0.2,0.2,0.5,0.3,0.8,0.4l0.3,0.1h0.4l0,0l0,0
	c0.1,0.5,0,1.1,0,1.7c0,0.1,0,0.2,0,0.2c0,0,0,0.1,0,0.2c0,0,0,0.1,0,0.1c0,0.1,0.1,0.1,0.1,0.2c0,0,0.1,0,0.1,0.1h0.1
	c0.1,0,0.1,0,0.2,0h0.3c0.2,0,0.4-0.1,0.6-0.2c0.2-0.1,0.4-0.2,0.5-0.3c0.1-0.1,0.2-0.1,0.3-0.2c0.2-0.1,0.3-0.2,0.4-0.4
	c0.1-0.1,0.2-0.2,0.2-0.3c0.1-0.1,0.2-0.2,0.3-0.4c0.1-0.1,0.2-0.3,0.2-0.4l0.1-0.2c0.1-0.1,0.1-0.3,0.2-0.4s0.1-0.2,0.1-0.3
	s0.1-0.2,0.1-0.3c4.1-1.9,6.8-5.7,10.1-8.5c0.1-0.1,0.2-0.2,0.3-0.3c0-0.1,0.1-0.1,0.1-0.2c0,0,0.1-0.1,0.1-0.1
	c0.1-0.1,0.1-0.2,0.1-0.3c0,0,0-0.1,0-0.1c0-0.1,0-0.2,0.1-0.2C330.5,659.7,330.5,659.6,330.5,659.4z M319.7,667.7l0,0.1l0,0l0,0
	L319.7,667.7L319.7,667.7l1.3-1.1L319.7,667.7z"/>
<path class="st2" d="M319.7,667.7l0,0.1l0,0L319.7,667.7z"/>
</svg>
